{
.appVersion = "3108";
copyright = "Copyright © 2021 by Matthew Warland. All rights reserved.";
customParameters = (
{
name = Axes;
value = (
{
Name = Weight;
Tag = wght;
},
{
Name = Italic;
Tag = ital;
}
);
},
{
name = note;
value = "SCALING:\012\012WIDTH	57 	57 	57\012HEIGHT	57 	57 	57\012WEIGHT	50 	-75 	-300\012\012ADJ S	0	0	0\012Vert S	150	150	150";
}
);
date = "2021-01-03 15:06:52 +0000";
designer = "Matthew Warland";
designerURL = www.warland.ca;
disablesNiceNames = 1;
familyName = "Harley Grotesk";
featurePrefixes = (
{
automatic = 1;
code = "languagesystem DFLT dflt;\012\012languagesystem latn dflt;\012";
name = Languagesystems;
}
);
features = (
{
automatic = 1;
code = "feature dnom;\012feature ss01;\012feature ss02;\012feature ss03;\012";
name = aalt;
},
{
automatic = 1;
code = "lookup ccmp_latn_1 {\012	sub fi by f i;\012	sub fl by f l;\012} ccmp_latn_1;\012\012script latn;\012lookup ccmp_latn_1;\012";
name = ccmp;
},
{
automatic = 1;
code = "sub zero by zero.dnom;\012sub one by one.dnom;\012sub two by two.dnom;\012sub three by three.dnom;\012sub four by four.dnom;\012sub five by five.dnom;\012sub six by six.dnom;\012sub seven by seven.dnom;\012sub eight by eight.dnom;\012sub nine by nine.dnom;\012";
name = dnom;
},
{
automatic = 1;
code = "lookupflag IgnoreMarks;\012sub W W W by W_W_W;\012sub f f j by f_f_j;\012sub f f t by f_f_t;\012sub w w w by w_w_w;\012sub W W by W_W;\012sub f j by f_j;\012sub f t by f_t;\012sub r t by r_t;\012sub t t by t_t;\012sub w w by w_w;\012";
name = dlig;
},
{
automatic = 1;
code = "lookupflag IgnoreMarks;\012sub f f i by f_f_i;\012sub f f l by f_f_l;\012sub f f by f_f;\012sub f i by fi;\012sub f l by fl;\012";
name = liga;
},
{
automatic = 1;
code = "sub Q by Q.ss01;\012sub R by R.ss01;\012";
name = ss01;
},
{
automatic = 1;
code = "sub a by a.ss02;\012sub y by y.ss02;\012";
name = ss02;
},
{
automatic = 1;
code = "sub f by f.ss03;\012sub r by r.ss03;\012sub t by t.ss03;\012";
name = ss03;
}
);
fontMaster = (
{

glyphs = (
{
color = 5;
glyphname = A;
lastChange = "2022-01-20 12:19:35 +0000";
layers = (
{
background = {
paths = (
{
closed = 1;
nodes = (
"107 0 LINE",
"183 192 LINE",
"518 192 LINE",
"595 0 LINE",
"685 0 LINE",
"402 700 LINE",
"299 700 LINE",
"17 0 LINE"
);
},
{
closed = 1;
nodes = (
"349 611 LINE",
"486 270 LINE",
"214 270 LINE"
);
}
);
};
layerId = "30E869CF-9A31-4D47-9626-61B8364FC2DA";
paths = (
{
closed = 1;
nodes = (
"107 0 LINE",
"183 192 LINE",
"518 192 LINE",
"595 0 LINE",
"685 0 LINE",
"402 700 LINE",
"299 700 LINE",
"17 0 LINE"
);
},
{
closed = 1;
nodes = (
"349 611 LINE",
"486 270 LINE",
"214 270 LINE"
);
}
);
width = 700;
},
{
background = {
paths = (
{
closed = 1;
nodes = (
"67 0 LINE",
"160 223 LINE",
"518 223 LINE",
"612 0 LINE",
"657 0 LINE",
"363 700 LINE",
"315 700 LINE",
"22 0 LINE"
);
},
{
closed = 1;
nodes = (
"338 651 LINE",
"502 262 LINE",
"176 262 LINE"
);
}
);
};
layerId = "18A01495-E50D-4F2B-A1D8-5C332C731D93";
paths = (
{
closed = 1;
nodes = (
"67 0 LINE",
"160 223 LINE",
"518 223 LINE",
"612 0 LINE",
"657 0 LINE",
"363 700 LINE",
"315 700 LINE",
"22 0 LINE"
);
},
{
closed = 1;
nodes = (
"338 651 LINE",
"502 262 LINE",
"176 262 LINE"
);
}
);
width = 679;
},
{
background = {
paths = (
{
closed = 1;
nodes = (
"14 0 LINE",
"148 223 LINE",
"498 223 LINE",
"546 0 LINE",
"589 0 LINE",
"437 700 LINE",
"390 700 LINE",
"-34 0 LINE"
);
},
{
closed = 1;
nodes = (
"407 652 LINE",
"489 262 LINE",
"172 262 LINE"
);
}
);
};
layerId = "047DE625-588D-43A1-AE3A-C97924B5E3D3";
paths = (
{
closed = 1;
nodes = (
"14 0 LINE",
"148 223 LINE",
"498 223 LINE",
"546 0 LINE",
"589 0 LINE",
"437 700 LINE",
"390 700 LINE",
"-34 0 LINE"
);
},
{
closed = 1;
nodes = (
"407 652 LINE",
"489 262 LINE",
"172 262 LINE"
);
}
);
width = 670;
},
{
background = {
paths = (
{
closed = 1;
nodes = (
"50 0 LINE",
"163 195 LINE",
"489 195 LINE",
"527 0 LINE",
"612 0 LINE",
"469 700 LINE",
"373 700 LINE",
"-41 0 LINE"
);
},
{
closed = 1;
nodes = (
"407 617 LINE",
"475 268 LINE",
"206 268 LINE"
);
}
);
};
layerId = "AB33B01D-3E13-404E-935A-045AA6D07EB8";
paths = (
{
closed = 1;
nodes = (
"50 0 LINE",
"163 195 LINE",
"489 195 LINE",
"527 0 LINE",
"612 0 LINE",
"469 700 LINE",
"373 700 LINE",
"-41 0 LINE"
);
},
{
closed = 1;
nodes = (
"407 617 LINE",
"475 268 LINE",
"206 268 LINE"
);
}
);
width = 688;
},
{
background = {
paths = (
{
closed = 1;
nodes = (
"206 0 LINE",
"245 123 LINE",
"512 123 LINE",
"552 0 LINE",
"754 0 LINE",
"504 700 LINE",
"259 700 LINE",
"9 0 LINE"
);
},
{
closed = 1;
nodes = (
"379 539 LINE",
"463 273 LINE",
"294 273 LINE"
);
}
);
};
layerId = "9D32FE6F-9470-45EF-9689-909A6F5CE504";
paths = (
{
closed = 1;
nodes = (
"206 0 LINE",
"245 123 LINE",
"512 123 LINE",
"552 0 LINE",
"754 0 LINE",
"504 700 LINE",
"259 700 LINE",
"9 0 LINE"
);
},
{
closed = 1;
nodes = (
"379 539 LINE",
"463 273 LINE",
"294 273 LINE"
);
}
);
width = 763;
},
{
background = {
paths = (
{
closed = 1;
nodes = (
"155 0 LINE",
"218 123 LINE",
"479 123 LINE",
"494 0 LINE",
"684 0 LINE",
"574 700 LINE",
"332 700 LINE",
"-49 0 LINE"
);
},
{
closed = 1;
nodes = (
"428 539 LINE",
"461 272 LINE",
"294 272 LINE"
);
}
);
};
layerId = "69B5B248-E33C-46C9-9D9F-11585640C213";
paths = (
{
closed = 1;
nodes = (
"155 0 LINE",
"218 123 LINE",
"479 123 LINE",
"494 0 LINE",
"684 0 LINE",
"574 700 LINE",
"332 700 LINE",
"-49 0 LINE"
);
},
{
closed = 1;
nodes = (
"428 539 LINE",
"461 272 LINE",
"294 272 LINE"
);
}
);
width = 752;
}
);
leftKerningGroup = A;
note = A;
rightKerningGroup = A;
unicode = 0041;
},
{
color = 5;
glyphname = B;
lastChange = "2022-01-20 12:19:35 +0000";
layers = (
{
background = {
paths = (
{
closed = 1;
nodes = (
"378 0 LINE SMOOTH",
"528 0 OFFCURVE",
"618 71 OFFCURVE",
"618 196 CURVE SMOOTH",
"618 286 OFFCURVE",
"562 349 OFFCURVE",
"490 365 CURVE",
"552 386 OFFCURVE",
"593 444 OFFCURVE",
"593 514 CURVE SMOOTH",
"593 636 OFFCURVE",
"507 700 OFFCURVE",
"365 700 CURVE SMOOTH",
"88 700 LINE",
"88 0 LINE"
);
},
{
closed = 1;
nodes = (
"178 319 LINE",
"374 319 LINE SMOOTH",
"466 319 OFFCURVE",
"526 285 OFFCURVE",
"526 199 CURVE SMOOTH",
"526 117 OFFCURVE",
"466 80 OFFCURVE",
"373 80 CURVE SMOOTH",
"178 80 LINE"
);
},
{
closed = 1;
nodes = (
"178 620 LINE",
"362 620 LINE SMOOTH",
"446 620 OFFCURVE",
"501 586 OFFCURVE",
"501 509 CURVE SMOOTH",
"501 433 OFFCURVE",
"448 399 OFFCURVE",
"362 399 CURVE SMOOTH",
"178 399 LINE"
);
}
);
};
layerId = "30E869CF-9A31-4D47-9626-61B8364FC2DA";
paths = (
{
closed = 1;
nodes = (
"378 0 LINE SMOOTH",
"528 0 OFFCURVE",
"618 71 OFFCURVE",
"618 196 CURVE SMOOTH",
"618 286 OFFCURVE",
"562 349 OFFCURVE",
"490 365 CURVE",
"552 386 OFFCURVE",
"593 444 OFFCURVE",
"593 514 CURVE SMOOTH",
"593 636 OFFCURVE",
"507 700 OFFCURVE",
"365 700 CURVE SMOOTH",
"88 700 LINE",
"88 0 LINE"
);
},
{
closed = 1;
nodes = (
"178 319 LINE",
"374 319 LINE SMOOTH",
"466 319 OFFCURVE",
"526 285 OFFCURVE",
"526 199 CURVE SMOOTH",
"526 117 OFFCURVE",
"466 80 OFFCURVE",
"373 80 CURVE SMOOTH",
"178 80 LINE"
);
},
{
closed = 1;
nodes = (
"178 620 LINE",
"362 620 LINE SMOOTH",
"446 620 OFFCURVE",
"501 586 OFFCURVE",
"501 509 CURVE SMOOTH",
"501 433 OFFCURVE",
"448 399 OFFCURVE",
"362 399 CURVE SMOOTH",
"178 399 LINE"
);
}
);
width = 672;
},
{
background = {
paths = (
{
closed = 1;
nodes = (
"361 0 LINE SMOOTH",
"504 0 OFFCURVE",
"593 68 OFFCURVE",
"593 189 CURVE SMOOTH",
"593 282 OFFCURVE",
"533 351 OFFCURVE",
"446 366 CURVE",
"519 386 OFFCURVE",
"565 447 OFFCURVE",
"565 524 CURVE SMOOTH",
"565 642 OFFCURVE",
"479 700 OFFCURVE",
"350 700 CURVE SMOOTH",
"96 700 LINE",
"96 0 LINE"
);
},
{
closed = 1;
nodes = (
"141 342 LINE",
"359 342 LINE SMOOTH",
"469 342 OFFCURVE",
"548 289 OFFCURVE",
"548 190 CURVE SMOOTH",
"548 89 OFFCURVE",
"471 39 OFFCURVE",
"359 39 CURVE SMOOTH",
"141 39 LINE"
);
},
{
closed = 1;
nodes = (
"141 661 LINE",
"347 661 LINE SMOOTH",
"448 661 OFFCURVE",
"520 616 OFFCURVE",
"520 523 CURVE SMOOTH",
"520 431 OFFCURVE",
"450 382 OFFCURVE",
"347 382 CURVE SMOOTH",
"141 382 LINE"
);
}
);
};
layerId = "18A01495-E50D-4F2B-A1D8-5C332C731D93";
paths = (
{
closed = 1;
nodes = (
"361 0 LINE SMOOTH",
"504 0 OFFCURVE",
"593 68 OFFCURVE",
"593 189 CURVE SMOOTH",
"593 282 OFFCURVE",
"533 351 OFFCURVE",
"446 366 CURVE",
"519 386 OFFCURVE",
"565 447 OFFCURVE",
"565 524 CURVE SMOOTH",
"565 642 OFFCURVE",
"479 700 OFFCURVE",
"350 700 CURVE SMOOTH",
"96 700 LINE",
"96 0 LINE"
);
},
{
closed = 1;
nodes = (
"141 342 LINE",
"359 342 LINE SMOOTH",
"469 342 OFFCURVE",
"548 289 OFFCURVE",
"548 190 CURVE SMOOTH",
"548 89 OFFCURVE",
"471 39 OFFCURVE",
"359 39 CURVE SMOOTH",
"141 39 LINE"
);
},
{
closed = 1;
nodes = (
"141 661 LINE",
"347 661 LINE SMOOTH",
"448 661 OFFCURVE",
"520 616 OFFCURVE",
"520 523 CURVE SMOOTH",
"520 431 OFFCURVE",
"450 382 OFFCURVE",
"347 382 CURVE SMOOTH",
"141 382 LINE"
);
}
);
width = 653;
},
{
background = {
paths = (
{
closed = 1;
nodes = (
"298 0 LINE SMOOTH",
"453 0 OFFCURVE",
"560 78 OFFCURVE",
"560 214 CURVE SMOOTH",
"560 295 OFFCURVE",
"508 348 OFFCURVE",
"450 359 CURVE",
"543 383 OFFCURVE",
"599 457 OFFCURVE",
"599 547 CURVE SMOOTH",
"599 644 OFFCURVE",
"529 699 OFFCURVE",
"406 699 CURVE SMOOTH",
"173 699 LINE",
"37 0 LINE"
);
},
{
closed = 1;
nodes = (
"145 341 LINE",
"356 341 LINE SMOOTH",
"451 341 OFFCURVE",
"517 299 OFFCURVE",
"517 215 CURVE SMOOTH",
"517 104 OFFCURVE",
"427 39 OFFCURVE",
"304 39 CURVE SMOOTH",
"87 39 LINE"
);
},
{
closed = 1;
nodes = (
"207 661 LINE",
"407 661 LINE SMOOTH",
"498 661 OFFCURVE",
"556 623 OFFCURVE",
"556 544 CURVE SMOOTH",
"556 437 OFFCURVE",
"471 380 OFFCURVE",
"365 380 CURVE SMOOTH",
"153 380 LINE"
);
}
);
};
layerId = "047DE625-588D-43A1-AE3A-C97924B5E3D3";
paths = (
{
closed = 1;
nodes = (
"298 0 LINE SMOOTH",
"453 0 OFFCURVE",
"560 78 OFFCURVE",
"560 214 CURVE SMOOTH",
"560 295 OFFCURVE",
"508 348 OFFCURVE",
"450 359 CURVE",
"543 383 OFFCURVE",
"599 457 OFFCURVE",
"599 547 CURVE SMOOTH",
"599 644 OFFCURVE",
"529 699 OFFCURVE",
"406 699 CURVE SMOOTH",
"173 699 LINE",
"37 0 LINE"
);
},
{
closed = 1;
nodes = (
"145 341 LINE",
"356 341 LINE SMOOTH",
"451 341 OFFCURVE",
"517 299 OFFCURVE",
"517 215 CURVE SMOOTH",
"517 104 OFFCURVE",
"427 39 OFFCURVE",
"304 39 CURVE SMOOTH",
"87 39 LINE"
);
},
{
closed = 1;
nodes = (
"207 661 LINE",
"407 661 LINE SMOOTH",
"498 661 OFFCURVE",
"556 623 OFFCURVE",
"556 544 CURVE SMOOTH",
"556 437 OFFCURVE",
"471 380 OFFCURVE",
"365 380 CURVE SMOOTH",
"153 380 LINE"
);
}
);
width = 639;
},
{
background = {
paths = (
{
closed = 1;
nodes = (
"314 0 LINE SMOOTH",
"470 0 OFFCURVE",
"586 82 OFFCURVE",
"586 222 CURVE SMOOTH",
"586 295 OFFCURVE",
"545 344 OFFCURVE",
"487 357 CURVE",
"568 384 OFFCURVE",
"623 453 OFFCURVE",
"623 540 CURVE SMOOTH",
"623 640 OFFCURVE",
"549 700 OFFCURVE",
"425 700 CURVE SMOOTH",
"165 700 LINE",
"29 0 LINE"
);
},
{
closed = 1;
nodes = (
"176 323 LINE",
"367 323 LINE SMOOTH",
"448 323 OFFCURVE",
"500 292 OFFCURVE",
"500 220 CURVE SMOOTH",
"500 125 OFFCURVE",
"426 72 OFFCURVE",
"322 72 CURVE SMOOTH",
"127 72 LINE"
);
},
{
closed = 1;
nodes = (
"234 628 LINE",
"415 628 LINE SMOOTH",
"490 628 OFFCURVE",
"537 600 OFFCURVE",
"537 530 CURVE SMOOTH",
"537 442 OFFCURVE",
"466 394 OFFCURVE",
"374 394 CURVE SMOOTH",
"190 394 LINE"
);
}
);
};
layerId = "AB33B01D-3E13-404E-935A-045AA6D07EB8";
paths = (
{
closed = 1;
nodes = (
"314 0 LINE SMOOTH",
"470 0 OFFCURVE",
"586 82 OFFCURVE",
"586 222 CURVE SMOOTH",
"586 295 OFFCURVE",
"545 344 OFFCURVE",
"487 357 CURVE",
"568 384 OFFCURVE",
"623 453 OFFCURVE",
"623 540 CURVE SMOOTH",
"623 640 OFFCURVE",
"549 700 OFFCURVE",
"425 700 CURVE SMOOTH",
"165 700 LINE",
"29 0 LINE"
);
},
{
closed = 1;
nodes = (
"176 323 LINE",
"367 323 LINE SMOOTH",
"448 323 OFFCURVE",
"500 292 OFFCURVE",
"500 220 CURVE SMOOTH",
"500 125 OFFCURVE",
"426 72 OFFCURVE",
"322 72 CURVE SMOOTH",
"127 72 LINE"
);
},
{
closed = 1;
nodes = (
"234 628 LINE",
"415 628 LINE SMOOTH",
"490 628 OFFCURVE",
"537 600 OFFCURVE",
"537 530 CURVE SMOOTH",
"537 442 OFFCURVE",
"466 394 OFFCURVE",
"374 394 CURVE SMOOTH",
"190 394 LINE"
);
}
);
width = 659;
},
{
background = {
paths = (
{
closed = 1;
nodes = (
"401 0 LINE SMOOTH",
"560 0 OFFCURVE",
"665 66 OFFCURVE",
"665 199 CURVE SMOOTH",
"665 281 OFFCURVE",
"618 338 OFFCURVE",
"546 362 CURVE",
"604 386 OFFCURVE",
"647 438 OFFCURVE",
"647 518 CURVE SMOOTH",
"647 633 OFFCURVE",
"564 700 OFFCURVE",
"410 700 CURVE SMOOTH",
"65 700 LINE",
"65 0 LINE"
);
},
{
closed = 1;
nodes = (
"254 290 LINE",
"373 290 LINE SMOOTH",
"435 290 OFFCURVE",
"471 266 OFFCURVE",
"471 215 CURVE SMOOTH",
"471 164 OFFCURVE",
"435 141 OFFCURVE",
"372 141 CURVE SMOOTH",
"254 141 LINE"
);
},
{
closed = 1;
nodes = (
"254 560 LINE",
"363 560 LINE SMOOTH",
"422 560 OFFCURVE",
"454 537 OFFCURVE",
"454 490 CURVE SMOOTH",
"454 439 OFFCURVE",
"422 417 OFFCURVE",
"363 417 CURVE SMOOTH",
"254 417 LINE"
);
}
);
};
layerId = "9D32FE6F-9470-45EF-9689-909A6F5CE504";
paths = (
{
closed = 1;
nodes = (
"401 0 LINE SMOOTH",
"560 0 OFFCURVE",
"665 66 OFFCURVE",
"665 199 CURVE SMOOTH",
"665 281 OFFCURVE",
"618 338 OFFCURVE",
"546 362 CURVE",
"604 386 OFFCURVE",
"647 438 OFFCURVE",
"647 518 CURVE SMOOTH",
"647 633 OFFCURVE",
"564 700 OFFCURVE",
"410 700 CURVE SMOOTH",
"65 700 LINE",
"65 0 LINE"
);
},
{
closed = 1;
nodes = (
"254 290 LINE",
"373 290 LINE SMOOTH",
"435 290 OFFCURVE",
"471 266 OFFCURVE",
"471 215 CURVE SMOOTH",
"471 164 OFFCURVE",
"435 141 OFFCURVE",
"372 141 CURVE SMOOTH",
"254 141 LINE"
);
},
{
closed = 1;
nodes = (
"254 560 LINE",
"363 560 LINE SMOOTH",
"422 560 OFFCURVE",
"454 537 OFFCURVE",
"454 490 CURVE SMOOTH",
"454 439 OFFCURVE",
"422 417 OFFCURVE",
"363 417 CURVE SMOOTH",
"254 417 LINE"
);
}
);
width = 700;
},
{
background = {
paths = (
{
closed = 1;
nodes = (
"340 0 LINE SMOOTH",
"483 0 OFFCURVE",
"638 64 OFFCURVE",
"638 222 CURVE SMOOTH",
"638 288 OFFCURVE",
"605 333 OFFCURVE",
"548 353 CURVE",
"624 380 OFFCURVE",
"674 447 OFFCURVE",
"674 533 CURVE SMOOTH",
"674 633 OFFCURVE",
"595 697 OFFCURVE",
"462 697 CURVE SMOOTH",
"140 697 LINE",
"5 0 LINE"
);
},
{
closed = 1;
nodes = (
"249 290 LINE",
"369 290 LINE SMOOTH",
"416 290 OFFCURVE",
"448 274 OFFCURVE",
"448 228 CURVE SMOOTH",
"448 173 OFFCURVE",
"404 141 OFFCURVE",
"342 141 CURVE SMOOTH",
"220 141 LINE"
);
},
{
closed = 1;
nodes = (
"301 557 LINE",
"411 557 LINE SMOOTH",
"457 557 OFFCURVE",
"484 539 OFFCURVE",
"484 498 CURVE SMOOTH",
"484 448 OFFCURVE",
"444 417 OFFCURVE",
"387 417 CURVE SMOOTH",
"274 417 LINE"
);
}
);
};
layerId = "69B5B248-E33C-46C9-9D9F-11585640C213";
paths = (
{
closed = 1;
nodes = (
"340 0 LINE SMOOTH",
"483 0 OFFCURVE",
"638 64 OFFCURVE",
"638 222 CURVE SMOOTH",
"638 288 OFFCURVE",
"605 333 OFFCURVE",
"548 353 CURVE",
"624 380 OFFCURVE",
"674 447 OFFCURVE",
"674 533 CURVE SMOOTH",
"674 633 OFFCURVE",
"595 697 OFFCURVE",
"462 697 CURVE SMOOTH",
"140 697 LINE",
"5 0 LINE"
);
},
{
closed = 1;
nodes = (
"249 290 LINE",
"369 290 LINE SMOOTH",
"416 290 OFFCURVE",
"448 274 OFFCURVE",
"448 228 CURVE SMOOTH",
"448 173 OFFCURVE",
"404 141 OFFCURVE",
"342 141 CURVE SMOOTH",
"220 141 LINE"
);
},
{
closed = 1;
nodes = (
"301 557 LINE",
"411 557 LINE SMOOTH",
"457 557 OFFCURVE",
"484 539 OFFCURVE",
"484 498 CURVE SMOOTH",
"484 448 OFFCURVE",
"444 417 OFFCURVE",
"387 417 CURVE SMOOTH",
"274 417 LINE"
);
}
);
width = 692;
}
);
note = B;
unicode = 0042;
},
{
color = 5;
glyphname = C;
lastChange = "2022-01-20 12:19:35 +0000";
layers = (
{
background = {
paths = (
{
closed = 1;
nodes = (
"538 -10 OFFCURVE",
"657 84 OFFCURVE",
"682 231 CURVE",
"589 231 LINE",
"564 130 OFFCURVE",
"483 70 OFFCURVE",
"380 70 CURVE SMOOTH",
"238 70 OFFCURVE",
"138 187 OFFCURVE",
"138 351 CURVE SMOOTH",
"138 514 OFFCURVE",
"236 630 OFFCURVE",
"380 630 CURVE SMOOTH",
"482 630 OFFCURVE",
"566 571 OFFCURVE",
"589 470 CURVE",
"682 470 LINE",
"660 616 OFFCURVE",
"537 710 OFFCURVE",
"380 710 CURVE SMOOTH",
"187 710 OFFCURVE",
"48 561 OFFCURVE",
"48 351 CURVE SMOOTH",
"48 141 OFFCURVE",
"184 -10 OFFCURVE",
"380 -10 CURVE SMOOTH"
);
}
);
};
layerId = "30E869CF-9A31-4D47-9626-61B8364FC2DA";
paths = (
{
closed = 1;
nodes = (
"538 -10 OFFCURVE",
"657 84 OFFCURVE",
"682 231 CURVE",
"589 231 LINE",
"564 130 OFFCURVE",
"483 70 OFFCURVE",
"380 70 CURVE SMOOTH",
"238 70 OFFCURVE",
"138 187 OFFCURVE",
"138 351 CURVE SMOOTH",
"138 514 OFFCURVE",
"236 630 OFFCURVE",
"380 630 CURVE SMOOTH",
"482 630 OFFCURVE",
"566 571 OFFCURVE",
"589 470 CURVE",
"682 470 LINE",
"660 616 OFFCURVE",
"537 710 OFFCURVE",
"380 710 CURVE SMOOTH",
"187 710 OFFCURVE",
"48 561 OFFCURVE",
"48 351 CURVE SMOOTH",
"48 141 OFFCURVE",
"184 -10 OFFCURVE",
"380 -10 CURVE SMOOTH"
);
}
);
width = 727;
},
{
background = {
paths = (
{
closed = 1;
nodes = (
"522 -10 OFFCURVE",
"631 85 OFFCURVE",
"662 221 CURVE",
"617 221 LINE",
"586 101 OFFCURVE",
"488 30 OFFCURVE",
"374 30 CURVE SMOOTH",
"217 30 OFFCURVE",
"97 163 OFFCURVE",
"97 350 CURVE SMOOTH",
"97 538 OFFCURVE",
"216 670 OFFCURVE",
"374 670 CURVE SMOOTH",
"488 670 OFFCURVE",
"589 599 OFFCURVE",
"617 480 CURVE",
"662 480 LINE",
"636 614 OFFCURVE",
"523 710 OFFCURVE",
"374 710 CURVE SMOOTH",
"188 710 OFFCURVE",
"52 559 OFFCURVE",
"52 350 CURVE SMOOTH",
"52 143 OFFCURVE",
"186 -10 OFFCURVE",
"374 -10 CURVE SMOOTH"
);
}
);
};
layerId = "18A01495-E50D-4F2B-A1D8-5C332C731D93";
paths = (
{
closed = 1;
nodes = (
"522 -10 OFFCURVE",
"631 85 OFFCURVE",
"662 221 CURVE",
"617 221 LINE",
"586 101 OFFCURVE",
"488 30 OFFCURVE",
"374 30 CURVE SMOOTH",
"217 30 OFFCURVE",
"97 163 OFFCURVE",
"97 350 CURVE SMOOTH",
"97 538 OFFCURVE",
"216 670 OFFCURVE",
"374 670 CURVE SMOOTH",
"488 670 OFFCURVE",
"589 599 OFFCURVE",
"617 480 CURVE",
"662 480 LINE",
"636 614 OFFCURVE",
"523 710 OFFCURVE",
"374 710 CURVE SMOOTH",
"188 710 OFFCURVE",
"52 559 OFFCURVE",
"52 350 CURVE SMOOTH",
"52 143 OFFCURVE",
"186 -10 OFFCURVE",
"374 -10 CURVE SMOOTH"
);
}
);
width = 711;
},
{
background = {
paths = (
{
closed = 1;
nodes = (
"476 -10 OFFCURVE",
"593 84 OFFCURVE",
"634 222 CURVE",
"589 222 LINE",
"551 103 OFFCURVE",
"448 30 OFFCURVE",
"333 30 CURVE SMOOTH",
"194 30 OFFCURVE",
"102 142 OFFCURVE",
"102 291 CURVE SMOOTH",
"102 489 OFFCURVE",
"238 670 OFFCURVE",
"424 670 CURVE SMOOTH",
"541 670 OFFCURVE",
"630 598 OFFCURVE",
"638 480 CURVE",
"682 480 LINE",
"675 620 OFFCURVE",
"567 710 OFFCURVE",
"429 710 CURVE SMOOTH",
"215 710 OFFCURVE",
"58 517 OFFCURVE",
"58 289 CURVE SMOOTH",
"58 118 OFFCURVE",
"169 -10 OFFCURVE",
"330 -10 CURVE SMOOTH"
);
}
);
};
layerId = "047DE625-588D-43A1-AE3A-C97924B5E3D3";
paths = (
{
closed = 1;
nodes = (
"476 -10 OFFCURVE",
"593 84 OFFCURVE",
"634 222 CURVE",
"589 222 LINE",
"551 103 OFFCURVE",
"448 30 OFFCURVE",
"333 30 CURVE SMOOTH",
"194 30 OFFCURVE",
"102 142 OFFCURVE",
"102 291 CURVE SMOOTH",
"102 489 OFFCURVE",
"238 670 OFFCURVE",
"424 670 CURVE SMOOTH",
"541 670 OFFCURVE",
"630 598 OFFCURVE",
"638 480 CURVE",
"682 480 LINE",
"675 620 OFFCURVE",
"567 710 OFFCURVE",
"429 710 CURVE SMOOTH",
"215 710 OFFCURVE",
"58 517 OFFCURVE",
"58 289 CURVE SMOOTH",
"58 118 OFFCURVE",
"169 -10 OFFCURVE",
"330 -10 CURVE SMOOTH"
);
}
);
width = 699;
},
{
background = {
paths = (
{
closed = 1;
nodes = (
"488 -10 OFFCURVE",
"618 84 OFFCURVE",
"655 230 CURVE",
"570 230 LINE",
"535 127 OFFCURVE",
"447 66 OFFCURVE",
"341 66 CURVE SMOOTH",
"222 66 OFFCURVE",
"141 160 OFFCURVE",
"141 294 CURVE SMOOTH",
"141 473 OFFCURVE",
"261 635 OFFCURVE",
"426 635 CURVE SMOOTH",
"527 635 OFFCURVE",
"605 574 OFFCURVE",
"615 471 CURVE",
"701 471 LINE",
"697 613 OFFCURVE",
"584 710 OFFCURVE",
"435 710 CURVE SMOOTH",
"208 710 OFFCURVE",
"52 514 OFFCURVE",
"52 284 CURVE SMOOTH",
"52 115 OFFCURVE",
"170 -10 OFFCURVE",
"336 -10 CURVE SMOOTH"
);
}
);
};
layerId = "AB33B01D-3E13-404E-935A-045AA6D07EB8";
paths = (
{
closed = 1;
nodes = (
"488 -10 OFFCURVE",
"618 84 OFFCURVE",
"655 230 CURVE",
"570 230 LINE",
"535 127 OFFCURVE",
"447 66 OFFCURVE",
"341 66 CURVE SMOOTH",
"222 66 OFFCURVE",
"141 160 OFFCURVE",
"141 294 CURVE SMOOTH",
"141 473 OFFCURVE",
"261 635 OFFCURVE",
"426 635 CURVE SMOOTH",
"527 635 OFFCURVE",
"605 574 OFFCURVE",
"615 471 CURVE",
"701 471 LINE",
"697 613 OFFCURVE",
"584 710 OFFCURVE",
"435 710 CURVE SMOOTH",
"208 710 OFFCURVE",
"52 514 OFFCURVE",
"52 284 CURVE SMOOTH",
"52 115 OFFCURVE",
"170 -10 OFFCURVE",
"336 -10 CURVE SMOOTH"
);
}
);
width = 714;
},
{
background = {
paths = (
{
closed = 1;
nodes = (
"574 -10 OFFCURVE",
"716 94 OFFCURVE",
"734 258 CURVE",
"536 258 LINE",
"521 195 OFFCURVE",
"469 153 OFFCURVE",
"392 153 CURVE SMOOTH",
"294 153 OFFCURVE",
"230 238 OFFCURVE",
"230 353 CURVE SMOOTH",
"230 464 OFFCURVE",
"292 549 OFFCURVE",
"392 549 CURVE SMOOTH",
"469 549 OFFCURVE",
"523 506 OFFCURVE",
"536 444 CURVE",
"733 444 LINE",
"714 627 OFFCURVE",
"552 710 OFFCURVE",
"392 710 CURVE SMOOTH",
"163 710 OFFCURVE",
"30 550 OFFCURVE",
"30 353 CURVE SMOOTH",
"30 125 OFFCURVE",
"188 -10 OFFCURVE",
"391 -10 CURVE SMOOTH"
);
}
);
};
layerId = "9D32FE6F-9470-45EF-9689-909A6F5CE504";
paths = (
{
closed = 1;
nodes = (
"574 -10 OFFCURVE",
"716 94 OFFCURVE",
"734 258 CURVE",
"536 258 LINE",
"521 195 OFFCURVE",
"469 153 OFFCURVE",
"392 153 CURVE SMOOTH",
"294 153 OFFCURVE",
"230 238 OFFCURVE",
"230 353 CURVE SMOOTH",
"230 464 OFFCURVE",
"292 549 OFFCURVE",
"392 549 CURVE SMOOTH",
"469 549 OFFCURVE",
"523 506 OFFCURVE",
"536 444 CURVE",
"733 444 LINE",
"714 627 OFFCURVE",
"552 710 OFFCURVE",
"392 710 CURVE SMOOTH",
"163 710 OFFCURVE",
"30 550 OFFCURVE",
"30 353 CURVE SMOOTH",
"30 125 OFFCURVE",
"188 -10 OFFCURVE",
"391 -10 CURVE SMOOTH"
);
}
);
width = 760;
},
{
background = {
paths = (
{
closed = 1;
nodes = (
"514 -10 OFFCURVE",
"673 81 OFFCURVE",
"713 258 CURVE",
"518 258 LINE",
"495 195 OFFCURVE",
"442 152 OFFCURVE",
"367 152 CURVE SMOOTH",
"285 152 OFFCURVE",
"233 215 OFFCURVE",
"233 308 CURVE SMOOTH",
"233 434 OFFCURVE",
"311 550 OFFCURVE",
"425 550 CURVE SMOOTH",
"493 550 OFFCURVE",
"549 513 OFFCURVE",
"554 444 CURVE",
"749 444 LINE",
"749 590 OFFCURVE",
"627 710 OFFCURVE",
"438 710 CURVE SMOOTH",
"218 710 OFFCURVE",
"35 539 OFFCURVE",
"35 299 CURVE SMOOTH",
"35 127 OFFCURVE",
"157 -10 OFFCURVE",
"352 -10 CURVE SMOOTH"
);
}
);
};
layerId = "69B5B248-E33C-46C9-9D9F-11585640C213";
paths = (
{
closed = 1;
nodes = (
"514 -10 OFFCURVE",
"673 81 OFFCURVE",
"713 258 CURVE",
"518 258 LINE",
"495 195 OFFCURVE",
"442 152 OFFCURVE",
"367 152 CURVE SMOOTH",
"285 152 OFFCURVE",
"233 215 OFFCURVE",
"233 308 CURVE SMOOTH",
"233 434 OFFCURVE",
"311 550 OFFCURVE",
"425 550 CURVE SMOOTH",
"493 550 OFFCURVE",
"549 513 OFFCURVE",
"554 444 CURVE",
"749 444 LINE",
"749 590 OFFCURVE",
"627 710 OFFCURVE",
"438 710 CURVE SMOOTH",
"218 710 OFFCURVE",
"35 539 OFFCURVE",
"35 299 CURVE SMOOTH",
"35 127 OFFCURVE",
"157 -10 OFFCURVE",
"352 -10 CURVE SMOOTH"
);
}
);
width = 750;
}
);
leftKerningGroup = C;
note = C;
rightKerningGroup = C;
unicode = 0043;
},
{
color = 5;
glyphname = D;
lastChange = "2022-01-20 12:19:35 +0000";
layers = (
{
background = {
paths = (
{
closed = 1;
nodes = (
"320 0 LINE SMOOTH",
"539 0 OFFCURVE",
"673 136 OFFCURVE",
"673 351 CURVE SMOOTH",
"673 570 OFFCURVE",
"542 700 OFFCURVE",
"320 700 CURVE SMOOTH",
"87 700 LINE",
"87 0 LINE"
);
},
{
closed = 1;
nodes = (
"177 620 LINE",
"309 620 LINE SMOOTH",
"479 620 OFFCURVE",
"575 519 OFFCURVE",
"575 351 CURVE SMOOTH",
"575 186 OFFCURVE",
"480 80 OFFCURVE",
"309 80 CURVE SMOOTH",
"177 80 LINE"
);
}
);
};
layerId = "30E869CF-9A31-4D47-9626-61B8364FC2DA";
paths = (
{
closed = 1;
nodes = (
"320 0 LINE SMOOTH",
"539 0 OFFCURVE",
"673 136 OFFCURVE",
"673 351 CURVE SMOOTH",
"673 570 OFFCURVE",
"542 700 OFFCURVE",
"320 700 CURVE SMOOTH",
"87 700 LINE",
"87 0 LINE"
);
},
{
closed = 1;
nodes = (
"177 620 LINE",
"309 620 LINE SMOOTH",
"479 620 OFFCURVE",
"575 519 OFFCURVE",
"575 351 CURVE SMOOTH",
"575 186 OFFCURVE",
"480 80 OFFCURVE",
"309 80 CURVE SMOOTH",
"177 80 LINE"
);
}
);
width = 721;
},
{
background = {
paths = (
{
closed = 1;
nodes = (
"307 0 LINE SMOOTH",
"499 0 OFFCURVE",
"654 121 OFFCURVE",
"654 352 CURVE SMOOTH",
"654 556 OFFCURVE",
"532 700 OFFCURVE",
"307 700 CURVE SMOOTH",
"96 700 LINE",
"96 0 LINE"
);
},
{
closed = 1;
nodes = (
"141 660 LINE",
"303 660 LINE SMOOTH",
"496 660 OFFCURVE",
"609 538 OFFCURVE",
"609 352 CURVE SMOOTH",
"609 169 OFFCURVE",
"498 40 OFFCURVE",
"303 40 CURVE SMOOTH",
"141 40 LINE"
);
}
);
};
layerId = "18A01495-E50D-4F2B-A1D8-5C332C731D93";
paths = (
{
closed = 1;
nodes = (
"307 0 LINE SMOOTH",
"499 0 OFFCURVE",
"654 121 OFFCURVE",
"654 352 CURVE SMOOTH",
"654 556 OFFCURVE",
"532 700 OFFCURVE",
"307 700 CURVE SMOOTH",
"96 700 LINE",
"96 0 LINE"
);
},
{
closed = 1;
nodes = (
"141 660 LINE",
"303 660 LINE SMOOTH",
"496 660 OFFCURVE",
"609 538 OFFCURVE",
"609 352 CURVE SMOOTH",
"609 169 OFFCURVE",
"498 40 OFFCURVE",
"303 40 CURVE SMOOTH",
"141 40 LINE"
);
}
);
width = 706;
},
{
background = {
paths = (
{
closed = 1;
nodes = (
"252 0 LINE SMOOTH",
"516 0 OFFCURVE",
"659 198 OFFCURVE",
"659 422 CURVE SMOOTH",
"659 588 OFFCURVE",
"547 700 OFFCURVE",
"372 700 CURVE SMOOTH",
"173 700 LINE",
"37 0 LINE"
);
},
{
closed = 1;
nodes = (
"207 661 LINE",
"361 661 LINE SMOOTH",
"520 661 OFFCURVE",
"615 565 OFFCURVE",
"615 420 CURVE SMOOTH",
"615 219 OFFCURVE",
"487 39 OFFCURVE",
"256 39 CURVE SMOOTH",
"88 39 LINE"
);
}
);
};
layerId = "047DE625-588D-43A1-AE3A-C97924B5E3D3";
paths = (
{
closed = 1;
nodes = (
"252 0 LINE SMOOTH",
"516 0 OFFCURVE",
"659 198 OFFCURVE",
"659 422 CURVE SMOOTH",
"659 588 OFFCURVE",
"547 700 OFFCURVE",
"372 700 CURVE SMOOTH",
"173 700 LINE",
"37 0 LINE"
);
},
{
closed = 1;
nodes = (
"207 661 LINE",
"361 661 LINE SMOOTH",
"520 661 OFFCURVE",
"615 565 OFFCURVE",
"615 420 CURVE SMOOTH",
"615 219 OFFCURVE",
"487 39 OFFCURVE",
"256 39 CURVE SMOOTH",
"88 39 LINE"
);
}
);
width = 695;
},
{
background = {
paths = (
{
closed = 1;
nodes = (
"265 0 LINE SMOOTH",
"534 0 OFFCURVE",
"678 195 OFFCURVE",
"678 422 CURVE SMOOTH",
"678 605 OFFCURVE",
"549 700 OFFCURVE",
"383 700 CURVE SMOOTH",
"165 700 LINE",
"29 0 LINE"
);
},
{
closed = 1;
nodes = (
"235 627 LINE",
"364 627 LINE SMOOTH",
"505 627 OFFCURVE",
"590 552 OFFCURVE",
"590 414 CURVE SMOOTH",
"590 231 OFFCURVE",
"478 74 OFFCURVE",
"270 74 CURVE SMOOTH",
"128 74 LINE"
);
}
);
};
layerId = "AB33B01D-3E13-404E-935A-045AA6D07EB8";
paths = (
{
closed = 1;
nodes = (
"265 0 LINE SMOOTH",
"534 0 OFFCURVE",
"678 195 OFFCURVE",
"678 422 CURVE SMOOTH",
"678 605 OFFCURVE",
"549 700 OFFCURVE",
"383 700 CURVE SMOOTH",
"165 700 LINE",
"29 0 LINE"
);
},
{
closed = 1;
nodes = (
"235 627 LINE",
"364 627 LINE SMOOTH",
"505 627 OFFCURVE",
"590 552 OFFCURVE",
"590 414 CURVE SMOOTH",
"590 231 OFFCURVE",
"478 74 OFFCURVE",
"270 74 CURVE SMOOTH",
"128 74 LINE"
);
}
);
width = 710;
},
{
background = {
paths = (
{
closed = 1;
nodes = (
"352 0 LINE SMOOTH",
"609 0 OFFCURVE",
"726 154 OFFCURVE",
"726 350 CURVE SMOOTH",
"726 577 OFFCURVE",
"585 700 OFFCURVE",
"352 700 CURVE SMOOTH",
"65 700 LINE",
"65 0 LINE"
);
},
{
closed = 1;
nodes = (
"257 541 LINE",
"341 541 LINE SMOOTH",
"454 541 OFFCURVE",
"527 482 OFFCURVE",
"527 350 CURVE SMOOTH",
"527 221 OFFCURVE",
"454 159 OFFCURVE",
"341 159 CURVE SMOOTH",
"257 159 LINE"
);
}
);
};
layerId = "9D32FE6F-9470-45EF-9689-909A6F5CE504";
paths = (
{
closed = 1;
nodes = (
"352 0 LINE SMOOTH",
"609 0 OFFCURVE",
"726 154 OFFCURVE",
"726 350 CURVE SMOOTH",
"726 577 OFFCURVE",
"585 700 OFFCURVE",
"352 700 CURVE SMOOTH",
"65 700 LINE",
"65 0 LINE"
);
},
{
closed = 1;
nodes = (
"257 541 LINE",
"341 541 LINE SMOOTH",
"454 541 OFFCURVE",
"527 482 OFFCURVE",
"527 350 CURVE SMOOTH",
"527 221 OFFCURVE",
"454 159 OFFCURVE",
"341 159 CURVE SMOOTH",
"257 159 LINE"
);
}
);
width = 756;
},
{
background = {
paths = (
{
closed = 1;
nodes = (
"298 0 LINE SMOOTH",
"542 0 OFFCURVE",
"730 151 OFFCURVE",
"730 411 CURVE SMOOTH",
"730 576 OFFCURVE",
"618 700 OFFCURVE",
"414 700 CURVE SMOOTH",
"140 700 LINE",
"5 0 LINE"
);
},
{
closed = 1;
nodes = (
"300 542 LINE",
"377 542 LINE SMOOTH",
"472 542 OFFCURVE",
"533 498 OFFCURVE",
"533 395 CURVE SMOOTH",
"533 255 OFFCURVE",
"441 158 OFFCURVE",
"311 158 CURVE SMOOTH",
"227 158 LINE"
);
}
);
};
layerId = "69B5B248-E33C-46C9-9D9F-11585640C213";
paths = (
{
closed = 1;
nodes = (
"298 0 LINE SMOOTH",
"542 0 OFFCURVE",
"730 151 OFFCURVE",
"730 411 CURVE SMOOTH",
"730 576 OFFCURVE",
"618 700 OFFCURVE",
"414 700 CURVE SMOOTH",
"140 700 LINE",
"5 0 LINE"
);
},
{
closed = 1;
nodes = (
"300 542 LINE",
"377 542 LINE SMOOTH",
"472 542 OFFCURVE",
"533 498 OFFCURVE",
"533 395 CURVE SMOOTH",
"533 255 OFFCURVE",
"441 158 OFFCURVE",
"311 158 CURVE SMOOTH",
"227 158 LINE"
);
}
);
width = 747;
}
);
note = D;
rightKerningGroup = D;
unicode = 0044;
},
{
color = 5;
glyphname = E;
lastChange = "2022-01-20 12:19:35 +0000";
layers = (
{
background = {
paths = (
{
closed = 1;
nodes = (
"579 0 LINE",
"579 80 LINE",
"178 80 LINE",
"178 321 LINE",
"542 321 LINE",
"542 401 LINE",
"178 401 LINE",
"178 621 LINE",
"573 621 LINE",
"573 700 LINE",
"88 700 LINE",
"88 0 LINE"
);
}
);
};
layerId = "30E869CF-9A31-4D47-9626-61B8364FC2DA";
paths = (
{
closed = 1;
nodes = (
"579 0 LINE",
"579 80 LINE",
"178 80 LINE",
"178 321 LINE",
"542 321 LINE",
"542 401 LINE",
"178 401 LINE",
"178 621 LINE",
"573 621 LINE",
"573 700 LINE",
"88 700 LINE",
"88 0 LINE"
);
}
);
width = 632;
},
{
background = {
paths = (
{
closed = 1;
nodes = (
"564 0 LINE",
"564 40 LINE",
"141 40 LINE",
"141 339 LINE",
"527 339 LINE",
"527 379 LINE",
"141 379 LINE",
"141 660 LINE",
"558 660 LINE",
"558 700 LINE",
"96 700 LINE",
"96 0 LINE"
);
}
);
};
layerId = "18A01495-E50D-4F2B-A1D8-5C332C731D93";
paths = (
{
closed = 1;
nodes = (
"564 0 LINE",
"564 40 LINE",
"141 40 LINE",
"141 339 LINE",
"527 339 LINE",
"527 379 LINE",
"141 379 LINE",
"141 660 LINE",
"558 660 LINE",
"558 700 LINE",
"96 700 LINE",
"96 0 LINE"
);
}
);
width = 618;
},
{
background = {
paths = (
{
closed = 1;
nodes = (
"496 0 LINE",
"503 39 LINE",
"87 39 LINE",
"146 339 LINE",
"525 339 LINE",
"533 378 LINE",
"153 378 LINE",
"208 661 LINE",
"620 661 LINE",
"627 700 LINE",
"174 700 LINE",
"37 0 LINE"
);
}
);
};
layerId = "047DE625-588D-43A1-AE3A-C97924B5E3D3";
paths = (
{
closed = 1;
nodes = (
"496 0 LINE",
"503 39 LINE",
"87 39 LINE",
"146 339 LINE",
"525 339 LINE",
"533 378 LINE",
"153 378 LINE",
"208 661 LINE",
"620 661 LINE",
"627 700 LINE",
"174 700 LINE",
"37 0 LINE"
);
}
);
width = 608;
},
{
background = {
paths = (
{
closed = 1;
nodes = (
"509 0 LINE",
"523 74 LINE",
"128 74 LINE",
"176 322 LINE",
"535 322 LINE",
"549 396 LINE",
"190 396 LINE",
"235 626 LINE",
"625 626 LINE",
"640 699 LINE",
"166 699 LINE",
"29 0 LINE"
);
}
);
};
layerId = "AB33B01D-3E13-404E-935A-045AA6D07EB8";
paths = (
{
closed = 1;
nodes = (
"509 0 LINE",
"523 74 LINE",
"128 74 LINE",
"176 322 LINE",
"535 322 LINE",
"549 396 LINE",
"190 396 LINE",
"235 626 LINE",
"625 626 LINE",
"640 699 LINE",
"166 699 LINE",
"29 0 LINE"
);
}
);
width = 621;
},
{
background = {
paths = (
{
closed = 1;
nodes = (
"605 0 LINE",
"605 155 LINE",
"254 155 LINE",
"254 280 LINE",
"566 280 LINE",
"566 429 LINE",
"254 429 LINE",
"254 545 LINE",
"597 545 LINE",
"597 700 LINE",
"65 700 LINE",
"65 0 LINE"
);
}
);
};
layerId = "9D32FE6F-9470-45EF-9689-909A6F5CE504";
paths = (
{
closed = 1;
nodes = (
"605 0 LINE",
"605 155 LINE",
"254 155 LINE",
"254 280 LINE",
"566 280 LINE",
"566 429 LINE",
"254 429 LINE",
"254 545 LINE",
"597 545 LINE",
"597 700 LINE",
"65 700 LINE",
"65 0 LINE"
);
}
);
width = 650;
},
{
background = {
paths = (
{
closed = 1;
nodes = (
"536 0 LINE",
"566 154 LINE",
"223 154 LINE",
"247 281 LINE",
"552 281 LINE",
"581 428 LINE",
"277 428 LINE",
"300 546 LINE",
"635 546 LINE",
"665 700 LINE",
"141 700 LINE",
"5 0 LINE"
);
}
);
};
layerId = "69B5B248-E33C-46C9-9D9F-11585640C213";
paths = (
{
closed = 1;
nodes = (
"536 0 LINE",
"566 154 LINE",
"223 154 LINE",
"247 281 LINE",
"552 281 LINE",
"581 428 LINE",
"277 428 LINE",
"300 546 LINE",
"635 546 LINE",
"665 700 LINE",
"141 700 LINE",
"5 0 LINE"
);
}
);
width = 641;
}
);
note = E;
rightKerningGroup = E;
unicode = 0045;
},
{
color = 5;
glyphname = F;
lastChange = "2022-01-20 12:19:35 +0000";
layers = (
{
background = {
paths = (
{
closed = 1;
nodes = (
"178 0 LINE",
"178 315 LINE",
"506 315 LINE",
"506 394 LINE",
"178 394 LINE",
"178 621 LINE",
"545 621 LINE",
"545 700 LINE",
"88 700 LINE",
"88 0 LINE"
);
}
);
};
layerId = "30E869CF-9A31-4D47-9626-61B8364FC2DA";
paths = (
{
closed = 1;
nodes = (
"178 0 LINE",
"178 315 LINE",
"506 315 LINE",
"506 394 LINE",
"178 394 LINE",
"178 621 LINE",
"545 621 LINE",
"545 700 LINE",
"88 700 LINE",
"88 0 LINE"
);
}
);
width = 580;
},
{
background = {
paths = (
{
closed = 1;
nodes = (
"141 0 LINE",
"141 340 LINE",
"487 340 LINE",
"487 380 LINE",
"141 380 LINE",
"141 660 LINE",
"527 660 LINE",
"527 700 LINE",
"96 700 LINE",
"96 0 LINE"
);
}
);
};
layerId = "18A01495-E50D-4F2B-A1D8-5C332C731D93";
paths = (
{
closed = 1;
nodes = (
"141 0 LINE",
"141 340 LINE",
"487 340 LINE",
"487 380 LINE",
"141 380 LINE",
"141 660 LINE",
"527 660 LINE",
"527 700 LINE",
"96 700 LINE",
"96 0 LINE"
);
}
);
width = 560;
},
{
background = {
paths = (
{
closed = 1;
nodes = (
"80 0 LINE",
"146 340 LINE",
"487 340 LINE",
"495 379 LINE",
"153 379 LINE",
"208 661 LINE",
"589 661 LINE",
"597 700 LINE",
"174 700 LINE",
"37 0 LINE"
);
}
);
};
layerId = "047DE625-588D-43A1-AE3A-C97924B5E3D3";
paths = (
{
closed = 1;
nodes = (
"80 0 LINE",
"146 340 LINE",
"487 340 LINE",
"495 379 LINE",
"153 379 LINE",
"208 661 LINE",
"589 661 LINE",
"597 700 LINE",
"174 700 LINE",
"37 0 LINE"
);
}
);
width = 553;
},
{
background = {
paths = (
{
closed = 1;
nodes = (
"114 0 LINE",
"176 317 LINE",
"499 317 LINE",
"513 391 LINE",
"190 391 LINE",
"236 627 LINE",
"597 627 LINE",
"612 700 LINE",
"166 700 LINE",
"29 0 LINE"
);
}
);
};
layerId = "AB33B01D-3E13-404E-935A-045AA6D07EB8";
paths = (
{
closed = 1;
nodes = (
"114 0 LINE",
"176 317 LINE",
"499 317 LINE",
"513 391 LINE",
"190 391 LINE",
"236 627 LINE",
"597 627 LINE",
"612 700 LINE",
"166 700 LINE",
"29 0 LINE"
);
}
);
width = 569;
},
{
background = {
paths = (
{
closed = 1;
nodes = (
"256 0 LINE",
"256 250 LINE",
"546 250 LINE",
"546 405 LINE",
"256 405 LINE",
"256 539 LINE",
"580 539 LINE",
"580 700 LINE",
"65 700 LINE",
"65 0 LINE"
);
}
);
};
layerId = "9D32FE6F-9470-45EF-9689-909A6F5CE504";
paths = (
{
closed = 1;
nodes = (
"256 0 LINE",
"256 250 LINE",
"546 250 LINE",
"546 405 LINE",
"256 405 LINE",
"256 539 LINE",
"580 539 LINE",
"580 700 LINE",
"65 700 LINE",
"65 0 LINE"
);
}
);
width = 609;
},
{
background = {
paths = (
{
closed = 1;
nodes = (
"195 0 LINE",
"243 251 LINE",
"526 251 LINE",
"557 404 LINE",
"273 404 LINE",
"300 540 LINE",
"617 540 LINE",
"649 700 LINE",
"141 700 LINE",
"5 0 LINE"
);
}
);
};
layerId = "69B5B248-E33C-46C9-9D9F-11585640C213";
paths = (
{
closed = 1;
nodes = (
"195 0 LINE",
"243 251 LINE",
"526 251 LINE",
"557 404 LINE",
"273 404 LINE",
"300 540 LINE",
"617 540 LINE",
"649 700 LINE",
"141 700 LINE",
"5 0 LINE"
);
}
);
width = 602;
}
);
note = F;
unicode = 0046;
},
{
color = 5;
glyphname = G;
lastChange = "2022-01-20 12:19:35 +0000";
layers = (
{
background = {
paths = (
{
closed = 1;
nodes = (
"479 -10 OFFCURVE",
"564 37 OFFCURVE",
"611 112 CURVE",
"611 0 LINE",
"693 0 LINE",
"693 359 LINE",
"393 359 LINE",
"393 279 LINE",
"609 279 LINE",
"609 276 LINE SMOOTH",
"609 144 OFFCURVE",
"495 70 OFFCURVE",
"382 70 CURVE SMOOTH",
"240 70 OFFCURVE",
"143 186 OFFCURVE",
"143 351 CURVE SMOOTH",
"143 514 OFFCURVE",
"241 630 OFFCURVE",
"387 630 CURVE SMOOTH",
"485 630 OFFCURVE",
"573 575 OFFCURVE",
"596 478 CURVE",
"689 478 LINE",
"665 626 OFFCURVE",
"536 710 OFFCURVE",
"387 710 CURVE SMOOTH",
"188 710 OFFCURVE",
"48 563 OFFCURVE",
"48 351 CURVE SMOOTH",
"48 147 OFFCURVE",
"177 -10 OFFCURVE",
"374 -10 CURVE SMOOTH"
);
}
);
};
layerId = "30E869CF-9A31-4D47-9626-61B8364FC2DA";
paths = (
{
closed = 1;
nodes = (
"479 -10 OFFCURVE",
"564 37 OFFCURVE",
"611 112 CURVE",
"611 0 LINE",
"693 0 LINE",
"693 359 LINE",
"393 359 LINE",
"393 279 LINE",
"609 279 LINE",
"609 276 LINE SMOOTH",
"609 144 OFFCURVE",
"495 70 OFFCURVE",
"382 70 CURVE SMOOTH",
"240 70 OFFCURVE",
"143 186 OFFCURVE",
"143 351 CURVE SMOOTH",
"143 514 OFFCURVE",
"241 630 OFFCURVE",
"387 630 CURVE SMOOTH",
"485 630 OFFCURVE",
"573 575 OFFCURVE",
"596 478 CURVE",
"689 478 LINE",
"665 626 OFFCURVE",
"536 710 OFFCURVE",
"387 710 CURVE SMOOTH",
"188 710 OFFCURVE",
"48 563 OFFCURVE",
"48 351 CURVE SMOOTH",
"48 147 OFFCURVE",
"177 -10 OFFCURVE",
"374 -10 CURVE SMOOTH"
);
}
);
width = 768;
},
{
background = {
paths = (
{
closed = 1;
nodes = (
"495 -10 OFFCURVE",
"589 55 OFFCURVE",
"630 153 CURVE",
"630 0 LINE",
"670 0 LINE",
"670 339 LINE",
"380 339 LINE",
"380 299 LINE",
"630 299 LINE",
"630 294 LINE SMOOTH",
"630 126 OFFCURVE",
"519 30 OFFCURVE",
"376 30 CURVE SMOOTH",
"225 30 OFFCURVE",
"97 150 OFFCURVE",
"97 350 CURVE SMOOTH",
"97 526 OFFCURVE",
"203 670 OFFCURVE",
"377 670 CURVE SMOOTH",
"489 670 OFFCURVE",
"589 608 OFFCURVE",
"619 490 CURVE",
"664 490 LINE",
"635 627 OFFCURVE",
"516 710 OFFCURVE",
"377 710 CURVE SMOOTH",
"175 710 OFFCURVE",
"52 546 OFFCURVE",
"52 350 CURVE SMOOTH",
"52 130 OFFCURVE",
"196 -10 OFFCURVE",
"375 -10 CURVE SMOOTH"
);
}
);
};
layerId = "18A01495-E50D-4F2B-A1D8-5C332C731D93";
paths = (
{
closed = 1;
nodes = (
"495 -10 OFFCURVE",
"589 55 OFFCURVE",
"630 153 CURVE",
"630 0 LINE",
"670 0 LINE",
"670 339 LINE",
"380 339 LINE",
"380 299 LINE",
"630 299 LINE",
"630 294 LINE SMOOTH",
"630 126 OFFCURVE",
"519 30 OFFCURVE",
"376 30 CURVE SMOOTH",
"225 30 OFFCURVE",
"97 150 OFFCURVE",
"97 350 CURVE SMOOTH",
"97 526 OFFCURVE",
"203 670 OFFCURVE",
"377 670 CURVE SMOOTH",
"489 670 OFFCURVE",
"589 608 OFFCURVE",
"619 490 CURVE",
"664 490 LINE",
"635 627 OFFCURVE",
"516 710 OFFCURVE",
"377 710 CURVE SMOOTH",
"175 710 OFFCURVE",
"52 546 OFFCURVE",
"52 350 CURVE SMOOTH",
"52 130 OFFCURVE",
"196 -10 OFFCURVE",
"375 -10 CURVE SMOOTH"
);
}
);
width = 752;
},
{
background = {
paths = (
{
closed = 1;
nodes = (
"449 -11 OFFCURVE",
"535 43 OFFCURVE",
"596 143 CURVE",
"567 0 LINE",
"607 0 LINE",
"673 338 LINE",
"385 338 LINE",
"377 299 LINE",
"626 299 LINE",
"624 289 LINE SMOOTH",
"587 126 OFFCURVE",
"473 29 OFFCURVE",
"336 29 CURVE SMOOTH",
"187 29 OFFCURVE",
"102 149 OFFCURVE",
"102 290 CURVE SMOOTH",
"102 502 OFFCURVE",
"252 670 OFFCURVE",
"431 670 CURVE SMOOTH",
"548 670 OFFCURVE",
"638 602 OFFCURVE",
"645 490 CURVE",
"689 490 LINE",
"685 616 OFFCURVE",
"584 710 OFFCURVE",
"436 710 CURVE SMOOTH",
"232 710 OFFCURVE",
"58 534 OFFCURVE",
"58 287 CURVE SMOOTH",
"58 128 OFFCURVE",
"160 -11 OFFCURVE",
"331 -11 CURVE SMOOTH"
);
}
);
};
layerId = "047DE625-588D-43A1-AE3A-C97924B5E3D3";
paths = (
{
closed = 1;
nodes = (
"449 -11 OFFCURVE",
"535 43 OFFCURVE",
"596 143 CURVE",
"567 0 LINE",
"607 0 LINE",
"673 338 LINE",
"385 338 LINE",
"377 299 LINE",
"626 299 LINE",
"624 289 LINE SMOOTH",
"587 126 OFFCURVE",
"473 29 OFFCURVE",
"336 29 CURVE SMOOTH",
"187 29 OFFCURVE",
"102 149 OFFCURVE",
"102 290 CURVE SMOOTH",
"102 502 OFFCURVE",
"252 670 OFFCURVE",
"431 670 CURVE SMOOTH",
"548 670 OFFCURVE",
"638 602 OFFCURVE",
"645 490 CURVE",
"689 490 LINE",
"685 616 OFFCURVE",
"584 710 OFFCURVE",
"436 710 CURVE SMOOTH",
"232 710 OFFCURVE",
"58 534 OFFCURVE",
"58 287 CURVE SMOOTH",
"58 128 OFFCURVE",
"160 -11 OFFCURVE",
"331 -11 CURVE SMOOTH"
);
}
);
width = 745;
},
{
background = {
paths = (
{
closed = 1;
nodes = (
"435 -11 OFFCURVE",
"512 32 OFFCURVE",
"572 113 CURVE",
"550 0 LINE",
"626 0 LINE",
"695 357 LINE",
"399 357 LINE",
"385 283 LINE",
"601 283 LINE",
"600 277 LINE SMOOTH",
"568 156 OFFCURVE",
"466 64 OFFCURVE",
"343 64 CURVE SMOOTH",
"229 64 OFFCURVE",
"141 146 OFFCURVE",
"141 291 CURVE SMOOTH",
"141 458 OFFCURVE",
"248 635 OFFCURVE",
"429 635 CURVE SMOOTH",
"530 635 OFFCURVE",
"615 581 OFFCURVE",
"623 480 CURVE",
"708 480 LINE",
"705 636 OFFCURVE",
"569 710 OFFCURVE",
"438 710 CURVE SMOOTH",
"192 710 OFFCURVE",
"52 496 OFFCURVE",
"52 281 CURVE SMOOTH",
"52 98 OFFCURVE",
"178 -11 OFFCURVE",
"329 -11 CURVE SMOOTH"
);
}
);
};
layerId = "AB33B01D-3E13-404E-935A-045AA6D07EB8";
paths = (
{
closed = 1;
nodes = (
"435 -11 OFFCURVE",
"512 32 OFFCURVE",
"572 113 CURVE",
"550 0 LINE",
"626 0 LINE",
"695 357 LINE",
"399 357 LINE",
"385 283 LINE",
"601 283 LINE",
"600 277 LINE SMOOTH",
"568 156 OFFCURVE",
"466 64 OFFCURVE",
"343 64 CURVE SMOOTH",
"229 64 OFFCURVE",
"141 146 OFFCURVE",
"141 291 CURVE SMOOTH",
"141 458 OFFCURVE",
"248 635 OFFCURVE",
"429 635 CURVE SMOOTH",
"530 635 OFFCURVE",
"615 581 OFFCURVE",
"623 480 CURVE",
"708 480 LINE",
"705 636 OFFCURVE",
"569 710 OFFCURVE",
"438 710 CURVE SMOOTH",
"192 710 OFFCURVE",
"52 496 OFFCURVE",
"52 281 CURVE SMOOTH",
"52 98 OFFCURVE",
"178 -11 OFFCURVE",
"329 -11 CURVE SMOOTH"
);
}
);
width = 758;
},
{
background = {
paths = (
{
closed = 1;
nodes = (
"458 -12 OFFCURVE",
"530 23 OFFCURVE",
"578 78 CURVE",
"578 0 LINE",
"742 0 LINE",
"742 391 LINE",
"413 391 LINE",
"413 252 LINE",
"563 252 LINE",
"562 248 LINE SMOOTH",
"545 182 OFFCURVE",
"481 143 OFFCURVE",
"405 143 CURVE SMOOTH",
"298 143 OFFCURVE",
"229 223 OFFCURVE",
"229 350 CURVE SMOOTH",
"229 469 OFFCURVE",
"293 554 OFFCURVE",
"403 554 CURVE SMOOTH",
"468 554 OFFCURVE",
"526 526 OFFCURVE",
"543 467 CURVE",
"740 467 LINE",
"716 628 OFFCURVE",
"567 710 OFFCURVE",
"401 710 CURVE SMOOTH",
"165 710 OFFCURVE",
"30 555 OFFCURVE",
"30 350 CURVE SMOOTH",
"30 125 OFFCURVE",
"185 -12 OFFCURVE",
"364 -12 CURVE SMOOTH"
);
}
);
};
layerId = "9D32FE6F-9470-45EF-9689-909A6F5CE504";
paths = (
{
closed = 1;
nodes = (
"458 -12 OFFCURVE",
"530 23 OFFCURVE",
"578 78 CURVE",
"578 0 LINE",
"742 0 LINE",
"742 391 LINE",
"413 391 LINE",
"413 252 LINE",
"563 252 LINE",
"562 248 LINE SMOOTH",
"545 182 OFFCURVE",
"481 143 OFFCURVE",
"405 143 CURVE SMOOTH",
"298 143 OFFCURVE",
"229 223 OFFCURVE",
"229 350 CURVE SMOOTH",
"229 469 OFFCURVE",
"293 554 OFFCURVE",
"403 554 CURVE SMOOTH",
"468 554 OFFCURVE",
"526 526 OFFCURVE",
"543 467 CURVE",
"740 467 LINE",
"716 628 OFFCURVE",
"567 710 OFFCURVE",
"401 710 CURVE SMOOTH",
"165 710 OFFCURVE",
"30 555 OFFCURVE",
"30 350 CURVE SMOOTH",
"30 125 OFFCURVE",
"185 -12 OFFCURVE",
"364 -12 CURVE SMOOTH"
);
}
);
width = 799;
},
{
background = {
paths = (
{
closed = 1;
nodes = (
"407 -12 OFFCURVE",
"475 21 OFFCURVE",
"527 78 CURVE",
"513 0 LINE",
"675 0 LINE",
"751 391 LINE",
"426 391 LINE",
"399 253 LINE",
"539 253 LINE",
"539 250 LINE",
"514 185 OFFCURVE",
"448 142 OFFCURVE",
"375 142 CURVE SMOOTH",
"287 142 OFFCURVE",
"232 201 OFFCURVE",
"232 307 CURVE SMOOTH",
"232 420 OFFCURVE",
"299 556 OFFCURVE",
"433 556 CURVE SMOOTH",
"499 556 OFFCURVE",
"557 526 OFFCURVE",
"566 467 CURVE",
"761 467 LINE",
"753 612 OFFCURVE",
"621 710 OFFCURVE",
"443 710 CURVE SMOOTH",
"182 710 OFFCURVE",
"35 508 OFFCURVE",
"35 297 CURVE SMOOTH",
"35 94 OFFCURVE",
"171 -12 OFFCURVE",
"316 -12 CURVE SMOOTH"
);
}
);
};
layerId = "69B5B248-E33C-46C9-9D9F-11585640C213";
paths = (
{
closed = 1;
nodes = (
"407 -12 OFFCURVE",
"475 21 OFFCURVE",
"527 78 CURVE",
"513 0 LINE",
"675 0 LINE",
"751 391 LINE",
"426 391 LINE",
"399 253 LINE",
"539 253 LINE",
"539 250 LINE",
"514 185 OFFCURVE",
"448 142 OFFCURVE",
"375 142 CURVE SMOOTH",
"287 142 OFFCURVE",
"232 201 OFFCURVE",
"232 307 CURVE SMOOTH",
"232 420 OFFCURVE",
"299 556 OFFCURVE",
"433 556 CURVE SMOOTH",
"499 556 OFFCURVE",
"557 526 OFFCURVE",
"566 467 CURVE",
"761 467 LINE",
"753 612 OFFCURVE",
"621 710 OFFCURVE",
"443 710 CURVE SMOOTH",
"182 710 OFFCURVE",
"35 508 OFFCURVE",
"35 297 CURVE SMOOTH",
"35 94 OFFCURVE",
"171 -12 OFFCURVE",
"316 -12 CURVE SMOOTH"
);
}
);
width = 791;
}
);
leftKerningGroup = C;
note = G;
rightKerningGroup = G;
unicode = 0047;
},
{
color = 5;
glyphname = H;
lastChange = "2022-01-20 12:19:35 +0000";
layers = (
{
background = {
paths = (
{
closed = 1;
nodes = (
"180 0 LINE",
"180 324 LINE",
"570 324 LINE",
"570 0 LINE",
"660 0 LINE",
"660 700 LINE",
"570 700 LINE",
"570 404 LINE",
"180 404 LINE",
"180 700 LINE",
"90 700 LINE",
"90 0 LINE"
);
}
);
};
layerId = "30E869CF-9A31-4D47-9626-61B8364FC2DA";
paths = (
{
closed = 1;
nodes = (
"180 0 LINE",
"180 324 LINE",
"570 324 LINE",
"570 0 LINE",
"660 0 LINE",
"660 700 LINE",
"570 700 LINE",
"570 404 LINE",
"180 404 LINE",
"180 700 LINE",
"90 700 LINE",
"90 0 LINE"
);
}
);
width = 750;
},
{
background = {
paths = (
{
closed = 1;
nodes = (
"140 0 LINE",
"140 344 LINE",
"580 344 LINE",
"580 0 LINE",
"625 0 LINE",
"625 700 LINE",
"580 700 LINE",
"580 384 LINE",
"140 384 LINE",
"140 700 LINE",
"95 700 LINE",
"95 0 LINE"
);
}
);
};
layerId = "18A01495-E50D-4F2B-A1D8-5C332C731D93";
paths = (
{
closed = 1;
nodes = (
"140 0 LINE",
"140 344 LINE",
"580 344 LINE",
"580 0 LINE",
"625 0 LINE",
"625 700 LINE",
"580 700 LINE",
"580 384 LINE",
"140 384 LINE",
"140 700 LINE",
"95 700 LINE",
"95 0 LINE"
);
}
);
width = 720;
},
{
background = {
paths = (
{
closed = 1;
nodes = (
"80 0 LINE",
"146 344 LINE",
"581 344 LINE",
"514 0 LINE",
"556 0 LINE",
"693 700 LINE",
"650 700 LINE",
"588 383 LINE",
"154 383 LINE",
"216 700 LINE",
"174 700 LINE",
"37 0 LINE"
);
}
);
};
layerId = "047DE625-588D-43A1-AE3A-C97924B5E3D3";
paths = (
{
closed = 1;
nodes = (
"80 0 LINE",
"146 344 LINE",
"581 344 LINE",
"514 0 LINE",
"556 0 LINE",
"693 700 LINE",
"650 700 LINE",
"588 383 LINE",
"154 383 LINE",
"216 700 LINE",
"174 700 LINE",
"37 0 LINE"
);
}
);
width = 709;
},
{
background = {
paths = (
{
closed = 1;
nodes = (
"114 0 LINE",
"177 326 LINE",
"563 326 LINE",
"500 0 LINE",
"585 0 LINE",
"721 700 LINE",
"636 700 LINE",
"578 400 LINE",
"192 400 LINE",
"251 700 LINE",
"166 700 LINE",
"29 0 LINE"
);
}
);
};
layerId = "AB33B01D-3E13-404E-935A-045AA6D07EB8";
paths = (
{
closed = 1;
nodes = (
"114 0 LINE",
"177 326 LINE",
"563 326 LINE",
"500 0 LINE",
"585 0 LINE",
"721 700 LINE",
"636 700 LINE",
"578 400 LINE",
"192 400 LINE",
"251 700 LINE",
"166 700 LINE",
"29 0 LINE"
);
}
);
width = 731;
},
{
background = {
paths = (
{
closed = 1;
nodes = (
"258 0 LINE",
"258 275 LINE",
"530 275 LINE",
"530 0 LINE",
"724 0 LINE",
"724 700 LINE",
"530 700 LINE",
"530 437 LINE",
"258 437 LINE",
"258 700 LINE",
"65 700 LINE",
"65 0 LINE"
);
}
);
};
layerId = "9D32FE6F-9470-45EF-9689-909A6F5CE504";
paths = (
{
closed = 1;
nodes = (
"258 0 LINE",
"258 275 LINE",
"530 275 LINE",
"530 0 LINE",
"724 0 LINE",
"724 700 LINE",
"530 700 LINE",
"530 437 LINE",
"258 437 LINE",
"258 700 LINE",
"65 700 LINE",
"65 0 LINE"
);
}
);
width = 788;
},
{
background = {
paths = (
{
closed = 1;
nodes = (
"197 0 LINE",
"250 275 LINE",
"515 275 LINE",
"462 0 LINE",
"654 0 LINE",
"791 700 LINE",
"599 700 LINE",
"547 437 LINE",
"281 437 LINE",
"333 700 LINE",
"141 700 LINE",
"5 0 LINE"
);
}
);
};
layerId = "69B5B248-E33C-46C9-9D9F-11585640C213";
paths = (
{
closed = 1;
nodes = (
"197 0 LINE",
"250 275 LINE",
"515 275 LINE",
"462 0 LINE",
"654 0 LINE",
"791 700 LINE",
"599 700 LINE",
"547 437 LINE",
"281 437 LINE",
"333 700 LINE",
"141 700 LINE",
"5 0 LINE"
);
}
);
width = 777;
}
);
note = H;
unicode = 0048;
},
{
color = 5;
glyphname = I;
lastChange = "2022-01-20 12:19:35 +0000";
layers = (
{
background = {
paths = (
{
closed = 1;
nodes = (
"180 0 LINE",
"180 700 LINE",
"90 700 LINE",
"90 0 LINE"
);
}
);
};
layerId = "30E869CF-9A31-4D47-9626-61B8364FC2DA";
paths = (
{
closed = 1;
nodes = (
"180 0 LINE",
"180 700 LINE",
"90 700 LINE",
"90 0 LINE"
);
}
);
width = 270;
},
{
background = {
paths = (
{
closed = 1;
nodes = (
"140 0 LINE",
"140 700 LINE",
"95 700 LINE",
"95 0 LINE"
);
}
);
};
layerId = "18A01495-E50D-4F2B-A1D8-5C332C731D93";
paths = (
{
closed = 1;
nodes = (
"140 0 LINE",
"140 700 LINE",
"95 700 LINE",
"95 0 LINE"
);
}
);
width = 235;
},
{
background = {
paths = (
{
closed = 1;
nodes = (
"80 0 LINE",
"216 700 LINE",
"174 700 LINE",
"37 0 LINE"
);
}
);
};
layerId = "047DE625-588D-43A1-AE3A-C97924B5E3D3";
paths = (
{
closed = 1;
nodes = (
"80 0 LINE",
"216 700 LINE",
"174 700 LINE",
"37 0 LINE"
);
}
);
width = 233;
},
{
background = {
paths = (
{
closed = 1;
nodes = (
"114 0 LINE",
"251 700 LINE",
"166 700 LINE",
"29 0 LINE"
);
}
);
};
layerId = "AB33B01D-3E13-404E-935A-045AA6D07EB8";
paths = (
{
closed = 1;
nodes = (
"114 0 LINE",
"251 700 LINE",
"166 700 LINE",
"29 0 LINE"
);
}
);
width = 260;
},
{
background = {
paths = (
{
closed = 1;
nodes = (
"258 0 LINE",
"258 700 LINE",
"65 700 LINE",
"65 0 LINE"
);
}
);
};
layerId = "9D32FE6F-9470-45EF-9689-909A6F5CE504";
paths = (
{
closed = 1;
nodes = (
"258 0 LINE",
"258 700 LINE",
"65 700 LINE",
"65 0 LINE"
);
}
);
width = 322;
},
{
background = {
paths = (
{
closed = 1;
nodes = (
"197 0 LINE",
"333 700 LINE",
"141 700 LINE",
"5 0 LINE"
);
}
);
};
layerId = "69B5B248-E33C-46C9-9D9F-11585640C213";
paths = (
{
closed = 1;
nodes = (
"197 0 LINE",
"333 700 LINE",
"141 700 LINE",
"5 0 LINE"
);
}
);
width = 319;
}
);
note = I;
unicode = 0049;
},
{
color = 5;
glyphname = J;
lastChange = "2022-01-20 12:19:35 +0000";
layers = (
{
background = {
paths = (
{
closed = 1;
nodes = (
"415 -10 OFFCURVE",
"494 87 OFFCURVE",
"494 221 CURVE SMOOTH",
"494 700 LINE",
"404 700 LINE",
"404 222 LINE SMOOTH",
"404 127 OFFCURVE",
"350 70 OFFCURVE",
"264 70 CURVE SMOOTH",
"172 70 OFFCURVE",
"125 127 OFFCURVE",
"120 228 CURVE",
"30 228 LINE",
"38 72 OFFCURVE",
"121 -10 OFFCURVE",
"264 -10 CURVE SMOOTH"
);
}
);
};
layerId = "30E869CF-9A31-4D47-9626-61B8364FC2DA";
paths = (
{
closed = 1;
nodes = (
"415 -10 OFFCURVE",
"494 87 OFFCURVE",
"494 221 CURVE SMOOTH",
"494 700 LINE",
"404 700 LINE",
"404 222 LINE SMOOTH",
"404 127 OFFCURVE",
"350 70 OFFCURVE",
"264 70 CURVE SMOOTH",
"172 70 OFFCURVE",
"125 127 OFFCURVE",
"120 228 CURVE",
"30 228 LINE",
"38 72 OFFCURVE",
"121 -10 OFFCURVE",
"264 -10 CURVE SMOOTH"
);
}
);
width = 572;
},
{
background = {
paths = (
{
closed = 1;
nodes = (
"386 -10 OFFCURVE",
"467 76 OFFCURVE",
"467 210 CURVE SMOOTH",
"467 700 LINE",
"422 700 LINE",
"422 211 LINE SMOOTH",
"422 104 OFFCURVE",
"361 30 OFFCURVE",
"255 30 CURVE SMOOTH",
"156 30 OFFCURVE",
"92 89 OFFCURVE",
"83 208 CURVE",
"38 208 LINE",
"48 80 OFFCURVE",
"119 -10 OFFCURVE",
"255 -10 CURVE SMOOTH"
);
}
);
};
layerId = "18A01495-E50D-4F2B-A1D8-5C332C731D93";
paths = (
{
closed = 1;
nodes = (
"386 -10 OFFCURVE",
"467 76 OFFCURVE",
"467 210 CURVE SMOOTH",
"467 700 LINE",
"422 700 LINE",
"422 211 LINE SMOOTH",
"422 104 OFFCURVE",
"361 30 OFFCURVE",
"255 30 CURVE SMOOTH",
"156 30 OFFCURVE",
"92 89 OFFCURVE",
"83 208 CURVE",
"38 208 LINE",
"48 80 OFFCURVE",
"119 -10 OFFCURVE",
"255 -10 CURVE SMOOTH"
);
}
);
width = 551;
},
{
background = {
paths = (
{
closed = 1;
nodes = (
"333 -11 OFFCURVE",
"415 71 OFFCURVE",
"440 200 CURVE SMOOTH",
"538 700 LINE",
"495 700 LINE",
"398 203 LINE SMOOTH",
"377 95 OFFCURVE",
"308 29 OFFCURVE",
"210 29 CURVE SMOOTH",
"104 29 OFFCURVE",
"45 100 OFFCURVE",
"61 207 CURVE",
"19 207 LINE",
"2 85 OFFCURVE",
"69 -11 OFFCURVE",
"208 -11 CURVE SMOOTH"
);
}
);
};
layerId = "047DE625-588D-43A1-AE3A-C97924B5E3D3";
paths = (
{
closed = 1;
nodes = (
"333 -11 OFFCURVE",
"415 71 OFFCURVE",
"440 200 CURVE SMOOTH",
"538 700 LINE",
"495 700 LINE",
"398 203 LINE SMOOTH",
"377 95 OFFCURVE",
"308 29 OFFCURVE",
"210 29 CURVE SMOOTH",
"104 29 OFFCURVE",
"45 100 OFFCURVE",
"61 207 CURVE",
"19 207 LINE",
"2 85 OFFCURVE",
"69 -11 OFFCURVE",
"208 -11 CURVE SMOOTH"
);
}
);
width = 544;
},
{
background = {
paths = (
{
closed = 1;
nodes = (
"358 -11 OFFCURVE",
"440 77 OFFCURVE",
"467 212 CURVE SMOOTH",
"563 700 LINE",
"478 700 LINE",
"384 220 LINE SMOOTH",
"364 120 OFFCURVE",
"305 65 OFFCURVE",
"220 65 CURVE SMOOTH",
"125 65 OFFCURVE",
"86 134 OFFCURVE",
"100 226 CURVE",
"16 226 LINE",
"-2 81 OFFCURVE",
"74 -11 OFFCURVE",
"216 -11 CURVE SMOOTH"
);
}
);
};
layerId = "AB33B01D-3E13-404E-935A-045AA6D07EB8";
paths = (
{
closed = 1;
nodes = (
"358 -11 OFFCURVE",
"440 77 OFFCURVE",
"467 212 CURVE SMOOTH",
"563 700 LINE",
"478 700 LINE",
"384 220 LINE SMOOTH",
"364 120 OFFCURVE",
"305 65 OFFCURVE",
"220 65 CURVE SMOOTH",
"125 65 OFFCURVE",
"86 134 OFFCURVE",
"100 226 CURVE",
"16 226 LINE",
"-2 81 OFFCURVE",
"74 -11 OFFCURVE",
"216 -11 CURVE SMOOTH"
);
}
);
width = 563;
},
{
background = {
paths = (
{
closed = 1;
nodes = (
"473 -13 OFFCURVE",
"584 74 OFFCURVE",
"584 263 CURVE SMOOTH",
"584 700 LINE",
"391 700 LINE",
"391 263 LINE SMOOTH",
"391 194 OFFCURVE",
"361 151 OFFCURVE",
"301 151 CURVE SMOOTH",
"237 151 OFFCURVE",
"210 195 OFFCURVE",
"208 276 CURVE",
"17 276 LINE",
"26 85 OFFCURVE",
"118 -13 OFFCURVE",
"301 -13 CURVE SMOOTH"
);
}
);
};
layerId = "9D32FE6F-9470-45EF-9689-909A6F5CE504";
paths = (
{
closed = 1;
nodes = (
"473 -13 OFFCURVE",
"584 74 OFFCURVE",
"584 263 CURVE SMOOTH",
"584 700 LINE",
"391 700 LINE",
"391 263 LINE SMOOTH",
"391 194 OFFCURVE",
"361 151 OFFCURVE",
"301 151 CURVE SMOOTH",
"237 151 OFFCURVE",
"210 195 OFFCURVE",
"208 276 CURVE",
"17 276 LINE",
"26 85 OFFCURVE",
"118 -13 OFFCURVE",
"301 -13 CURVE SMOOTH"
);
}
);
width = 642;
},
{
background = {
paths = (
{
closed = 1;
nodes = (
"433 -13 OFFCURVE",
"533 81 OFFCURVE",
"568 258 CURVE SMOOTH",
"655 700 LINE",
"463 700 LINE",
"376 261 LINE SMOOTH",
"362 192 OFFCURVE",
"328 150 OFFCURVE",
"270 150 CURVE SMOOTH",
"203 150 OFFCURVE",
"189 204 OFFCURVE",
"199 276 CURVE",
"14 276 LINE",
"-13 103 OFFCURVE",
"77 -13 OFFCURVE",
"256 -13 CURVE SMOOTH"
);
}
);
};
layerId = "69B5B248-E33C-46C9-9D9F-11585640C213";
paths = (
{
closed = 1;
nodes = (
"433 -13 OFFCURVE",
"533 81 OFFCURVE",
"568 258 CURVE SMOOTH",
"655 700 LINE",
"463 700 LINE",
"376 261 LINE SMOOTH",
"362 192 OFFCURVE",
"328 150 OFFCURVE",
"270 150 CURVE SMOOTH",
"203 150 OFFCURVE",
"189 204 OFFCURVE",
"199 276 CURVE",
"14 276 LINE",
"-13 103 OFFCURVE",
"77 -13 OFFCURVE",
"256 -13 CURVE SMOOTH"
);
}
);
width = 634;
}
);
leftKerningGroup = J;
note = J;
rightKerningGroup = J;
unicode = 004A;
},
{
color = 5;
glyphname = K;
lastChange = "2022-01-20 12:19:35 +0000";
layers = (
{
background = {
paths = (
{
closed = 1;
nodes = (
"178 0 LINE",
"178 229 LINE",
"308 358 LINE",
"546 0 LINE",
"656 0 LINE",
"374 420 LINE",
"656 700 LINE",
"541 700 LINE",
"178 339 LINE",
"178 700 LINE",
"88 700 LINE",
"88 0 LINE"
);
}
);
};
layerId = "30E869CF-9A31-4D47-9626-61B8364FC2DA";
paths = (
{
closed = 1;
nodes = (
"178 0 LINE",
"178 229 LINE",
"308 358 LINE",
"546 0 LINE",
"656 0 LINE",
"374 420 LINE",
"656 700 LINE",
"541 700 LINE",
"178 339 LINE",
"178 700 LINE",
"88 700 LINE",
"88 0 LINE"
);
}
);
width = 673;
},
{
background = {
paths = (
{
closed = 1;
nodes = (
"141 0 LINE",
"141 243 LINE",
"293 391 LINE",
"563 0 LINE",
"618 0 LINE",
"324 421 LINE",
"617 700 LINE",
"557 700 LINE",
"141 298 LINE",
"141 700 LINE",
"96 700 LINE",
"96 0 LINE"
);
}
);
};
layerId = "18A01495-E50D-4F2B-A1D8-5C332C731D93";
paths = (
{
closed = 1;
nodes = (
"141 0 LINE",
"141 243 LINE",
"293 391 LINE",
"563 0 LINE",
"618 0 LINE",
"324 421 LINE",
"617 700 LINE",
"557 700 LINE",
"141 298 LINE",
"141 700 LINE",
"96 700 LINE",
"96 0 LINE"
);
}
);
width = 642;
},
{
background = {
paths = (
{
closed = 1;
nodes = (
"79 0 LINE",
"127 244 LINE",
"309 392 LINE",
"502 0 LINE",
"548 0 LINE",
"341 418 LINE",
"685 700 LINE",
"624 700 LINE",
"138 302 LINE",
"216 700 LINE",
"174 700 LINE",
"37 0 LINE"
);
}
);
};
layerId = "047DE625-588D-43A1-AE3A-C97924B5E3D3";
paths = (
{
closed = 1;
nodes = (
"79 0 LINE",
"127 244 LINE",
"309 392 LINE",
"502 0 LINE",
"548 0 LINE",
"341 418 LINE",
"685 700 LINE",
"624 700 LINE",
"138 302 LINE",
"216 700 LINE",
"174 700 LINE",
"37 0 LINE"
);
}
);
width = 633;
},
{
background = {
paths = (
{
closed = 1;
nodes = (
"114 0 LINE",
"158 228 LINE",
"319 365 LINE",
"490 0 LINE",
"583 0 LINE",
"385 417 LINE",
"717 700 LINE",
"600 700 LINE",
"180 342 LINE",
"250 700 LINE",
"166 700 LINE",
"29 0 LINE"
);
}
);
};
layerId = "AB33B01D-3E13-404E-935A-045AA6D07EB8";
paths = (
{
closed = 1;
nodes = (
"114 0 LINE",
"158 228 LINE",
"319 365 LINE",
"490 0 LINE",
"583 0 LINE",
"385 417 LINE",
"717 700 LINE",
"600 700 LINE",
"180 342 LINE",
"250 700 LINE",
"166 700 LINE",
"29 0 LINE"
);
}
);
width = 660;
},
{
background = {
paths = (
{
closed = 1;
nodes = (
"255 0 LINE",
"255 171 LINE",
"352 280 LINE",
"519 0 LINE",
"741 0 LINE",
"489 416 LINE",
"739 700 LINE",
"506 700 LINE",
"255 407 LINE",
"255 700 LINE",
"65 700 LINE",
"65 0 LINE"
);
}
);
};
layerId = "9D32FE6F-9470-45EF-9689-909A6F5CE504";
paths = (
{
closed = 1;
nodes = (
"255 0 LINE",
"255 171 LINE",
"352 280 LINE",
"519 0 LINE",
"741 0 LINE",
"489 416 LINE",
"739 700 LINE",
"506 700 LINE",
"255 407 LINE",
"255 700 LINE",
"65 700 LINE",
"65 0 LINE"
);
}
);
width = 750;
},
{
background = {
paths = (
{
closed = 1;
nodes = (
"194 0 LINE",
"226 166 LINE",
"353 286 LINE",
"465 0 LINE",
"668 0 LINE",
"502 414 LINE",
"803 700 LINE",
"560 700 LINE",
"277 426 LINE",
"330 700 LINE",
"141 700 LINE",
"5 0 LINE"
);
}
);
};
layerId = "69B5B248-E33C-46C9-9D9F-11585640C213";
paths = (
{
closed = 1;
nodes = (
"194 0 LINE",
"226 166 LINE",
"353 286 LINE",
"465 0 LINE",
"668 0 LINE",
"502 414 LINE",
"803 700 LINE",
"560 700 LINE",
"277 426 LINE",
"330 700 LINE",
"141 700 LINE",
"5 0 LINE"
);
}
);
width = 739;
}
);
note = K;
rightKerningGroup = K;
unicode = 004B;
},
{
color = 5;
glyphname = L;
lastChange = "2022-01-20 12:19:35 +0000";
layers = (
{
background = {
paths = (
{
closed = 1;
nodes = (
"536 0 LINE",
"536 80 LINE",
"178 80 LINE",
"178 700 LINE",
"88 700 LINE",
"88 0 LINE"
);
}
);
};
layerId = "30E869CF-9A31-4D47-9626-61B8364FC2DA";
paths = (
{
closed = 1;
nodes = (
"536 0 LINE",
"536 80 LINE",
"178 80 LINE",
"178 700 LINE",
"88 700 LINE",
"88 0 LINE"
);
}
);
width = 566;
},
{
background = {
paths = (
{
closed = 1;
nodes = (
"521 0 LINE",
"521 40 LINE",
"139 40 LINE",
"139 700 LINE",
"96 700 LINE",
"96 0 LINE"
);
}
);
};
layerId = "18A01495-E50D-4F2B-A1D8-5C332C731D93";
paths = (
{
closed = 1;
nodes = (
"521 0 LINE",
"521 40 LINE",
"139 40 LINE",
"139 700 LINE",
"96 700 LINE",
"96 0 LINE"
);
}
);
width = 551;
},
{
background = {
paths = (
{
closed = 1;
nodes = (
"455 0 LINE",
"463 39 LINE",
"87 39 LINE",
"216 700 LINE",
"174 700 LINE",
"37 0 LINE"
);
}
);
};
layerId = "047DE625-588D-43A1-AE3A-C97924B5E3D3";
paths = (
{
closed = 1;
nodes = (
"455 0 LINE",
"463 39 LINE",
"87 39 LINE",
"216 700 LINE",
"174 700 LINE",
"37 0 LINE"
);
}
);
width = 542;
},
{
background = {
paths = (
{
closed = 1;
nodes = (
"468 0 LINE",
"483 75 LINE",
"129 75 LINE",
"251 700 LINE",
"166 700 LINE",
"29 0 LINE"
);
}
);
};
layerId = "AB33B01D-3E13-404E-935A-045AA6D07EB8";
paths = (
{
closed = 1;
nodes = (
"468 0 LINE",
"483 75 LINE",
"129 75 LINE",
"251 700 LINE",
"166 700 LINE",
"29 0 LINE"
);
}
);
width = 555;
},
{
background = {
paths = (
{
closed = 1;
nodes = (
"576 0 LINE",
"576 163 LINE",
"258 163 LINE",
"258 700 LINE",
"65 700 LINE",
"65 0 LINE"
);
}
);
};
layerId = "9D32FE6F-9470-45EF-9689-909A6F5CE504";
paths = (
{
closed = 1;
nodes = (
"576 0 LINE",
"576 163 LINE",
"258 163 LINE",
"258 700 LINE",
"65 700 LINE",
"65 0 LINE"
);
}
);
width = 602;
},
{
background = {
paths = (
{
closed = 1;
nodes = (
"508 0 LINE",
"540 162 LINE",
"228 162 LINE",
"333 700 LINE",
"141 700 LINE",
"5 0 LINE"
);
}
);
};
layerId = "69B5B248-E33C-46C9-9D9F-11585640C213";
paths = (
{
closed = 1;
nodes = (
"508 0 LINE",
"540 162 LINE",
"228 162 LINE",
"333 700 LINE",
"141 700 LINE",
"5 0 LINE"
);
}
);
width = 594;
}
);
note = L;
rightKerningGroup = L;
unicode = 004C;
},
{
color = 5;
glyphname = M;
lastChange = "2022-01-20 12:19:35 +0000";
layers = (
{
background = {
paths = (
{
closed = 1;
nodes = (
"180 0 LINE",
"180 622 LINE",
"407 0 LINE",
"507 0 LINE",
"735 624 LINE",
"735 0 LINE",
"825 0 LINE",
"825 700 LINE",
"682 700 LINE",
"459 94 LINE",
"236 700 LINE",
"90 700 LINE",
"90 0 LINE"
);
}
);
};
layerId = "30E869CF-9A31-4D47-9626-61B8364FC2DA";
paths = (
{
closed = 1;
nodes = (
"180 0 LINE",
"180 622 LINE",
"407 0 LINE",
"507 0 LINE",
"735 624 LINE",
"735 0 LINE",
"825 0 LINE",
"825 700 LINE",
"682 700 LINE",
"459 94 LINE",
"236 700 LINE",
"90 700 LINE",
"90 0 LINE"
);
}
);
width = 915;
},
{
background = {
paths = (
{
closed = 1;
nodes = (
"140 0 LINE",
"140 657 LINE",
"418 0 LINE",
"468 0 LINE",
"746 657 LINE",
"746 0 LINE",
"791 0 LINE",
"791 700 LINE",
"724 700 LINE",
"443 48 LINE",
"163 700 LINE",
"95 700 LINE",
"95 0 LINE"
);
}
);
};
layerId = "18A01495-E50D-4F2B-A1D8-5C332C731D93";
paths = (
{
closed = 1;
nodes = (
"140 0 LINE",
"140 657 LINE",
"418 0 LINE",
"468 0 LINE",
"746 657 LINE",
"746 0 LINE",
"791 0 LINE",
"791 700 LINE",
"724 700 LINE",
"443 48 LINE",
"163 700 LINE",
"95 700 LINE",
"95 0 LINE"
);
}
);
width = 886;
},
{
background = {
paths = (
{
closed = 1;
nodes = (
"79 0 LINE",
"208 657 LINE",
"356 0 LINE",
"403 0 LINE",
"808 656 LINE",
"680 0 LINE",
"722 0 LINE",
"859 700 LINE",
"790 700 LINE",
"387 48 LINE",
"239 700 LINE",
"175 700 LINE",
"38 0 LINE"
);
}
);
};
layerId = "047DE625-588D-43A1-AE3A-C97924B5E3D3";
paths = (
{
closed = 1;
nodes = (
"79 0 LINE",
"208 657 LINE",
"356 0 LINE",
"403 0 LINE",
"808 656 LINE",
"680 0 LINE",
"722 0 LINE",
"859 700 LINE",
"790 700 LINE",
"387 48 LINE",
"239 700 LINE",
"175 700 LINE",
"38 0 LINE"
);
}
);
width = 875;
},
{
background = {
paths = (
{
closed = 1;
nodes = (
"112 0 LINE",
"234 627 LINE",
"343 0 LINE",
"437 0 LINE",
"790 627 LINE",
"667 0 LINE",
"749 0 LINE",
"886 700 LINE",
"747 700 LINE",
"404 88 LINE",
"298 700 LINE",
"166 700 LINE",
"29 0 LINE"
);
}
);
};
layerId = "AB33B01D-3E13-404E-935A-045AA6D07EB8";
paths = (
{
closed = 1;
nodes = (
"112 0 LINE",
"234 627 LINE",
"343 0 LINE",
"437 0 LINE",
"790 627 LINE",
"667 0 LINE",
"749 0 LINE",
"886 700 LINE",
"747 700 LINE",
"404 88 LINE",
"298 700 LINE",
"166 700 LINE",
"29 0 LINE"
);
}
);
width = 895;
},
{
background = {
paths = (
{
closed = 1;
nodes = (
"246 0 LINE",
"246 510 LINE",
"401 0 LINE",
"567 0 LINE",
"722 511 LINE",
"722 0 LINE",
"904 0 LINE",
"904 700 LINE",
"627 700 LINE",
"486 229 LINE",
"345 700 LINE",
"65 700 LINE",
"65 0 LINE"
);
}
);
};
layerId = "9D32FE6F-9470-45EF-9689-909A6F5CE504";
paths = (
{
closed = 1;
nodes = (
"246 0 LINE",
"246 510 LINE",
"401 0 LINE",
"567 0 LINE",
"722 511 LINE",
"722 0 LINE",
"904 0 LINE",
"904 700 LINE",
"627 700 LINE",
"486 229 LINE",
"345 700 LINE",
"65 700 LINE",
"65 0 LINE"
);
}
);
width = 968;
},
{
background = {
paths = (
{
closed = 1;
nodes = (
"185 0 LINE",
"285 511 LINE",
"337 0 LINE",
"500 0 LINE",
"753 511 LINE",
"653 0 LINE",
"834 0 LINE",
"970 700 LINE",
"688 700 LINE",
"458 229 LINE",
"412 700 LINE",
"141 700 LINE",
"5 0 LINE"
);
}
);
};
layerId = "69B5B248-E33C-46C9-9D9F-11585640C213";
paths = (
{
closed = 1;
nodes = (
"185 0 LINE",
"285 511 LINE",
"337 0 LINE",
"500 0 LINE",
"753 511 LINE",
"653 0 LINE",
"834 0 LINE",
"970 700 LINE",
"688 700 LINE",
"458 229 LINE",
"412 700 LINE",
"141 700 LINE",
"5 0 LINE"
);
}
);
width = 956;
}
);
note = M;
unicode = 004D;
},
{
color = 5;
glyphname = N;
lastChange = "2022-01-20 12:19:35 +0000";
layers = (
{
background = {
paths = (
{
closed = 1;
nodes = (
"180 0 LINE",
"180 592 LINE",
"548 0 LINE",
"668 0 LINE",
"668 700 LINE",
"578 700 LINE",
"578 108 LINE",
"210 700 LINE",
"90 700 LINE",
"90 0 LINE"
);
}
);
};
layerId = "30E869CF-9A31-4D47-9626-61B8364FC2DA";
paths = (
{
closed = 1;
nodes = (
"180 0 LINE",
"180 592 LINE",
"548 0 LINE",
"668 0 LINE",
"668 700 LINE",
"578 700 LINE",
"578 108 LINE",
"210 700 LINE",
"90 700 LINE",
"90 0 LINE"
);
}
);
width = 758;
},
{
background = {
paths = (
{
closed = 1;
nodes = (
"140 0 LINE",
"140 646 LINE",
"582 0 LINE",
"642 0 LINE",
"642 700 LINE",
"597 700 LINE",
"597 54 LINE",
"155 700 LINE",
"95 700 LINE",
"95 0 LINE"
);
}
);
};
layerId = "18A01495-E50D-4F2B-A1D8-5C332C731D93";
paths = (
{
closed = 1;
nodes = (
"140 0 LINE",
"140 646 LINE",
"582 0 LINE",
"642 0 LINE",
"642 700 LINE",
"597 700 LINE",
"597 54 LINE",
"155 700 LINE",
"95 700 LINE",
"95 0 LINE"
);
}
);
width = 737;
},
{
background = {
paths = (
{
closed = 1;
nodes = (
"79 0 LINE",
"206 648 LINE",
"521 0 LINE",
"574 0 LINE",
"711 700 LINE",
"669 700 LINE",
"542 53 LINE",
"227 700 LINE",
"174 700 LINE",
"37 0 LINE"
);
}
);
};
layerId = "047DE625-588D-43A1-AE3A-C97924B5E3D3";
paths = (
{
closed = 1;
nodes = (
"79 0 LINE",
"206 648 LINE",
"521 0 LINE",
"574 0 LINE",
"711 700 LINE",
"669 700 LINE",
"542 53 LINE",
"227 700 LINE",
"174 700 LINE",
"37 0 LINE"
);
}
);
width = 728;
},
{
background = {
paths = (
{
closed = 1;
nodes = (
"112 0 LINE",
"229 604 LINE",
"489 0 LINE",
"596 0 LINE",
"733 700 LINE",
"650 700 LINE",
"532 97 LINE",
"273 700 LINE",
"166 700 LINE",
"29 0 LINE"
);
}
);
};
layerId = "AB33B01D-3E13-404E-935A-045AA6D07EB8";
paths = (
{
closed = 1;
nodes = (
"112 0 LINE",
"229 604 LINE",
"489 0 LINE",
"596 0 LINE",
"733 700 LINE",
"650 700 LINE",
"532 97 LINE",
"273 700 LINE",
"166 700 LINE",
"29 0 LINE"
);
}
);
width = 742;
},
{
background = {
paths = (
{
closed = 1;
nodes = (
"250 0 LINE",
"250 446 LINE",
"506 0 LINE",
"730 0 LINE",
"730 700 LINE",
"544 700 LINE",
"544 253 LINE",
"288 700 LINE",
"65 700 LINE",
"65 0 LINE"
);
}
);
};
layerId = "9D32FE6F-9470-45EF-9689-909A6F5CE504";
paths = (
{
closed = 1;
nodes = (
"250 0 LINE",
"250 446 LINE",
"506 0 LINE",
"730 0 LINE",
"730 700 LINE",
"544 700 LINE",
"544 253 LINE",
"288 700 LINE",
"65 700 LINE",
"65 0 LINE"
);
}
);
width = 794;
},
{
background = {
paths = (
{
closed = 1;
nodes = (
"190 0 LINE",
"278 452 LINE",
"444 0 LINE",
"659 0 LINE",
"796 700 LINE",
"610 700 LINE",
"522 248 LINE",
"355 700 LINE",
"141 700 LINE",
"5 0 LINE"
);
}
);
};
layerId = "69B5B248-E33C-46C9-9D9F-11585640C213";
paths = (
{
closed = 1;
nodes = (
"190 0 LINE",
"278 452 LINE",
"444 0 LINE",
"659 0 LINE",
"796 700 LINE",
"610 700 LINE",
"522 248 LINE",
"355 700 LINE",
"141 700 LINE",
"5 0 LINE"
);
}
);
width = 782;
}
);
note = N;
unicode = 004E;
},
{
color = 5;
glyphname = O;
lastChange = "2022-01-20 12:19:35 +0000";
layers = (
{
background = {
paths = (
{
closed = 1;
nodes = (
"586 -10 OFFCURVE",
"727 140 OFFCURVE",
"727 352 CURVE SMOOTH",
"727 564 OFFCURVE",
"588 710 OFFCURVE",
"387 710 CURVE SMOOTH",
"189 710 OFFCURVE",
"48 564 OFFCURVE",
"48 352 CURVE SMOOTH",
"48 140 OFFCURVE",
"187 -10 OFFCURVE",
"387 -10 CURVE SMOOTH"
);
},
{
closed = 1;
nodes = (
"242 70 OFFCURVE",
"138 182 OFFCURVE",
"138 352 CURVE SMOOTH",
"138 520 OFFCURVE",
"240 630 OFFCURVE",
"387 630 CURVE SMOOTH",
"533 630 OFFCURVE",
"637 521 OFFCURVE",
"637 352 CURVE SMOOTH",
"637 183 OFFCURVE",
"534 70 OFFCURVE",
"387 70 CURVE SMOOTH"
);
}
);
};
layerId = "30E869CF-9A31-4D47-9626-61B8364FC2DA";
paths = (
{
closed = 1;
nodes = (
"586 -10 OFFCURVE",
"727 140 OFFCURVE",
"727 352 CURVE SMOOTH",
"727 564 OFFCURVE",
"588 710 OFFCURVE",
"387 710 CURVE SMOOTH",
"189 710 OFFCURVE",
"48 564 OFFCURVE",
"48 352 CURVE SMOOTH",
"48 140 OFFCURVE",
"187 -10 OFFCURVE",
"387 -10 CURVE SMOOTH"
);
},
{
closed = 1;
nodes = (
"242 70 OFFCURVE",
"138 182 OFFCURVE",
"138 352 CURVE SMOOTH",
"138 520 OFFCURVE",
"240 630 OFFCURVE",
"387 630 CURVE SMOOTH",
"533 630 OFFCURVE",
"637 521 OFFCURVE",
"637 352 CURVE SMOOTH",
"637 183 OFFCURVE",
"534 70 OFFCURVE",
"387 70 CURVE SMOOTH"
);
}
);
width = 775;
},
{
background = {
paths = (
{
closed = 1;
nodes = (
"587 -10 OFFCURVE",
"713 155 OFFCURVE",
"713 350 CURVE SMOOTH",
"713 574 OFFCURVE",
"562 710 OFFCURVE",
"382 710 CURVE SMOOTH",
"177 710 OFFCURVE",
"52 546 OFFCURVE",
"52 350 CURVE SMOOTH",
"52 129 OFFCURVE",
"201 -10 OFFCURVE",
"382 -10 CURVE SMOOTH"
);
},
{
closed = 1;
nodes = (
"233 32 OFFCURVE",
"97 148 OFFCURVE",
"97 350 CURVE SMOOTH",
"97 528 OFFCURVE",
"208 670 OFFCURVE",
"382 670 CURVE SMOOTH",
"532 670 OFFCURVE",
"668 556 OFFCURVE",
"668 350 CURVE SMOOTH",
"668 175 OFFCURVE",
"558 32 OFFCURVE",
"382 32 CURVE SMOOTH"
);
}
);
};
layerId = "18A01495-E50D-4F2B-A1D8-5C332C731D93";
paths = (
{
closed = 1;
nodes = (
"587 -10 OFFCURVE",
"713 155 OFFCURVE",
"713 350 CURVE SMOOTH",
"713 574 OFFCURVE",
"562 710 OFFCURVE",
"382 710 CURVE SMOOTH",
"177 710 OFFCURVE",
"52 546 OFFCURVE",
"52 350 CURVE SMOOTH",
"52 129 OFFCURVE",
"201 -10 OFFCURVE",
"382 -10 CURVE SMOOTH"
);
},
{
closed = 1;
nodes = (
"233 32 OFFCURVE",
"97 148 OFFCURVE",
"97 350 CURVE SMOOTH",
"97 528 OFFCURVE",
"208 670 OFFCURVE",
"382 670 CURVE SMOOTH",
"532 670 OFFCURVE",
"668 556 OFFCURVE",
"668 350 CURVE SMOOTH",
"668 175 OFFCURVE",
"558 32 OFFCURVE",
"382 32 CURVE SMOOTH"
);
}
);
width = 765;
},
{
background = {
paths = (
{
closed = 1;
nodes = (
"540 -11 OFFCURVE",
"715 167 OFFCURVE",
"715 413 CURVE SMOOTH",
"715 574 OFFCURVE",
"610 710 OFFCURVE",
"433 710 CURVE SMOOTH",
"202 710 OFFCURVE",
"58 498 OFFCURVE",
"58 287 CURVE SMOOTH",
"58 125 OFFCURVE",
"163 -11 OFFCURVE",
"339 -11 CURVE SMOOTH"
);
},
{
closed = 1;
nodes = (
"190 29 OFFCURVE",
"102 147 OFFCURVE",
"102 289 CURVE SMOOTH",
"102 469 OFFCURVE",
"226 670 OFFCURVE",
"429 670 CURVE SMOOTH",
"583 670 OFFCURVE",
"671 553 OFFCURVE",
"671 411 CURVE SMOOTH",
"671 199 OFFCURVE",
"520 29 OFFCURVE",
"343 29 CURVE SMOOTH"
);
}
);
};
layerId = "047DE625-588D-43A1-AE3A-C97924B5E3D3";
paths = (
{
closed = 1;
nodes = (
"540 -11 OFFCURVE",
"715 167 OFFCURVE",
"715 413 CURVE SMOOTH",
"715 574 OFFCURVE",
"610 710 OFFCURVE",
"433 710 CURVE SMOOTH",
"202 710 OFFCURVE",
"58 498 OFFCURVE",
"58 287 CURVE SMOOTH",
"58 125 OFFCURVE",
"163 -11 OFFCURVE",
"339 -11 CURVE SMOOTH"
);
},
{
closed = 1;
nodes = (
"190 29 OFFCURVE",
"102 147 OFFCURVE",
"102 289 CURVE SMOOTH",
"102 469 OFFCURVE",
"226 670 OFFCURVE",
"429 670 CURVE SMOOTH",
"583 670 OFFCURVE",
"671 553 OFFCURVE",
"671 411 CURVE SMOOTH",
"671 199 OFFCURVE",
"520 29 OFFCURVE",
"343 29 CURVE SMOOTH"
);
}
);
width = 754;
},
{
background = {
paths = (
{
closed = 1;
nodes = (
"587 -12 OFFCURVE",
"729 203 OFFCURVE",
"729 418 CURVE SMOOTH",
"729 607 OFFCURVE",
"589 710 OFFCURVE",
"440 710 CURVE SMOOTH",
"195 710 OFFCURVE",
"52 496 OFFCURVE",
"52 282 CURVE SMOOTH",
"52 94 OFFCURVE",
"192 -12 OFFCURVE",
"341 -12 CURVE SMOOTH"
);
},
{
closed = 1;
nodes = (
"234 64 OFFCURVE",
"141 147 OFFCURVE",
"141 292 CURVE SMOOTH",
"141 454 OFFCURVE",
"248 635 OFFCURVE",
"432 635 CURVE SMOOTH",
"546 635 OFFCURVE",
"640 553 OFFCURVE",
"640 409 CURVE SMOOTH",
"640 229 OFFCURVE",
"520 64 OFFCURVE",
"349 64 CURVE SMOOTH"
);
}
);
};
layerId = "AB33B01D-3E13-404E-935A-045AA6D07EB8";
paths = (
{
closed = 1;
nodes = (
"587 -12 OFFCURVE",
"729 203 OFFCURVE",
"729 418 CURVE SMOOTH",
"729 607 OFFCURVE",
"589 710 OFFCURVE",
"440 710 CURVE SMOOTH",
"195 710 OFFCURVE",
"52 496 OFFCURVE",
"52 282 CURVE SMOOTH",
"52 94 OFFCURVE",
"192 -12 OFFCURVE",
"341 -12 CURVE SMOOTH"
);
},
{
closed = 1;
nodes = (
"234 64 OFFCURVE",
"141 147 OFFCURVE",
"141 292 CURVE SMOOTH",
"141 454 OFFCURVE",
"248 635 OFFCURVE",
"432 635 CURVE SMOOTH",
"546 635 OFFCURVE",
"640 553 OFFCURVE",
"640 409 CURVE SMOOTH",
"640 229 OFFCURVE",
"520 64 OFFCURVE",
"349 64 CURVE SMOOTH"
);
}
);
width = 762;
},
{
background = {
paths = (
{
closed = 1;
nodes = (
"624 -13 OFFCURVE",
"764 140 OFFCURVE",
"764 350 CURVE SMOOTH",
"764 552 OFFCURVE",
"632 710 OFFCURVE",
"397 710 CURVE SMOOTH",
"196 710 OFFCURVE",
"30 581 OFFCURVE",
"30 350 CURVE SMOOTH",
"30 149 OFFCURVE",
"161 -13 OFFCURVE",
"397 -13 CURVE SMOOTH"
);
},
{
closed = 1;
nodes = (
"295 150 OFFCURVE",
"230 233 OFFCURVE",
"230 350 CURVE SMOOTH",
"230 466 OFFCURVE",
"294 549 OFFCURVE",
"397 549 CURVE SMOOTH",
"498 549 OFFCURVE",
"564 466 OFFCURVE",
"564 350 CURVE SMOOTH",
"564 234 OFFCURVE",
"500 150 OFFCURVE",
"397 150 CURVE SMOOTH"
);
}
);
};
layerId = "9D32FE6F-9470-45EF-9689-909A6F5CE504";
paths = (
{
closed = 1;
nodes = (
"624 -13 OFFCURVE",
"764 140 OFFCURVE",
"764 350 CURVE SMOOTH",
"764 552 OFFCURVE",
"632 710 OFFCURVE",
"397 710 CURVE SMOOTH",
"196 710 OFFCURVE",
"30 581 OFFCURVE",
"30 350 CURVE SMOOTH",
"30 149 OFFCURVE",
"161 -13 OFFCURVE",
"397 -13 CURVE SMOOTH"
);
},
{
closed = 1;
nodes = (
"295 150 OFFCURVE",
"230 233 OFFCURVE",
"230 350 CURVE SMOOTH",
"230 466 OFFCURVE",
"294 549 OFFCURVE",
"397 549 CURVE SMOOTH",
"498 549 OFFCURVE",
"564 466 OFFCURVE",
"564 350 CURVE SMOOTH",
"564 234 OFFCURVE",
"500 150 OFFCURVE",
"397 150 CURVE SMOOTH"
);
}
);
width = 794;
},
{
background = {
paths = (
{
closed = 1;
nodes = (
"607 -13 OFFCURVE",
"766 185 OFFCURVE",
"766 402 CURVE SMOOTH",
"766 579 OFFCURVE",
"639 710 OFFCURVE",
"441 710 CURVE SMOOTH",
"228 710 OFFCURVE",
"35 548 OFFCURVE",
"35 297 CURVE SMOOTH",
"35 121 OFFCURVE",
"163 -13 OFFCURVE",
"360 -13 CURVE SMOOTH"
);
},
{
closed = 1;
nodes = (
"293 149 OFFCURVE",
"233 204 OFFCURVE",
"233 306 CURVE SMOOTH",
"233 438 OFFCURVE",
"317 550 OFFCURVE",
"428 550 CURVE SMOOTH",
"507 550 OFFCURVE",
"568 495 OFFCURVE",
"568 394 CURVE SMOOTH",
"568 277 OFFCURVE",
"495 149 OFFCURVE",
"373 149 CURVE SMOOTH"
);
}
);
};
layerId = "69B5B248-E33C-46C9-9D9F-11585640C213";
paths = (
{
closed = 1;
nodes = (
"607 -13 OFFCURVE",
"766 185 OFFCURVE",
"766 402 CURVE SMOOTH",
"766 579 OFFCURVE",
"639 710 OFFCURVE",
"441 710 CURVE SMOOTH",
"228 710 OFFCURVE",
"35 548 OFFCURVE",
"35 297 CURVE SMOOTH",
"35 121 OFFCURVE",
"163 -13 OFFCURVE",
"360 -13 CURVE SMOOTH"
);
},
{
closed = 1;
nodes = (
"293 149 OFFCURVE",
"233 204 OFFCURVE",
"233 306 CURVE SMOOTH",
"233 438 OFFCURVE",
"317 550 OFFCURVE",
"428 550 CURVE SMOOTH",
"507 550 OFFCURVE",
"568 495 OFFCURVE",
"568 394 CURVE SMOOTH",
"568 277 OFFCURVE",
"495 149 OFFCURVE",
"373 149 CURVE SMOOTH"
);
}
);
width = 784;
}
);
leftKerningGroup = C;
note = O;
rightKerningGroup = D;
unicode = 004F;
},
{
color = 5;
glyphname = P;
lastChange = "2022-01-20 12:19:35 +0000";
layers = (
{
background = {
paths = (
{
closed = 1;
nodes = (
"178 0 LINE",
"178 272 LINE",
"350 272 LINE SMOOTH",
"504 272 OFFCURVE",
"600 344 OFFCURVE",
"600 487 CURVE SMOOTH",
"600 628 OFFCURVE",
"507 700 OFFCURVE",
"351 700 CURVE SMOOTH",
"88 700 LINE",
"88 0 LINE"
);
},
{
closed = 1;
nodes = (
"178 620 LINE",
"350 620 LINE SMOOTH",
"454 620 OFFCURVE",
"510 575 OFFCURVE",
"510 486 CURVE SMOOTH",
"510 397 OFFCURVE",
"456 352 OFFCURVE",
"350 352 CURVE SMOOTH",
"178 352 LINE"
);
}
);
};
layerId = "30E869CF-9A31-4D47-9626-61B8364FC2DA";
paths = (
{
closed = 1;
nodes = (
"178 0 LINE",
"178 272 LINE",
"350 272 LINE SMOOTH",
"504 272 OFFCURVE",
"600 344 OFFCURVE",
"600 487 CURVE SMOOTH",
"600 628 OFFCURVE",
"507 700 OFFCURVE",
"351 700 CURVE SMOOTH",
"88 700 LINE",
"88 0 LINE"
);
},
{
closed = 1;
nodes = (
"178 620 LINE",
"350 620 LINE SMOOTH",
"454 620 OFFCURVE",
"510 575 OFFCURVE",
"510 486 CURVE SMOOTH",
"510 397 OFFCURVE",
"456 352 OFFCURVE",
"350 352 CURVE SMOOTH",
"178 352 LINE"
);
}
);
width = 632;
},
{
background = {
paths = (
{
closed = 1;
nodes = (
"141 0 LINE",
"141 291 LINE",
"338 291 LINE SMOOTH",
"487 291 OFFCURVE",
"574 365 OFFCURVE",
"574 495 CURVE SMOOTH",
"574 624 OFFCURVE",
"489 700 OFFCURVE",
"339 700 CURVE SMOOTH",
"96 700 LINE",
"96 0 LINE"
);
},
{
closed = 1;
nodes = (
"141 660 LINE",
"338 660 LINE SMOOTH",
"462 660 OFFCURVE",
"529 600 OFFCURVE",
"529 495 CURVE SMOOTH",
"529 392 OFFCURVE",
"463 332 OFFCURVE",
"338 332 CURVE SMOOTH",
"141 332 LINE"
);
}
);
};
layerId = "18A01495-E50D-4F2B-A1D8-5C332C731D93";
paths = (
{
closed = 1;
nodes = (
"141 0 LINE",
"141 291 LINE",
"338 291 LINE SMOOTH",
"487 291 OFFCURVE",
"574 365 OFFCURVE",
"574 495 CURVE SMOOTH",
"574 624 OFFCURVE",
"489 700 OFFCURVE",
"339 700 CURVE SMOOTH",
"96 700 LINE",
"96 0 LINE"
);
},
{
closed = 1;
nodes = (
"141 660 LINE",
"338 660 LINE SMOOTH",
"462 660 OFFCURVE",
"529 600 OFFCURVE",
"529 495 CURVE SMOOTH",
"529 392 OFFCURVE",
"463 332 OFFCURVE",
"338 332 CURVE SMOOTH",
"141 332 LINE"
);
}
);
width = 612;
},
{
background = {
paths = (
{
closed = 1;
nodes = (
"80 0 LINE",
"136 290 LINE",
"336 290 LINE SMOOTH",
"493 290 OFFCURVE",
"606 371 OFFCURVE",
"606 524 CURVE SMOOTH",
"606 636 OFFCURVE",
"526 700 OFFCURVE",
"404 700 CURVE SMOOTH",
"174 700 LINE",
"37 0 LINE"
);
},
{
closed = 1;
nodes = (
"208 661 LINE",
"401 661 LINE SMOOTH",
"498 661 OFFCURVE",
"563 611 OFFCURVE",
"563 521 CURVE SMOOTH",
"563 398 OFFCURVE",
"474 330 OFFCURVE",
"345 329 CURVE SMOOTH",
"144 329 LINE"
);
}
);
};
layerId = "047DE625-588D-43A1-AE3A-C97924B5E3D3";
paths = (
{
closed = 1;
nodes = (
"80 0 LINE",
"136 290 LINE",
"336 290 LINE SMOOTH",
"493 290 OFFCURVE",
"606 371 OFFCURVE",
"606 524 CURVE SMOOTH",
"606 636 OFFCURVE",
"526 700 OFFCURVE",
"404 700 CURVE SMOOTH",
"174 700 LINE",
"37 0 LINE"
);
},
{
closed = 1;
nodes = (
"208 661 LINE",
"401 661 LINE SMOOTH",
"498 661 OFFCURVE",
"563 611 OFFCURVE",
"563 521 CURVE SMOOTH",
"563 398 OFFCURVE",
"474 330 OFFCURVE",
"345 329 CURVE SMOOTH",
"144 329 LINE"
);
}
);
width = 603;
},
{
background = {
paths = (
{
closed = 1;
nodes = (
"114 0 LINE",
"167 273 LINE",
"341 273 LINE SMOOTH",
"518 273 OFFCURVE",
"627 366 OFFCURVE",
"627 518 CURVE SMOOTH",
"627 635 OFFCURVE",
"543 700 OFFCURVE",
"414 700 CURVE SMOOTH",
"166 700 LINE",
"29 0 LINE"
);
},
{
closed = 1;
nodes = (
"236 627 LINE",
"400 627 LINE SMOOTH",
"484 627 OFFCURVE",
"541 589 OFFCURVE",
"541 511 CURVE SMOOTH",
"541 405 OFFCURVE",
"464 348 OFFCURVE",
"352 347 CURVE SMOOTH",
"182 347 LINE"
);
}
);
};
layerId = "AB33B01D-3E13-404E-935A-045AA6D07EB8";
paths = (
{
closed = 1;
nodes = (
"114 0 LINE",
"167 273 LINE",
"341 273 LINE SMOOTH",
"518 273 OFFCURVE",
"627 366 OFFCURVE",
"627 518 CURVE SMOOTH",
"627 635 OFFCURVE",
"543 700 OFFCURVE",
"414 700 CURVE SMOOTH",
"166 700 LINE",
"29 0 LINE"
);
},
{
closed = 1;
nodes = (
"236 627 LINE",
"400 627 LINE SMOOTH",
"484 627 OFFCURVE",
"541 589 OFFCURVE",
"541 511 CURVE SMOOTH",
"541 405 OFFCURVE",
"464 348 OFFCURVE",
"352 347 CURVE SMOOTH",
"182 347 LINE"
);
}
);
width = 621;
},
{
background = {
paths = (
{
closed = 1;
nodes = (
"257 0 LINE",
"257 221 LINE",
"377 221 LINE SMOOTH",
"542 221 OFFCURVE",
"653 297 OFFCURVE",
"653 462 CURVE SMOOTH",
"653 633 OFFCURVE",
"533 700 OFFCURVE",
"377 700 CURVE SMOOTH",
"65 700 LINE",
"65 0 LINE"
);
},
{
closed = 1;
nodes = (
"257 552 LINE",
"350 552 LINE SMOOTH",
"419 552 OFFCURVE",
"456 522 OFFCURVE",
"456 460 CURVE SMOOTH",
"456 399 OFFCURVE",
"421 369 OFFCURVE",
"350 369 CURVE SMOOTH",
"257 369 LINE"
);
}
);
};
layerId = "9D32FE6F-9470-45EF-9689-909A6F5CE504";
paths = (
{
closed = 1;
nodes = (
"257 0 LINE",
"257 221 LINE",
"377 221 LINE SMOOTH",
"542 221 OFFCURVE",
"653 297 OFFCURVE",
"653 462 CURVE SMOOTH",
"653 633 OFFCURVE",
"533 700 OFFCURVE",
"377 700 CURVE SMOOTH",
"65 700 LINE",
"65 0 LINE"
);
},
{
closed = 1;
nodes = (
"257 552 LINE",
"350 552 LINE SMOOTH",
"419 552 OFFCURVE",
"456 522 OFFCURVE",
"456 460 CURVE SMOOTH",
"456 399 OFFCURVE",
"421 369 OFFCURVE",
"350 369 CURVE SMOOTH",
"257 369 LINE"
);
}
);
width = 672;
},
{
background = {
paths = (
{
closed = 1;
nodes = (
"196 0 LINE",
"239 221 LINE",
"362 221 LINE SMOOTH",
"539 221 OFFCURVE",
"676 316 OFFCURVE",
"676 494 CURVE SMOOTH",
"676 615 OFFCURVE",
"592 700 OFFCURVE",
"442 700 CURVE SMOOTH",
"141 700 LINE",
"5 0 LINE"
);
},
{
closed = 1;
nodes = (
"303 553 LINE",
"388 553 LINE SMOOTH",
"446 553 OFFCURVE",
"482 530 OFFCURVE",
"482 480 CURVE SMOOTH",
"482 410 OFFCURVE",
"431 368 OFFCURVE",
"356 368 CURVE SMOOTH",
"268 368 LINE"
);
}
);
};
layerId = "69B5B248-E33C-46C9-9D9F-11585640C213";
paths = (
{
closed = 1;
nodes = (
"196 0 LINE",
"239 221 LINE",
"362 221 LINE SMOOTH",
"539 221 OFFCURVE",
"676 316 OFFCURVE",
"676 494 CURVE SMOOTH",
"676 615 OFFCURVE",
"592 700 OFFCURVE",
"442 700 CURVE SMOOTH",
"141 700 LINE",
"5 0 LINE"
);
},
{
closed = 1;
nodes = (
"303 553 LINE",
"388 553 LINE SMOOTH",
"446 553 OFFCURVE",
"482 530 OFFCURVE",
"482 480 CURVE SMOOTH",
"482 410 OFFCURVE",
"431 368 OFFCURVE",
"356 368 CURVE SMOOTH",
"268 368 LINE"
);
}
);
width = 664;
}
);
note = P;
unicode = 0050;
},
{
color = 5;
glyphname = Q;
lastChange = "2022-01-20 12:19:35 +0000";
layers = (
{
background = {
components = (
{
name = O;
}
);
paths = (
{
closed = 1;
nodes = (
"668 -18 LINE",
"591 75 LINE",
"517 30 LINE",
"603 -72 LINE"
);
}
);
};
components = (
{
name = O;
}
);
layerId = "30E869CF-9A31-4D47-9626-61B8364FC2DA";
paths = (
{
closed = 1;
nodes = (
"668 -18 LINE",
"591 75 LINE",
"517 30 LINE",
"603 -72 LINE"
);
}
);
width = 775;
},
{
background = {
components = (
{
name = O;
}
);
paths = (
{
closed = 1;
nodes = (
"649 -26 LINE",
"574 64 LINE",
"536 39 LINE",
"614 -55 LINE"
);
}
);
};
components = (
{
name = O;
}
);
layerId = "18A01495-E50D-4F2B-A1D8-5C332C731D93";
paths = (
{
closed = 1;
nodes = (
"649 -26 LINE",
"574 64 LINE",
"536 39 LINE",
"614 -55 LINE"
);
}
);
width = 765;
},
{
background = {
components = (
{
name = O;
}
);
paths = (
{
closed = 1;
nodes = (
"612 -79 LINE",
"519 52 LINE",
"483 33 LINE",
"571 -91 LINE"
);
}
);
};
components = (
{
name = O;
}
);
layerId = "047DE625-588D-43A1-AE3A-C97924B5E3D3";
paths = (
{
closed = 1;
nodes = (
"612 -79 LINE",
"519 52 LINE",
"483 33 LINE",
"571 -91 LINE"
);
}
);
width = 753;
},
{
background = {
components = (
{
name = O;
}
);
paths = (
{
closed = 1;
nodes = (
"636 -70 LINE",
"543 69 LINE",
"473 31 LINE",
"556 -94 LINE"
);
}
);
};
components = (
{
name = O;
}
);
layerId = "AB33B01D-3E13-404E-935A-045AA6D07EB8";
paths = (
{
closed = 1;
nodes = (
"636 -70 LINE",
"543 69 LINE",
"473 31 LINE",
"556 -94 LINE"
);
}
);
width = 762;
},
{
background = {
components = (
{
name = O;
}
);
paths = (
{
closed = 1;
nodes = (
"750 -39 LINE",
"643 93 LINE",
"502 19 LINE",
"593 -88 LINE"
);
}
);
};
components = (
{
name = O;
}
);
layerId = "9D32FE6F-9470-45EF-9689-909A6F5CE504";
paths = (
{
closed = 1;
nodes = (
"750 -39 LINE",
"643 93 LINE",
"502 19 LINE",
"593 -88 LINE"
);
}
);
width = 795;
},
{
background = {
components = (
{
name = O;
}
);
paths = (
{
closed = 1;
nodes = (
"696 -44 LINE",
"611 95 LINE",
"470 21 LINE",
"542 -89 LINE"
);
}
);
};
components = (
{
name = O;
}
);
layerId = "69B5B248-E33C-46C9-9D9F-11585640C213";
paths = (
{
closed = 1;
nodes = (
"696 -44 LINE",
"611 95 LINE",
"470 21 LINE",
"542 -89 LINE"
);
}
);
width = 785;
}
);
leftKerningGroup = C;
note = Q;
unicode = 0051;
},
{
color = 5;
glyphname = R;
lastChange = "2022-01-20 12:19:35 +0000";
layers = (
{
background = {
paths = (
{
closed = 1;
nodes = (
"178 0 LINE",
"178 295 LINE",
"376 295 LINE SMOOTH",
"548 295 OFFCURVE",
"619 388 OFFCURVE",
"619 498 CURVE SMOOTH",
"619 628 OFFCURVE",
"529 700 OFFCURVE",
"383 700 CURVE SMOOTH",
"88 700 LINE",
"88 0 LINE"
);
},
{
closed = 1;
nodes = (
"643 0 LINE",
"455 319 LINE",
"357 309 LINE",
"539 0 LINE"
);
},
{
closed = 1;
nodes = (
"178 620 LINE",
"379 620 LINE SMOOTH",
"471 620 OFFCURVE",
"529 581 OFFCURVE",
"529 497 CURVE SMOOTH",
"529 415 OFFCURVE",
"472 375 OFFCURVE",
"379 375 CURVE SMOOTH",
"178 375 LINE"
);
}
);
};
layerId = "30E869CF-9A31-4D47-9626-61B8364FC2DA";
paths = (
{
closed = 1;
nodes = (
"178 0 LINE",
"178 295 LINE",
"376 295 LINE SMOOTH",
"548 295 OFFCURVE",
"619 388 OFFCURVE",
"619 498 CURVE SMOOTH",
"619 628 OFFCURVE",
"529 700 OFFCURVE",
"383 700 CURVE SMOOTH",
"88 700 LINE",
"88 0 LINE"
);
},
{
closed = 1;
nodes = (
"643 0 LINE",
"455 319 LINE",
"357 309 LINE",
"539 0 LINE"
);
},
{
closed = 1;
nodes = (
"178 620 LINE",
"379 620 LINE SMOOTH",
"471 620 OFFCURVE",
"529 581 OFFCURVE",
"529 497 CURVE SMOOTH",
"529 415 OFFCURVE",
"472 375 OFFCURVE",
"379 375 CURVE SMOOTH",
"178 375 LINE"
);
}
);
width = 682;
},
{
background = {
paths = (
{
closed = 1;
nodes = (
"141 0 LINE",
"141 318 LINE",
"381 318 LINE SMOOTH",
"516 318 OFFCURVE",
"595 400 OFFCURVE",
"595 509 CURVE SMOOTH",
"595 624 OFFCURVE",
"515 700 OFFCURVE",
"375 700 CURVE SMOOTH",
"96 700 LINE",
"96 0 LINE"
);
},
{
closed = 1;
nodes = (
"617 0 LINE",
"414 331 LINE",
"366 328 LINE",
"567 0 LINE"
);
},
{
closed = 1;
nodes = (
"141 660 LINE",
"372 660 LINE SMOOTH",
"485 660 OFFCURVE",
"550 604 OFFCURVE",
"550 509 CURVE SMOOTH",
"550 415 OFFCURVE",
"487 358 OFFCURVE",
"372 358 CURVE SMOOTH",
"141 358 LINE"
);
}
);
};
layerId = "18A01495-E50D-4F2B-A1D8-5C332C731D93";
paths = (
{
closed = 1;
nodes = (
"141 0 LINE",
"141 318 LINE",
"381 318 LINE SMOOTH",
"516 318 OFFCURVE",
"595 400 OFFCURVE",
"595 509 CURVE SMOOTH",
"595 624 OFFCURVE",
"515 700 OFFCURVE",
"375 700 CURVE SMOOTH",
"96 700 LINE",
"96 0 LINE"
);
},
{
closed = 1;
nodes = (
"617 0 LINE",
"414 331 LINE",
"366 328 LINE",
"567 0 LINE"
);
},
{
closed = 1;
nodes = (
"141 660 LINE",
"372 660 LINE SMOOTH",
"485 660 OFFCURVE",
"550 604 OFFCURVE",
"550 509 CURVE SMOOTH",
"550 415 OFFCURVE",
"487 358 OFFCURVE",
"372 358 CURVE SMOOTH",
"141 358 LINE"
);
}
);
width = 661;
},
{
background = {
paths = (
{
closed = 1;
nodes = (
"79 0 LINE",
"140 315 LINE",
"374 315 LINE SMOOTH",
"520 315 OFFCURVE",
"630 396 OFFCURVE",
"630 534 CURVE SMOOTH",
"630 633 OFFCURVE",
"557 700 OFFCURVE",
"437 700 CURVE SMOOTH",
"173 700 LINE",
"37 0 LINE"
);
},
{
closed = 1;
nodes = (
"549 0 LINE",
"412 329 LINE",
"368 325 LINE",
"504 0 LINE"
);
},
{
closed = 1;
nodes = (
"207 661 LINE",
"430 661 LINE SMOOTH",
"527 661 OFFCURVE",
"587 615 OFFCURVE",
"587 531 CURVE SMOOTH",
"587 417 OFFCURVE",
"496 354 OFFCURVE",
"376 354 CURVE SMOOTH",
"148 354 LINE"
);
}
);
};
layerId = "047DE625-588D-43A1-AE3A-C97924B5E3D3";
paths = (
{
closed = 1;
nodes = (
"79 0 LINE",
"140 315 LINE",
"374 315 LINE SMOOTH",
"520 315 OFFCURVE",
"630 396 OFFCURVE",
"630 534 CURVE SMOOTH",
"630 633 OFFCURVE",
"557 700 OFFCURVE",
"437 700 CURVE SMOOTH",
"173 700 LINE",
"37 0 LINE"
);
},
{
closed = 1;
nodes = (
"549 0 LINE",
"412 329 LINE",
"368 325 LINE",
"504 0 LINE"
);
},
{
closed = 1;
nodes = (
"207 661 LINE",
"430 661 LINE SMOOTH",
"527 661 OFFCURVE",
"587 615 OFFCURVE",
"587 531 CURVE SMOOTH",
"587 417 OFFCURVE",
"496 354 OFFCURVE",
"376 354 CURVE SMOOTH",
"148 354 LINE"
);
}
);
width = 651;
},
{
background = {
paths = (
{
closed = 1;
nodes = (
"113 0 LINE",
"171 297 LINE",
"373 297 LINE SMOOTH",
"557 297 OFFCURVE",
"649 399 OFFCURVE",
"649 528 CURVE SMOOTH",
"649 631 OFFCURVE",
"572 700 OFFCURVE",
"445 700 CURVE SMOOTH",
"166 700 LINE",
"29 0 LINE"
);
},
{
closed = 1;
nodes = (
"571 0 LINE",
"446 321 LINE",
"360 312 LINE",
"481 0 LINE"
);
},
{
closed = 1;
nodes = (
"235 627 LINE",
"430 627 LINE SMOOTH",
"512 627 OFFCURVE",
"563 591 OFFCURVE",
"563 520 CURVE SMOOTH",
"563 423 OFFCURVE",
"487 369 OFFCURVE",
"384 369 CURVE SMOOTH",
"185 369 LINE"
);
}
);
};
layerId = "AB33B01D-3E13-404E-935A-045AA6D07EB8";
paths = (
{
closed = 1;
nodes = (
"113 0 LINE",
"171 297 LINE",
"373 297 LINE SMOOTH",
"557 297 OFFCURVE",
"649 399 OFFCURVE",
"649 528 CURVE SMOOTH",
"649 631 OFFCURVE",
"572 700 OFFCURVE",
"445 700 CURVE SMOOTH",
"166 700 LINE",
"29 0 LINE"
);
},
{
closed = 1;
nodes = (
"571 0 LINE",
"446 321 LINE",
"360 312 LINE",
"481 0 LINE"
);
},
{
closed = 1;
nodes = (
"235 627 LINE",
"430 627 LINE SMOOTH",
"512 627 OFFCURVE",
"563 591 OFFCURVE",
"563 520 CURVE SMOOTH",
"563 423 OFFCURVE",
"487 369 OFFCURVE",
"384 369 CURVE SMOOTH",
"185 369 LINE"
);
}
);
width = 669;
},
{
background = {
paths = (
{
closed = 1;
nodes = (
"255 0 LINE",
"255 243 LINE",
"381 243 LINE SMOOTH",
"630 243 OFFCURVE",
"669 381 OFFCURVE",
"669 479 CURVE SMOOTH",
"669 622 OFFCURVE",
"574 700 OFFCURVE",
"402 700 CURVE SMOOTH",
"65 700 LINE",
"65 0 LINE"
);
},
{
closed = 1;
nodes = (
"694 0 LINE",
"536 295 LINE",
"346 257 LINE",
"480 0 LINE"
);
},
{
closed = 1;
nodes = (
"255 552 LINE",
"374 552 LINE SMOOTH",
"435 552 OFFCURVE",
"472 524 OFFCURVE",
"472 468 CURVE SMOOTH",
"472 413 OFFCURVE",
"436 386 OFFCURVE",
"374 386 CURVE SMOOTH",
"255 386 LINE"
);
}
);
};
layerId = "9D32FE6F-9470-45EF-9689-909A6F5CE504";
paths = (
{
closed = 1;
nodes = (
"255 0 LINE",
"255 243 LINE",
"381 243 LINE SMOOTH",
"630 243 OFFCURVE",
"669 381 OFFCURVE",
"669 479 CURVE SMOOTH",
"669 622 OFFCURVE",
"574 700 OFFCURVE",
"402 700 CURVE SMOOTH",
"65 700 LINE",
"65 0 LINE"
);
},
{
closed = 1;
nodes = (
"694 0 LINE",
"536 295 LINE",
"346 257 LINE",
"480 0 LINE"
);
},
{
closed = 1;
nodes = (
"255 552 LINE",
"374 552 LINE SMOOTH",
"435 552 OFFCURVE",
"472 524 OFFCURVE",
"472 468 CURVE SMOOTH",
"472 413 OFFCURVE",
"436 386 OFFCURVE",
"374 386 CURVE SMOOTH",
"255 386 LINE"
);
}
);
width = 715;
},
{
background = {
paths = (
{
closed = 1;
nodes = (
"195 0 LINE",
"243 244 LINE",
"351 244 LINE SMOOTH",
"621 244 OFFCURVE",
"693 386 OFFCURVE",
"693 503 CURVE SMOOTH",
"693 626 OFFCURVE",
"602 700 OFFCURVE",
"456 700 CURVE SMOOTH",
"141 700 LINE",
"5 0 LINE"
);
},
{
closed = 1;
nodes = (
"623 0 LINE",
"523 289 LINE",
"339 259 LINE",
"423 0 LINE"
);
},
{
closed = 1;
nodes = (
"302 553 LINE",
"415 553 LINE SMOOTH",
"467 553 OFFCURVE",
"499 531 OFFCURVE",
"499 483 CURVE SMOOTH",
"499 423 OFFCURVE",
"451 385 OFFCURVE",
"386 385 CURVE SMOOTH",
"270 385 LINE"
);
}
);
};
layerId = "69B5B248-E33C-46C9-9D9F-11585640C213";
paths = (
{
closed = 1;
nodes = (
"195 0 LINE",
"243 244 LINE",
"351 244 LINE SMOOTH",
"621 244 OFFCURVE",
"693 386 OFFCURVE",
"693 503 CURVE SMOOTH",
"693 626 OFFCURVE",
"602 700 OFFCURVE",
"456 700 CURVE SMOOTH",
"141 700 LINE",
"5 0 LINE"
);
},
{
closed = 1;
nodes = (
"623 0 LINE",
"523 289 LINE",
"339 259 LINE",
"423 0 LINE"
);
},
{
closed = 1;
nodes = (
"302 553 LINE",
"415 553 LINE SMOOTH",
"467 553 OFFCURVE",
"499 531 OFFCURVE",
"499 483 CURVE SMOOTH",
"499 423 OFFCURVE",
"451 385 OFFCURVE",
"386 385 CURVE SMOOTH",
"270 385 LINE"
);
}
);
width = 705;
}
);
note = R;
rightKerningGroup = R;
unicode = 0052;
},
{
color = 5;
glyphname = S;
lastChange = "2022-01-20 12:19:35 +0000";
layers = (
{
background = {
paths = (
{
closed = 1;
nodes = (
"475 -10 OFFCURVE",
"588 67 OFFCURVE",
"588 193 CURVE SMOOTH",
"588 298 OFFCURVE",
"517 355 OFFCURVE",
"403 382 CURVE SMOOTH",
"266 414 LINE SMOOTH",
"192 431 OFFCURVE",
"154 461 OFFCURVE",
"154 516 CURVE SMOOTH",
"154 586 OFFCURVE",
"228 630 OFFCURVE",
"315 630 CURVE SMOOTH",
"405 630 OFFCURVE",
"473 587 OFFCURVE",
"483 502 CURVE",
"573 502 LINE",
"565 634 OFFCURVE",
"456 710 OFFCURVE",
"314 710 CURVE SMOOTH",
"176 710 OFFCURVE",
"64 631 OFFCURVE",
"64 512 CURVE SMOOTH",
"64 412 OFFCURVE",
"130 353 OFFCURVE",
"239 328 CURVE SMOOTH",
"372 297 LINE SMOOTH",
"451 279 OFFCURVE",
"498 246 OFFCURVE",
"498 188 CURVE SMOOTH",
"498 116 OFFCURVE",
"424 70 OFFCURVE",
"324 70 CURVE SMOOTH",
"220 70 OFFCURVE",
"142 120 OFFCURVE",
"132 212 CURVE",
"42 212 LINE",
"52 69 OFFCURVE",
"162 -10 OFFCURVE",
"323 -10 CURVE SMOOTH"
);
}
);
};
layerId = "30E869CF-9A31-4D47-9626-61B8364FC2DA";
paths = (
{
closed = 1;
nodes = (
"475 -10 OFFCURVE",
"588 67 OFFCURVE",
"588 193 CURVE SMOOTH",
"588 298 OFFCURVE",
"517 355 OFFCURVE",
"403 382 CURVE SMOOTH",
"266 414 LINE SMOOTH",
"192 431 OFFCURVE",
"154 461 OFFCURVE",
"154 516 CURVE SMOOTH",
"154 586 OFFCURVE",
"228 630 OFFCURVE",
"315 630 CURVE SMOOTH",
"405 630 OFFCURVE",
"473 587 OFFCURVE",
"483 502 CURVE",
"573 502 LINE",
"565 634 OFFCURVE",
"456 710 OFFCURVE",
"314 710 CURVE SMOOTH",
"176 710 OFFCURVE",
"64 631 OFFCURVE",
"64 512 CURVE SMOOTH",
"64 412 OFFCURVE",
"130 353 OFFCURVE",
"239 328 CURVE SMOOTH",
"372 297 LINE SMOOTH",
"451 279 OFFCURVE",
"498 246 OFFCURVE",
"498 188 CURVE SMOOTH",
"498 116 OFFCURVE",
"424 70 OFFCURVE",
"324 70 CURVE SMOOTH",
"220 70 OFFCURVE",
"142 120 OFFCURVE",
"132 212 CURVE",
"42 212 LINE",
"52 69 OFFCURVE",
"162 -10 OFFCURVE",
"323 -10 CURVE SMOOTH"
);
}
);
width = 636;
},
{
background = {
paths = (
{
closed = 1;
nodes = (
"441 -10 OFFCURVE",
"566 55 OFFCURVE",
"566 182 CURVE SMOOTH",
"566 282 OFFCURVE",
"493 330 OFFCURVE",
"389 356 CURVE SMOOTH",
"249 391 LINE SMOOTH",
"173 410 OFFCURVE",
"116 446 OFFCURVE",
"116 523 CURVE SMOOTH",
"116 610 OFFCURVE",
"201 670 OFFCURVE",
"310 670 CURVE SMOOTH",
"416 670 OFFCURVE",
"496 615 OFFCURVE",
"506 508 CURVE",
"551 508 LINE",
"541 636 OFFCURVE",
"444 710 OFFCURVE",
"310 710 CURVE SMOOTH",
"172 710 OFFCURVE",
"71 629 OFFCURVE",
"71 522 CURVE SMOOTH",
"71 425 OFFCURVE",
"136 376 OFFCURVE",
"237 350 CURVE SMOOTH",
"375 315 LINE SMOOTH",
"450 296 OFFCURVE",
"521 264 OFFCURVE",
"521 180 CURVE SMOOTH",
"521 78 OFFCURVE",
"418 30 OFFCURVE",
"311 30 CURVE SMOOTH",
"189 30 OFFCURVE",
"103 86 OFFCURVE",
"93 203 CURVE",
"48 203 LINE",
"59 60 OFFCURVE",
"164 -10 OFFCURVE",
"311 -10 CURVE SMOOTH"
);
}
);
};
layerId = "18A01495-E50D-4F2B-A1D8-5C332C731D93";
paths = (
{
closed = 1;
nodes = (
"441 -10 OFFCURVE",
"566 55 OFFCURVE",
"566 182 CURVE SMOOTH",
"566 282 OFFCURVE",
"493 330 OFFCURVE",
"389 356 CURVE SMOOTH",
"249 391 LINE SMOOTH",
"173 410 OFFCURVE",
"116 446 OFFCURVE",
"116 523 CURVE SMOOTH",
"116 610 OFFCURVE",
"201 670 OFFCURVE",
"310 670 CURVE SMOOTH",
"416 670 OFFCURVE",
"496 615 OFFCURVE",
"506 508 CURVE",
"551 508 LINE",
"541 636 OFFCURVE",
"444 710 OFFCURVE",
"310 710 CURVE SMOOTH",
"172 710 OFFCURVE",
"71 629 OFFCURVE",
"71 522 CURVE SMOOTH",
"71 425 OFFCURVE",
"136 376 OFFCURVE",
"237 350 CURVE SMOOTH",
"375 315 LINE SMOOTH",
"450 296 OFFCURVE",
"521 264 OFFCURVE",
"521 180 CURVE SMOOTH",
"521 78 OFFCURVE",
"418 30 OFFCURVE",
"311 30 CURVE SMOOTH",
"189 30 OFFCURVE",
"103 86 OFFCURVE",
"93 203 CURVE",
"48 203 LINE",
"59 60 OFFCURVE",
"164 -10 OFFCURVE",
"311 -10 CURVE SMOOTH"
);
}
);
width = 619;
},
{
background = {
paths = (
{
closed = 1;
nodes = (
"413 -12 OFFCURVE",
"539 58 OFFCURVE",
"539 183 CURVE SMOOTH",
"539 272 OFFCURVE",
"480 321 OFFCURVE",
"392 351 CURVE SMOOTH",
"273 393 LINE SMOOTH",
"205 417 OFFCURVE",
"159 451 OFFCURVE",
"159 520 CURVE SMOOTH",
"159 623 OFFCURVE",
"263 671 OFFCURVE",
"356 671 CURVE SMOOTH",
"460 671 OFFCURVE",
"538 617 OFFCURVE",
"541 508 CURVE",
"585 508 LINE",
"584 635 OFFCURVE",
"488 710 OFFCURVE",
"357 710 CURVE SMOOTH",
"242 710 OFFCURVE",
"116 646 OFFCURVE",
"116 517 CURVE SMOOTH",
"116 430 OFFCURVE",
"171 384 OFFCURVE",
"255 355 CURVE SMOOTH",
"370 315 LINE SMOOTH",
"444 288 OFFCURVE",
"496 252 OFFCURVE",
"496 179 CURVE SMOOTH",
"496 81 OFFCURVE",
"387 28 OFFCURVE",
"285 28 CURVE SMOOTH",
"166 28 OFFCURVE",
"77 89 OFFCURVE",
"74 201 CURVE",
"30 201 LINE",
"33 62 OFFCURVE",
"140 -12 OFFCURVE",
"283 -12 CURVE SMOOTH"
);
}
);
};
layerId = "047DE625-588D-43A1-AE3A-C97924B5E3D3";
paths = (
{
closed = 1;
nodes = (
"413 -12 OFFCURVE",
"539 58 OFFCURVE",
"539 183 CURVE SMOOTH",
"539 272 OFFCURVE",
"480 321 OFFCURVE",
"392 351 CURVE SMOOTH",
"273 393 LINE SMOOTH",
"205 417 OFFCURVE",
"159 451 OFFCURVE",
"159 520 CURVE SMOOTH",
"159 623 OFFCURVE",
"263 671 OFFCURVE",
"356 671 CURVE SMOOTH",
"460 671 OFFCURVE",
"538 617 OFFCURVE",
"541 508 CURVE",
"585 508 LINE",
"584 635 OFFCURVE",
"488 710 OFFCURVE",
"357 710 CURVE SMOOTH",
"242 710 OFFCURVE",
"116 646 OFFCURVE",
"116 517 CURVE SMOOTH",
"116 430 OFFCURVE",
"171 384 OFFCURVE",
"255 355 CURVE SMOOTH",
"370 315 LINE SMOOTH",
"444 288 OFFCURVE",
"496 252 OFFCURVE",
"496 179 CURVE SMOOTH",
"496 81 OFFCURVE",
"387 28 OFFCURVE",
"285 28 CURVE SMOOTH",
"166 28 OFFCURVE",
"77 89 OFFCURVE",
"74 201 CURVE",
"30 201 LINE",
"33 62 OFFCURVE",
"140 -12 OFFCURVE",
"283 -12 CURVE SMOOTH"
);
}
);
width = 616;
},
{
background = {
paths = (
{
closed = 1;
nodes = (
"419 -12 OFFCURVE",
"558 54 OFFCURVE",
"558 197 CURVE SMOOTH",
"558 292 OFFCURVE",
"492 347 OFFCURVE",
"403 373 CURVE SMOOTH",
"293 408 LINE SMOOTH",
"234 427 OFFCURVE",
"189 456 OFFCURVE",
"189 513 CURVE SMOOTH",
"189 593 OFFCURVE",
"272 637 OFFCURVE",
"361 637 CURVE SMOOTH",
"452 637 OFFCURVE",
"517 593 OFFCURVE",
"519 502 CURVE",
"603 502 LINE",
"606 645 OFFCURVE",
"490 710 OFFCURVE",
"365 710 CURVE SMOOTH",
"212 710 OFFCURVE",
"107 624 OFFCURVE",
"107 506 CURVE SMOOTH",
"107 413 OFFCURVE",
"167 361 OFFCURVE",
"255 333 CURVE SMOOTH",
"360 300 LINE SMOOTH",
"423 279 OFFCURVE",
"474 249 OFFCURVE",
"474 188 CURVE SMOOTH",
"474 99 OFFCURVE",
"373 62 OFFCURVE",
"293 62 CURVE SMOOTH",
"185 62 OFFCURVE",
"111 112 OFFCURVE",
"110 210 CURVE",
"25 210 LINE",
"22 55 OFFCURVE",
"142 -12 OFFCURVE",
"288 -12 CURVE SMOOTH"
);
}
);
};
layerId = "AB33B01D-3E13-404E-935A-045AA6D07EB8";
paths = (
{
closed = 1;
nodes = (
"419 -12 OFFCURVE",
"558 54 OFFCURVE",
"558 197 CURVE SMOOTH",
"558 292 OFFCURVE",
"492 347 OFFCURVE",
"403 373 CURVE SMOOTH",
"293 408 LINE SMOOTH",
"234 427 OFFCURVE",
"189 456 OFFCURVE",
"189 513 CURVE SMOOTH",
"189 593 OFFCURVE",
"272 637 OFFCURVE",
"361 637 CURVE SMOOTH",
"452 637 OFFCURVE",
"517 593 OFFCURVE",
"519 502 CURVE",
"603 502 LINE",
"606 645 OFFCURVE",
"490 710 OFFCURVE",
"365 710 CURVE SMOOTH",
"212 710 OFFCURVE",
"107 624 OFFCURVE",
"107 506 CURVE SMOOTH",
"107 413 OFFCURVE",
"167 361 OFFCURVE",
"255 333 CURVE SMOOTH",
"360 300 LINE SMOOTH",
"423 279 OFFCURVE",
"474 249 OFFCURVE",
"474 188 CURVE SMOOTH",
"474 99 OFFCURVE",
"373 62 OFFCURVE",
"293 62 CURVE SMOOTH",
"185 62 OFFCURVE",
"111 112 OFFCURVE",
"110 210 CURVE",
"25 210 LINE",
"22 55 OFFCURVE",
"142 -12 OFFCURVE",
"288 -12 CURVE SMOOTH"
);
}
);
width = 629;
},
{
background = {
paths = (
{
closed = 1;
nodes = (
"502 -13 OFFCURVE",
"649 61 OFFCURVE",
"649 215 CURVE SMOOTH",
"649 338 OFFCURVE",
"562 398 OFFCURVE",
"432 424 CURVE SMOOTH",
"319 447 LINE SMOOTH",
"264 458 OFFCURVE",
"236 473 OFFCURVE",
"236 508 CURVE SMOOTH",
"236 544 OFFCURVE",
"275 571 OFFCURVE",
"331 571 CURVE SMOOTH",
"393 571 OFFCURVE",
"441 544 OFFCURVE",
"448 484 CURVE",
"637 484 LINE",
"627 650 OFFCURVE",
"482 710 OFFCURVE",
"332 710 CURVE SMOOTH",
"166 710 OFFCURVE",
"46 621 OFFCURVE",
"46 490 CURVE SMOOTH",
"46 371 OFFCURVE",
"131 311 OFFCURVE",
"258 285 CURVE SMOOTH",
"368 263 LINE SMOOTH",
"425 251 OFFCURVE",
"457 234 OFFCURVE",
"457 197 CURVE SMOOTH",
"457 151 OFFCURVE",
"411 129 OFFCURVE",
"351 129 CURVE SMOOTH",
"282 129 OFFCURVE",
"227 162 OFFCURVE",
"221 232 CURVE",
"32 232 LINE",
"41 82 OFFCURVE",
"150 -13 OFFCURVE",
"348 -13 CURVE SMOOTH"
);
}
);
};
layerId = "9D32FE6F-9470-45EF-9689-909A6F5CE504";
paths = (
{
closed = 1;
nodes = (
"502 -13 OFFCURVE",
"649 61 OFFCURVE",
"649 215 CURVE SMOOTH",
"649 338 OFFCURVE",
"562 398 OFFCURVE",
"432 424 CURVE SMOOTH",
"319 447 LINE SMOOTH",
"264 458 OFFCURVE",
"236 473 OFFCURVE",
"236 508 CURVE SMOOTH",
"236 544 OFFCURVE",
"275 571 OFFCURVE",
"331 571 CURVE SMOOTH",
"393 571 OFFCURVE",
"441 544 OFFCURVE",
"448 484 CURVE",
"637 484 LINE",
"627 650 OFFCURVE",
"482 710 OFFCURVE",
"332 710 CURVE SMOOTH",
"166 710 OFFCURVE",
"46 621 OFFCURVE",
"46 490 CURVE SMOOTH",
"46 371 OFFCURVE",
"131 311 OFFCURVE",
"258 285 CURVE SMOOTH",
"368 263 LINE SMOOTH",
"425 251 OFFCURVE",
"457 234 OFFCURVE",
"457 197 CURVE SMOOTH",
"457 151 OFFCURVE",
"411 129 OFFCURVE",
"351 129 CURVE SMOOTH",
"282 129 OFFCURVE",
"227 162 OFFCURVE",
"221 232 CURVE",
"32 232 LINE",
"41 82 OFFCURVE",
"150 -13 OFFCURVE",
"348 -13 CURVE SMOOTH"
);
}
);
width = 682;
},
{
background = {
paths = (
{
closed = 1;
nodes = (
"465 -13 OFFCURVE",
"620 67 OFFCURVE",
"620 229 CURVE SMOOTH",
"620 331 OFFCURVE",
"544 388 OFFCURVE",
"438 417 CURVE SMOOTH",
"344 442 LINE SMOOTH",
"299 454 OFFCURVE",
"270 471 OFFCURVE",
"270 503 CURVE SMOOTH",
"270 545 OFFCURVE",
"316 572 OFFCURVE",
"369 572 CURVE SMOOTH",
"431 572 OFFCURVE",
"476 539 OFFCURVE",
"476 484 CURVE",
"661 484 LINE",
"666 637 OFFCURVE",
"524 710 OFFCURVE",
"381 710 CURVE SMOOTH",
"213 710 OFFCURVE",
"81 619 OFFCURVE",
"81 477 CURVE SMOOTH",
"81 382 OFFCURVE",
"147 321 OFFCURVE",
"254 292 CURVE SMOOTH",
"344 267 LINE SMOOTH",
"395 253 OFFCURVE",
"429 235 OFFCURVE",
"429 200 CURVE SMOOTH",
"429 158 OFFCURVE",
"387 128 OFFCURVE",
"322 128 CURVE SMOOTH",
"252 128 OFFCURVE",
"200 163 OFFCURVE",
"201 232 CURVE",
"15 232 LINE",
"8 84 OFFCURVE",
"123 -13 OFFCURVE",
"311 -13 CURVE SMOOTH"
);
}
);
};
layerId = "69B5B248-E33C-46C9-9D9F-11585640C213";
paths = (
{
closed = 1;
nodes = (
"465 -13 OFFCURVE",
"620 67 OFFCURVE",
"620 229 CURVE SMOOTH",
"620 331 OFFCURVE",
"544 388 OFFCURVE",
"438 417 CURVE SMOOTH",
"344 442 LINE SMOOTH",
"299 454 OFFCURVE",
"270 471 OFFCURVE",
"270 503 CURVE SMOOTH",
"270 545 OFFCURVE",
"316 572 OFFCURVE",
"369 572 CURVE SMOOTH",
"431 572 OFFCURVE",
"476 539 OFFCURVE",
"476 484 CURVE",
"661 484 LINE",
"666 637 OFFCURVE",
"524 710 OFFCURVE",
"381 710 CURVE SMOOTH",
"213 710 OFFCURVE",
"81 619 OFFCURVE",
"81 477 CURVE SMOOTH",
"81 382 OFFCURVE",
"147 321 OFFCURVE",
"254 292 CURVE SMOOTH",
"344 267 LINE SMOOTH",
"395 253 OFFCURVE",
"429 235 OFFCURVE",
"429 200 CURVE SMOOTH",
"429 158 OFFCURVE",
"387 128 OFFCURVE",
"322 128 CURVE SMOOTH",
"252 128 OFFCURVE",
"200 163 OFFCURVE",
"201 232 CURVE",
"15 232 LINE",
"8 84 OFFCURVE",
"123 -13 OFFCURVE",
"311 -13 CURVE SMOOTH"
);
}
);
width = 673;
}
);
leftKerningGroup = S;
note = S;
rightKerningGroup = S;
unicode = 0053;
},
{
color = 5;
glyphname = T;
lastChange = "2022-01-20 12:19:35 +0000";
layers = (
{
background = {
paths = (
{
closed = 1;
nodes = (
"361 0 LINE",
"361 620 LINE",
"603 620 LINE",
"603 700 LINE",
"27 700 LINE",
"27 620 LINE",
"271 620 LINE",
"271 0 LINE"
);
}
);
};
layerId = "30E869CF-9A31-4D47-9626-61B8364FC2DA";
paths = (
{
closed = 1;
nodes = (
"361 0 LINE",
"361 620 LINE",
"603 620 LINE",
"603 700 LINE",
"27 700 LINE",
"27 620 LINE",
"271 620 LINE",
"271 0 LINE"
);
}
);
width = 630;
},
{
background = {
paths = (
{
closed = 1;
nodes = (
"334 0 LINE",
"334 660 LINE",
"595 660 LINE",
"595 700 LINE",
"28 700 LINE",
"28 660 LINE",
"289 660 LINE",
"289 0 LINE"
);
}
);
};
layerId = "18A01495-E50D-4F2B-A1D8-5C332C731D93";
paths = (
{
closed = 1;
nodes = (
"334 0 LINE",
"334 660 LINE",
"595 660 LINE",
"595 700 LINE",
"28 700 LINE",
"28 660 LINE",
"289 660 LINE",
"289 0 LINE"
);
}
);
width = 622;
},
{
background = {
paths = (
{
closed = 1;
nodes = (
"270 0 LINE",
"399 661 LINE",
"655 661 LINE",
"663 700 LINE",
"107 700 LINE",
"99 661 LINE",
"356 661 LINE",
"227 0 LINE"
);
}
);
};
layerId = "047DE625-588D-43A1-AE3A-C97924B5E3D3";
paths = (
{
closed = 1;
nodes = (
"270 0 LINE",
"399 661 LINE",
"655 661 LINE",
"663 700 LINE",
"107 700 LINE",
"99 661 LINE",
"356 661 LINE",
"227 0 LINE"
);
}
);
width = 613;
},
{
background = {
paths = (
{
closed = 1;
nodes = (
"294 0 LINE",
"415 626 LINE",
"655 626 LINE",
"670 700 LINE",
"105 700 LINE",
"90 626 LINE",
"331 626 LINE",
"209 0 LINE"
);
}
);
};
layerId = "AB33B01D-3E13-404E-935A-045AA6D07EB8";
paths = (
{
closed = 1;
nodes = (
"294 0 LINE",
"415 626 LINE",
"655 626 LINE",
"670 700 LINE",
"105 700 LINE",
"90 626 LINE",
"331 626 LINE",
"209 0 LINE"
);
}
);
width = 619;
},
{
background = {
paths = (
{
closed = 1;
nodes = (
"423 0 LINE",
"423 538 LINE",
"634 538 LINE",
"634 700 LINE",
"19 700 LINE",
"19 538 LINE",
"230 538 LINE",
"230 0 LINE"
);
}
);
};
layerId = "9D32FE6F-9470-45EF-9689-909A6F5CE504";
paths = (
{
closed = 1;
nodes = (
"423 0 LINE",
"423 538 LINE",
"634 538 LINE",
"634 700 LINE",
"19 700 LINE",
"19 538 LINE",
"230 538 LINE",
"230 0 LINE"
);
}
);
width = 653;
},
{
background = {
paths = (
{
closed = 1;
nodes = (
"358 0 LINE",
"463 539 LINE",
"669 539 LINE",
"701 700 LINE",
"96 700 LINE",
"64 539 LINE",
"271 539 LINE",
"166 0 LINE"
);
}
);
};
layerId = "69B5B248-E33C-46C9-9D9F-11585640C213";
paths = (
{
closed = 1;
nodes = (
"358 0 LINE",
"463 539 LINE",
"669 539 LINE",
"701 700 LINE",
"96 700 LINE",
"64 539 LINE",
"271 539 LINE",
"166 0 LINE"
);
}
);
width = 643;
}
);
leftKerningGroup = T;
note = T;
rightKerningGroup = T;
unicode = 0054;
},
{
color = 5;
glyphname = U;
lastChange = "2022-01-20 12:19:35 +0000";
layers = (
{
background = {
paths = (
{
closed = 1;
nodes = (
"515 -10 OFFCURVE",
"629 92 OFFCURVE",
"629 273 CURVE SMOOTH",
"629 700 LINE",
"539 700 LINE",
"539 272 LINE SMOOTH",
"539 147 OFFCURVE",
"469 70 OFFCURVE",
"352 70 CURVE SMOOTH",
"238 70 OFFCURVE",
"165 147 OFFCURVE",
"165 273 CURVE SMOOTH",
"165 700 LINE",
"75 700 LINE",
"75 272 LINE SMOOTH",
"75 93 OFFCURVE",
"187 -10 OFFCURVE",
"352 -10 CURVE SMOOTH"
);
}
);
};
layerId = "30E869CF-9A31-4D47-9626-61B8364FC2DA";
paths = (
{
closed = 1;
nodes = (
"515 -10 OFFCURVE",
"629 92 OFFCURVE",
"629 273 CURVE SMOOTH",
"629 700 LINE",
"539 700 LINE",
"539 272 LINE SMOOTH",
"539 147 OFFCURVE",
"469 70 OFFCURVE",
"352 70 CURVE SMOOTH",
"238 70 OFFCURVE",
"165 147 OFFCURVE",
"165 273 CURVE SMOOTH",
"165 700 LINE",
"75 700 LINE",
"75 272 LINE SMOOTH",
"75 93 OFFCURVE",
"187 -10 OFFCURVE",
"352 -10 CURVE SMOOTH"
);
}
);
width = 704;
},
{
background = {
paths = (
{
closed = 1;
nodes = (
"504 -10 OFFCURVE",
"604 102 OFFCURVE",
"604 262 CURVE SMOOTH",
"604 700 LINE",
"559 700 LINE",
"559 264 LINE SMOOTH",
"559 121 OFFCURVE",
"472 30 OFFCURVE",
"343 30 CURVE SMOOTH",
"215 30 OFFCURVE",
"126 120 OFFCURVE",
"126 264 CURVE SMOOTH",
"126 700 LINE",
"81 700 LINE",
"81 262 LINE SMOOTH",
"81 88 OFFCURVE",
"193 -10 OFFCURVE",
"343 -10 CURVE SMOOTH"
);
}
);
};
layerId = "18A01495-E50D-4F2B-A1D8-5C332C731D93";
paths = (
{
closed = 1;
nodes = (
"504 -10 OFFCURVE",
"604 102 OFFCURVE",
"604 262 CURVE SMOOTH",
"604 700 LINE",
"559 700 LINE",
"559 264 LINE SMOOTH",
"559 121 OFFCURVE",
"472 30 OFFCURVE",
"343 30 CURVE SMOOTH",
"215 30 OFFCURVE",
"126 120 OFFCURVE",
"126 264 CURVE SMOOTH",
"126 700 LINE",
"81 700 LINE",
"81 262 LINE SMOOTH",
"81 88 OFFCURVE",
"193 -10 OFFCURVE",
"343 -10 CURVE SMOOTH"
);
}
);
width = 685;
},
{
background = {
paths = (
{
closed = 1;
nodes = (
"447 -12 OFFCURVE",
"551 81 OFFCURVE",
"585 256 CURVE SMOOTH",
"671 700 LINE",
"628 700 LINE",
"542 257 LINE SMOOTH",
"514 114 OFFCURVE",
"426 28 OFFCURVE",
"297 28 CURVE SMOOTH",
"153 28 OFFCURVE",
"91 131 OFFCURVE",
"116 259 CURVE SMOOTH",
"201 700 LINE",
"158 700 LINE",
"74 264 LINE SMOOTH",
"45 113 OFFCURVE",
"121 -12 OFFCURVE",
"292 -12 CURVE SMOOTH"
);
}
);
};
layerId = "047DE625-588D-43A1-AE3A-C97924B5E3D3";
paths = (
{
closed = 1;
nodes = (
"447 -12 OFFCURVE",
"551 81 OFFCURVE",
"585 256 CURVE SMOOTH",
"671 700 LINE",
"628 700 LINE",
"542 257 LINE SMOOTH",
"514 114 OFFCURVE",
"426 28 OFFCURVE",
"297 28 CURVE SMOOTH",
"153 28 OFFCURVE",
"91 131 OFFCURVE",
"116 259 CURVE SMOOTH",
"201 700 LINE",
"158 700 LINE",
"74 264 LINE SMOOTH",
"45 113 OFFCURVE",
"121 -12 OFFCURVE",
"292 -12 CURVE SMOOTH"
);
}
);
width = 675;
},
{
background = {
paths = (
{
closed = 1;
nodes = (
"468 -12 OFFCURVE",
"572 82 OFFCURVE",
"608 263 CURVE SMOOTH",
"694 700 LINE",
"609 700 LINE",
"524 266 LINE SMOOTH",
"499 136 OFFCURVE",
"418 65 OFFCURVE",
"309 65 CURVE SMOOTH",
"182 65 OFFCURVE",
"133 155 OFFCURVE",
"156 276 CURVE SMOOTH",
"238 700 LINE",
"153 700 LINE",
"71 276 LINE SMOOTH",
"39 113 OFFCURVE",
"122 -12 OFFCURVE",
"305 -12 CURVE SMOOTH"
);
}
);
};
layerId = "AB33B01D-3E13-404E-935A-045AA6D07EB8";
paths = (
{
closed = 1;
nodes = (
"468 -12 OFFCURVE",
"572 82 OFFCURVE",
"608 263 CURVE SMOOTH",
"694 700 LINE",
"609 700 LINE",
"524 266 LINE SMOOTH",
"499 136 OFFCURVE",
"418 65 OFFCURVE",
"309 65 CURVE SMOOTH",
"182 65 OFFCURVE",
"133 155 OFFCURVE",
"156 276 CURVE SMOOTH",
"238 700 LINE",
"153 700 LINE",
"71 276 LINE SMOOTH",
"39 113 OFFCURVE",
"122 -12 OFFCURVE",
"305 -12 CURVE SMOOTH"
);
}
);
width = 692;
},
{
background = {
paths = (
{
closed = 1;
nodes = (
"553 -12 OFFCURVE",
"689 75 OFFCURVE",
"689 286 CURVE SMOOTH",
"689 700 LINE",
"496 700 LINE",
"496 291 LINE SMOOTH",
"496 203 OFFCURVE",
"452 151 OFFCURVE",
"374 151 CURVE SMOOTH",
"297 151 OFFCURVE",
"251 202 OFFCURVE",
"251 292 CURVE SMOOTH",
"251 700 LINE",
"58 700 LINE",
"58 286 LINE SMOOTH",
"58 98 OFFCURVE",
"166 -12 OFFCURVE",
"373 -12 CURVE SMOOTH"
);
}
);
};
layerId = "9D32FE6F-9470-45EF-9689-909A6F5CE504";
paths = (
{
closed = 1;
nodes = (
"553 -12 OFFCURVE",
"689 75 OFFCURVE",
"689 286 CURVE SMOOTH",
"689 700 LINE",
"496 700 LINE",
"496 291 LINE SMOOTH",
"496 203 OFFCURVE",
"452 151 OFFCURVE",
"374 151 CURVE SMOOTH",
"297 151 OFFCURVE",
"251 202 OFFCURVE",
"251 292 CURVE SMOOTH",
"251 700 LINE",
"58 700 LINE",
"58 286 LINE SMOOTH",
"58 98 OFFCURVE",
"166 -12 OFFCURVE",
"373 -12 CURVE SMOOTH"
);
}
);
width = 747;
},
{
background = {
paths = (
{
closed = 1;
nodes = (
"512 -12 OFFCURVE",
"635 81 OFFCURVE",
"674 281 CURVE SMOOTH",
"756 700 LINE",
"564 700 LINE",
"484 288 LINE SMOOTH",
"467 200 OFFCURVE",
"421 150 OFFCURVE",
"346 150 CURVE SMOOTH",
"254 150 OFFCURVE",
"230 210 OFFCURVE",
"251 318 CURVE SMOOTH",
"326 700 LINE",
"134 700 LINE",
"59 317 LINE SMOOTH",
"18 108 OFFCURVE",
"137 -12 OFFCURVE",
"323 -12 CURVE SMOOTH"
);
}
);
};
layerId = "69B5B248-E33C-46C9-9D9F-11585640C213";
paths = (
{
closed = 1;
nodes = (
"512 -12 OFFCURVE",
"635 81 OFFCURVE",
"674 281 CURVE SMOOTH",
"756 700 LINE",
"564 700 LINE",
"484 288 LINE SMOOTH",
"467 200 OFFCURVE",
"421 150 OFFCURVE",
"346 150 CURVE SMOOTH",
"254 150 OFFCURVE",
"230 210 OFFCURVE",
"251 318 CURVE SMOOTH",
"326 700 LINE",
"134 700 LINE",
"59 317 LINE SMOOTH",
"18 108 OFFCURVE",
"137 -12 OFFCURVE",
"323 -12 CURVE SMOOTH"
);
}
);
width = 737;
}
);
leftKerningGroup = U;
note = U;
rightKerningGroup = U;
unicode = 0055;
},
{
color = 5;
glyphname = V;
lastChange = "2022-01-20 12:19:35 +0000";
layers = (
{
background = {
paths = (
{
closed = 1;
nodes = (
"383 0 LINE",
"641 700 LINE",
"546 700 LINE",
"328 99 LINE",
"111 700 LINE",
"16 700 LINE",
"273 0 LINE"
);
}
);
};
layerId = "30E869CF-9A31-4D47-9626-61B8364FC2DA";
paths = (
{
closed = 1;
nodes = (
"383 0 LINE",
"641 700 LINE",
"546 700 LINE",
"328 99 LINE",
"111 700 LINE",
"16 700 LINE",
"273 0 LINE"
);
}
);
width = 657;
},
{
background = {
paths = (
{
closed = 1;
nodes = (
"340 0 LINE",
"611 700 LINE",
"566 700 LINE",
"315 49 LINE",
"67 700 LINE",
"22 700 LINE",
"290 0 LINE"
);
}
);
};
layerId = "18A01495-E50D-4F2B-A1D8-5C332C731D93";
paths = (
{
closed = 1;
nodes = (
"340 0 LINE",
"611 700 LINE",
"566 700 LINE",
"315 49 LINE",
"67 700 LINE",
"22 700 LINE",
"290 0 LINE"
);
}
);
width = 633;
},
{
background = {
paths = (
{
closed = 1;
nodes = (
"277 0 LINE",
"679 700 LINE",
"633 700 LINE",
"260 49 LINE",
"141 700 LINE",
"99 700 LINE",
"228 0 LINE"
);
}
);
};
layerId = "047DE625-588D-43A1-AE3A-C97924B5E3D3";
paths = (
{
closed = 1;
nodes = (
"277 0 LINE",
"679 700 LINE",
"633 700 LINE",
"260 49 LINE",
"141 700 LINE",
"99 700 LINE",
"228 0 LINE"
);
}
);
width = 624;
},
{
background = {
paths = (
{
closed = 1;
nodes = (
"313 0 LINE",
"706 700 LINE",
"616 700 LINE",
"278 92 LINE",
"178 700 LINE",
"93 700 LINE",
"214 0 LINE"
);
}
);
};
layerId = "AB33B01D-3E13-404E-935A-045AA6D07EB8";
paths = (
{
closed = 1;
nodes = (
"313 0 LINE",
"706 700 LINE",
"616 700 LINE",
"278 92 LINE",
"178 700 LINE",
"93 700 LINE",
"214 0 LINE"
);
}
);
width = 645;
},
{
background = {
paths = (
{
closed = 1;
nodes = (
"478 0 LINE",
"720 700 LINE",
"522 700 LINE",
"367 209 LINE",
"211 700 LINE",
"6 700 LINE",
"247 0 LINE"
);
}
);
};
layerId = "9D32FE6F-9470-45EF-9689-909A6F5CE504";
paths = (
{
closed = 1;
nodes = (
"478 0 LINE",
"720 700 LINE",
"522 700 LINE",
"367 209 LINE",
"211 700 LINE",
"6 700 LINE",
"247 0 LINE"
);
}
);
width = 725;
},
{
background = {
paths = (
{
closed = 1;
nodes = (
"413 0 LINE",
"786 700 LINE",
"580 700 LINE",
"332 208 LINE",
"275 700 LINE",
"84 700 LINE",
"184 0 LINE"
);
}
);
};
layerId = "69B5B248-E33C-46C9-9D9F-11585640C213";
paths = (
{
closed = 1;
nodes = (
"413 0 LINE",
"786 700 LINE",
"580 700 LINE",
"332 208 LINE",
"275 700 LINE",
"84 700 LINE",
"184 0 LINE"
);
}
);
width = 715;
}
);
note = V;
unicode = 0056;
},
{
color = 5;
glyphname = W;
lastChange = "2022-01-20 12:19:35 +0000";
layers = (
{
background = {
paths = (
{
closed = 1;
nodes = (
"328 0 LINE",
"492 597 LINE",
"656 0 LINE",
"764 0 LINE",
"962 700 LINE",
"873 700 LINE",
"710 106 LINE",
"547 700 LINE",
"441 700 LINE",
"278 106 LINE",
"115 700 LINE",
"22 700 LINE",
"220 0 LINE"
);
}
);
};
layerId = "30E869CF-9A31-4D47-9626-61B8364FC2DA";
paths = (
{
closed = 1;
nodes = (
"328 0 LINE",
"492 597 LINE",
"656 0 LINE",
"764 0 LINE",
"962 700 LINE",
"873 700 LINE",
"710 106 LINE",
"547 700 LINE",
"441 700 LINE",
"278 106 LINE",
"115 700 LINE",
"22 700 LINE",
"220 0 LINE"
);
}
);
width = 984;
},
{
background = {
paths = (
{
closed = 1;
nodes = (
"294 0 LINE",
"486 646 LINE",
"678 0 LINE",
"728 0 LINE",
"945 700 LINE",
"902 700 LINE",
"703 52 LINE",
"512 700 LINE",
"462 700 LINE",
"270 52 LINE",
"71 700 LINE",
"26 700 LINE",
"243 0 LINE"
);
}
);
};
layerId = "18A01495-E50D-4F2B-A1D8-5C332C731D93";
paths = (
{
closed = 1;
nodes = (
"294 0 LINE",
"486 646 LINE",
"678 0 LINE",
"728 0 LINE",
"945 700 LINE",
"902 700 LINE",
"703 52 LINE",
"512 700 LINE",
"462 700 LINE",
"270 52 LINE",
"71 700 LINE",
"26 700 LINE",
"243 0 LINE"
);
}
);
width = 971;
},
{
background = {
paths = (
{
closed = 1;
nodes = (
"230 0 LINE",
"544 645 LINE",
"607 0 LINE",
"656 0 LINE",
"1007 700 LINE",
"962 700 LINE",
"639 52 LINE",
"577 700 LINE",
"530 700 LINE",
"214 53 LINE",
"144 700 LINE",
"103 700 LINE",
"180 0 LINE"
);
}
);
};
layerId = "047DE625-588D-43A1-AE3A-C97924B5E3D3";
paths = (
{
closed = 1;
nodes = (
"230 0 LINE",
"544 645 LINE",
"607 0 LINE",
"656 0 LINE",
"1007 700 LINE",
"962 700 LINE",
"639 52 LINE",
"577 700 LINE",
"530 700 LINE",
"214 53 LINE",
"144 700 LINE",
"103 700 LINE",
"180 0 LINE"
);
}
);
width = 958;
},
{
background = {
paths = (
{
closed = 1;
nodes = (
"261 0 LINE",
"542 601 LINE",
"589 0 LINE",
"690 0 LINE",
"1023 700 LINE",
"937 700 LINE",
"654 97 LINE",
"608 700 LINE",
"510 700 LINE",
"229 97 LINE",
"181 700 LINE",
"99 700 LINE",
"160 0 LINE"
);
}
);
};
layerId = "AB33B01D-3E13-404E-935A-045AA6D07EB8";
paths = (
{
closed = 1;
nodes = (
"261 0 LINE",
"542 601 LINE",
"589 0 LINE",
"690 0 LINE",
"1023 700 LINE",
"937 700 LINE",
"654 97 LINE",
"608 700 LINE",
"510 700 LINE",
"229 97 LINE",
"181 700 LINE",
"99 700 LINE",
"160 0 LINE"
);
}
);
width = 969;
},
{
background = {
paths = (
{
closed = 1;
nodes = (
"407 0 LINE",
"530 476 LINE",
"654 0 LINE",
"860 0 LINE",
"1045 700 LINE",
"857 700 LINE",
"744 234 LINE",
"625 700 LINE",
"440 700 LINE",
"322 238 LINE",
"208 700 LINE",
"14 700 LINE",
"200 0 LINE"
);
}
);
};
layerId = "9D32FE6F-9470-45EF-9689-909A6F5CE504";
paths = (
{
closed = 1;
nodes = (
"407 0 LINE",
"530 476 LINE",
"654 0 LINE",
"860 0 LINE",
"1045 700 LINE",
"857 700 LINE",
"744 234 LINE",
"625 700 LINE",
"440 700 LINE",
"322 238 LINE",
"208 700 LINE",
"14 700 LINE",
"200 0 LINE"
);
}
);
width = 1060;
},
{
background = {
paths = (
{
closed = 1;
nodes = (
"342 0 LINE",
"556 477 LINE",
"584 0 LINE",
"791 0 LINE",
"1110 700 LINE",
"915 700 LINE",
"713 230 LINE",
"687 700 LINE",
"503 700 LINE",
"297 236 LINE",
"276 700 LINE",
"92 700 LINE",
"139 0 LINE"
);
}
);
};
layerId = "69B5B248-E33C-46C9-9D9F-11585640C213";
paths = (
{
closed = 1;
nodes = (
"342 0 LINE",
"556 477 LINE",
"584 0 LINE",
"791 0 LINE",
"1110 700 LINE",
"915 700 LINE",
"713 230 LINE",
"687 700 LINE",
"503 700 LINE",
"297 236 LINE",
"276 700 LINE",
"92 700 LINE",
"139 0 LINE"
);
}
);
width = 1044;
}
);
leftKerningGroup = W;
note = W;
rightKerningGroup = W;
unicode = 0057;
},
{
color = 5;
glyphname = X;
lastChange = "2022-01-20 12:19:35 +0000";
layers = (
{
background = {
paths = (
{
closed = 1;
nodes = (
"121 0 LINE",
"328 284 LINE",
"531 0 LINE",
"643 0 LINE",
"384 354 LINE",
"638 700 LINE",
"531 700 LINE",
"330 419 LINE",
"131 700 LINE",
"20 700 LINE",
"274 349 LINE",
"14 0 LINE"
);
}
);
};
layerId = "30E869CF-9A31-4D47-9626-61B8364FC2DA";
paths = (
{
closed = 1;
nodes = (
"121 0 LINE",
"328 284 LINE",
"531 0 LINE",
"643 0 LINE",
"384 354 LINE",
"638 700 LINE",
"531 700 LINE",
"330 419 LINE",
"131 700 LINE",
"20 700 LINE",
"274 349 LINE",
"14 0 LINE"
);
}
);
width = 657;
},
{
background = {
paths = (
{
closed = 1;
nodes = (
"75 0 LINE",
"319 317 LINE",
"561 0 LINE",
"614 0 LINE",
"346 350 LINE",
"612 700 LINE",
"560 700 LINE",
"320 381 LINE",
"79 700 LINE",
"26 700 LINE",
"292 348 LINE",
"23 0 LINE"
);
}
);
};
layerId = "18A01495-E50D-4F2B-A1D8-5C332C731D93";
paths = (
{
closed = 1;
nodes = (
"75 0 LINE",
"319 317 LINE",
"561 0 LINE",
"614 0 LINE",
"346 350 LINE",
"612 700 LINE",
"560 700 LINE",
"320 381 LINE",
"79 700 LINE",
"26 700 LINE",
"292 348 LINE",
"23 0 LINE"
);
}
);
width = 636;
},
{
background = {
paths = (
{
closed = 1;
nodes = (
"20 0 LINE",
"320 317 LINE",
"496 0 LINE",
"544 0 LINE",
"349 346 LINE",
"682 700 LINE",
"626 700 LINE",
"328 381 LINE",
"151 700 LINE",
"103 700 LINE",
"298 351 LINE",
"-36 0 LINE"
);
}
);
};
layerId = "047DE625-588D-43A1-AE3A-C97924B5E3D3";
paths = (
{
closed = 1;
nodes = (
"20 0 LINE",
"320 317 LINE",
"496 0 LINE",
"544 0 LINE",
"349 346 LINE",
"682 700 LINE",
"626 700 LINE",
"328 381 LINE",
"151 700 LINE",
"103 700 LINE",
"298 351 LINE",
"-36 0 LINE"
);
}
);
width = 627;
},
{
background = {
paths = (
{
closed = 1;
nodes = (
"65 0 LINE",
"326 289 LINE",
"477 0 LINE",
"571 0 LINE",
"385 348 LINE",
"705 700 LINE",
"599 700 LINE",
"341 413 LINE",
"190 700 LINE",
"96 700 LINE",
"282 354 LINE",
"-43 0 LINE"
);
}
);
};
layerId = "AB33B01D-3E13-404E-935A-045AA6D07EB8";
paths = (
{
closed = 1;
nodes = (
"65 0 LINE",
"326 289 LINE",
"477 0 LINE",
"571 0 LINE",
"385 348 LINE",
"705 700 LINE",
"599 700 LINE",
"341 413 LINE",
"190 700 LINE",
"96 700 LINE",
"282 354 LINE",
"-43 0 LINE"
);
}
);
width = 646;
},
{
background = {
paths = (
{
closed = 1;
nodes = (
"226 0 LINE",
"366 214 LINE",
"507 0 LINE",
"737 0 LINE",
"493 355 LINE",
"730 700 LINE",
"512 700 LINE",
"376 490 LINE",
"242 700 LINE",
"12 700 LINE",
"249 352 LINE",
"8 0 LINE"
);
}
);
};
layerId = "9D32FE6F-9470-45EF-9689-909A6F5CE504";
paths = (
{
closed = 1;
nodes = (
"226 0 LINE",
"366 214 LINE",
"507 0 LINE",
"737 0 LINE",
"493 355 LINE",
"730 700 LINE",
"512 700 LINE",
"376 490 LINE",
"242 700 LINE",
"12 700 LINE",
"249 352 LINE",
"8 0 LINE"
);
}
);
width = 744;
},
{
background = {
paths = (
{
closed = 1;
nodes = (
"182 0 LINE",
"358 215 LINE",
"459 0 LINE",
"667 0 LINE",
"495 349 LINE",
"795 700 LINE",
"563 700 LINE",
"391 488 LINE",
"297 700 LINE",
"90 700 LINE",
"255 358 LINE",
"-51 0 LINE"
);
}
);
};
layerId = "69B5B248-E33C-46C9-9D9F-11585640C213";
paths = (
{
closed = 1;
nodes = (
"182 0 LINE",
"358 215 LINE",
"459 0 LINE",
"667 0 LINE",
"495 349 LINE",
"795 700 LINE",
"563 700 LINE",
"391 488 LINE",
"297 700 LINE",
"90 700 LINE",
"255 358 LINE",
"-51 0 LINE"
);
}
);
width = 733;
}
);
leftKerningGroup = X;
note = X;
rightKerningGroup = X;
unicode = 0058;
},
{
color = 5;
glyphname = Y;
lastChange = "2022-01-20 12:19:35 +0000";
layers = (
{
background = {
paths = (
{
closed = 1;
nodes = (
"356 0 LINE",
"356 266 LINE",
"622 700 LINE",
"517 700 LINE",
"310 355 LINE",
"104 700 LINE",
"-1 700 LINE",
"265 266 LINE",
"265 0 LINE"
);
}
);
};
layerId = "30E869CF-9A31-4D47-9626-61B8364FC2DA";
paths = (
{
closed = 1;
nodes = (
"356 0 LINE",
"356 266 LINE",
"622 700 LINE",
"517 700 LINE",
"310 355 LINE",
"104 700 LINE",
"-1 700 LINE",
"265 266 LINE",
"265 0 LINE"
);
}
);
width = 621;
},
{
background = {
paths = (
{
closed = 1;
nodes = (
"325 0 LINE",
"325 268 LINE",
"596 700 LINE",
"546 700 LINE",
"303 309 LINE",
"60 700 LINE",
"10 700 LINE",
"280 268 LINE",
"280 0 LINE"
);
}
);
};
layerId = "18A01495-E50D-4F2B-A1D8-5C332C731D93";
paths = (
{
closed = 1;
nodes = (
"325 0 LINE",
"325 268 LINE",
"596 700 LINE",
"546 700 LINE",
"303 309 LINE",
"60 700 LINE",
"10 700 LINE",
"280 268 LINE",
"280 0 LINE"
);
}
);
width = 605;
},
{
background = {
paths = (
{
closed = 1;
nodes = (
"259 0 LINE",
"311 267 LINE",
"661 701 LINE",
"609 701 LINE",
"295 309 LINE",
"131 700 LINE",
"85 700 LINE",
"269 267 LINE",
"217 0 LINE"
);
}
);
};
layerId = "047DE625-588D-43A1-AE3A-C97924B5E3D3";
paths = (
{
closed = 1;
nodes = (
"259 0 LINE",
"311 267 LINE",
"661 701 LINE",
"609 701 LINE",
"295 309 LINE",
"131 700 LINE",
"85 700 LINE",
"269 267 LINE",
"217 0 LINE"
);
}
);
width = 592;
},
{
background = {
paths = (
{
closed = 1;
nodes = (
"290 0 LINE",
"342 265 LINE",
"687 700 LINE",
"586 700 LINE",
"309 348 LINE",
"169 700 LINE",
"79 700 LINE",
"257 266 LINE",
"205 0 LINE"
);
}
);
};
layerId = "AB33B01D-3E13-404E-935A-045AA6D07EB8";
paths = (
{
closed = 1;
nodes = (
"290 0 LINE",
"342 265 LINE",
"687 700 LINE",
"586 700 LINE",
"309 348 LINE",
"169 700 LINE",
"79 700 LINE",
"257 266 LINE",
"205 0 LINE"
);
}
);
width = 612;
},
{
background = {
paths = (
{
closed = 1;
nodes = (
"446 0 LINE",
"446 256 LINE",
"710 700 LINE",
"496 700 LINE",
"354 441 LINE",
"211 700 LINE",
"-11 700 LINE",
"253 256 LINE",
"253 0 LINE"
);
}
);
};
layerId = "9D32FE6F-9470-45EF-9689-909A6F5CE504";
paths = (
{
closed = 1;
nodes = (
"446 0 LINE",
"446 256 LINE",
"710 700 LINE",
"496 700 LINE",
"354 441 LINE",
"211 700 LINE",
"-11 700 LINE",
"253 256 LINE",
"253 0 LINE"
);
}
);
width = 699;
},
{
background = {
paths = (
{
closed = 1;
nodes = (
"380 0 LINE",
"431 258 LINE",
"775 700 LINE",
"549 700 LINE",
"359 440 LINE",
"270 700 LINE",
"67 700 LINE",
"239 258 LINE",
"188 0 LINE"
);
}
);
};
layerId = "69B5B248-E33C-46C9-9D9F-11585640C213";
paths = (
{
closed = 1;
nodes = (
"380 0 LINE",
"431 258 LINE",
"775 700 LINE",
"549 700 LINE",
"359 440 LINE",
"270 700 LINE",
"67 700 LINE",
"239 258 LINE",
"188 0 LINE"
);
}
);
width = 689;
}
);
leftKerningGroup = Y;
note = Y;
rightKerningGroup = Y;
unicode = 0059;
},
{
color = 5;
glyphname = Z;
lastChange = "2022-01-20 12:19:35 +0000";
layers = (
{
background = {
paths = (
{
closed = 1;
nodes = (
"592 0 LINE",
"592 80 LINE",
"152 80 LINE",
"581 622 LINE",
"581 700 LINE",
"63 700 LINE",
"63 620 LINE",
"471 620 LINE",
"42 78 LINE",
"42 0 LINE"
);
}
);
};
layerId = "30E869CF-9A31-4D47-9626-61B8364FC2DA";
paths = (
{
closed = 1;
nodes = (
"592 0 LINE",
"592 80 LINE",
"152 80 LINE",
"581 622 LINE",
"581 700 LINE",
"63 700 LINE",
"63 620 LINE",
"471 620 LINE",
"42 78 LINE",
"42 0 LINE"
);
}
);
width = 632;
},
{
background = {
paths = (
{
closed = 1;
nodes = (
"575 0 LINE",
"575 40 LINE",
"89 40 LINE",
"564 658 LINE",
"564 700 LINE",
"60 700 LINE",
"60 660 LINE",
"513 660 LINE",
"38 42 LINE",
"38 0 LINE"
);
}
);
};
layerId = "18A01495-E50D-4F2B-A1D8-5C332C731D93";
paths = (
{
closed = 1;
nodes = (
"575 0 LINE",
"575 40 LINE",
"89 40 LINE",
"564 658 LINE",
"564 700 LINE",
"60 700 LINE",
"60 660 LINE",
"513 660 LINE",
"38 42 LINE",
"38 0 LINE"
);
}
);
width = 612;
},
{
background = {
paths = (
{
closed = 1;
nodes = (
"508 0 LINE",
"516 39 LINE",
"43 39 LINE",
"626 661 LINE",
"634 700 LINE",
"138 700 LINE",
"130 661 LINE",
"570 661 LINE",
"-13 40 LINE",
"-21 0 LINE"
);
}
);
};
layerId = "047DE625-588D-43A1-AE3A-C97924B5E3D3";
paths = (
{
closed = 1;
nodes = (
"508 0 LINE",
"516 39 LINE",
"43 39 LINE",
"626 661 LINE",
"634 700 LINE",
"138 700 LINE",
"130 661 LINE",
"570 661 LINE",
"-13 40 LINE",
"-21 0 LINE"
);
}
);
width = 604;
},
{
background = {
paths = (
{
closed = 1;
nodes = (
"523 0 LINE",
"537 74 LINE",
"107 74 LINE",
"634 628 LINE",
"649 700 LINE",
"140 700 LINE",
"126 626 LINE",
"524 626 LINE",
"-3 72 LINE",
"-17 0 LINE"
);
}
);
};
layerId = "AB33B01D-3E13-404E-935A-045AA6D07EB8";
paths = (
{
closed = 1;
nodes = (
"523 0 LINE",
"537 74 LINE",
"107 74 LINE",
"634 628 LINE",
"649 700 LINE",
"140 700 LINE",
"126 626 LINE",
"524 626 LINE",
"-3 72 LINE",
"-17 0 LINE"
);
}
);
width = 622;
},
{
background = {
paths = (
{
closed = 1;
nodes = (
"644 0 LINE",
"644 162 LINE",
"284 162 LINE",
"630 546 LINE",
"630 700 LINE",
"57 700 LINE",
"57 539 LINE",
"389 539 LINE",
"42 155 LINE",
"42 0 LINE"
);
}
);
};
layerId = "9D32FE6F-9470-45EF-9689-909A6F5CE504";
paths = (
{
closed = 1;
nodes = (
"644 0 LINE",
"644 162 LINE",
"284 162 LINE",
"630 546 LINE",
"630 700 LINE",
"57 700 LINE",
"57 539 LINE",
"389 539 LINE",
"42 155 LINE",
"42 0 LINE"
);
}
);
width = 686;
},
{
background = {
paths = (
{
closed = 1;
nodes = (
"575 0 LINE",
"606 161 LINE",
"266 161 LINE",
"668 547 LINE",
"698 700 LINE",
"134 700 LINE",
"103 540 LINE",
"416 540 LINE",
"14 154 LINE",
"-16 0 LINE"
);
}
);
};
layerId = "69B5B248-E33C-46C9-9D9F-11585640C213";
paths = (
{
closed = 1;
nodes = (
"575 0 LINE",
"606 161 LINE",
"266 161 LINE",
"668 547 LINE",
"698 700 LINE",
"134 700 LINE",
"103 540 LINE",
"416 540 LINE",
"14 154 LINE",
"-16 0 LINE"
);
}
);
width = 676;
}
);
leftKerningGroup = Z;
note = Z;
rightKerningGroup = Z;
unicode = 005A;
},
{
glyphname = A.liga;
lastChange = "2022-01-20 12:19:21 +0000";
layers = (
{
background = {
paths = (
{
closed = 1;
nodes = (
"89 0 LINE",
"223 211 LINE",
"493 211 LINE",
"493 0 LINE",
"583 0 LINE",
"583 700 LINE",
"439 700 LINE",
"-11 0 LINE"
);
},
{
closed = 1;
nodes = (
"493 632 LINE",
"493 288 LINE",
"272 288 LINE"
);
}
);
};
layerId = "30E869CF-9A31-4D47-9626-61B8364FC2DA";
paths = (
{
closed = 1;
nodes = (
"89 0 LINE",
"223 211 LINE",
"493 211 LINE",
"493 0 LINE",
"583 0 LINE",
"583 700 LINE",
"439 700 LINE",
"-11 0 LINE"
);
},
{
closed = 1;
nodes = (
"493 632 LINE",
"493 288 LINE",
"272 288 LINE"
);
}
);
width = 665;
},
{
background = {
paths = (
{
closed = 1;
nodes = (
"187 0 LINE",
"272 112 LINE",
"487 112 LINE",
"463 0 LINE",
"699 0 LINE",
"848 700 LINE",
"458 700 LINE",
"-89 0 LINE"
);
},
{
closed = 1;
nodes = (
"571 505 LINE",
"525 290 LINE",
"407 290 LINE"
);
}
);
};
layerId = "69B5B248-E33C-46C9-9D9F-11585640C213";
paths = (
{
closed = 1;
nodes = (
"187 0 LINE",
"272 112 LINE",
"487 112 LINE",
"463 0 LINE",
"699 0 LINE",
"848 700 LINE",
"458 700 LINE",
"-89 0 LINE"
);
},
{
closed = 1;
nodes = (
"571 505 LINE",
"525 290 LINE",
"407 290 LINE"
);
}
);
width = 825;
},
{
background = {
paths = (
{
closed = 1;
nodes = (
"-25 0 LINE",
"197 244 LINE",
"484 244 LINE",
"432 0 LINE",
"474 0 LINE",
"623 700 LINE",
"560 700 LINE",
"-78 0 LINE"
);
},
{
closed = 1;
nodes = (
"573 659 LINE",
"492 281 LINE",
"230 281 LINE"
);
}
);
};
layerId = "047DE625-588D-43A1-AE3A-C97924B5E3D3";
paths = (
{
closed = 1;
nodes = (
"-25 0 LINE",
"197 244 LINE",
"484 244 LINE",
"432 0 LINE",
"474 0 LINE",
"623 700 LINE",
"560 700 LINE",
"-78 0 LINE"
);
},
{
closed = 1;
nodes = (
"573 659 LINE",
"492 281 LINE",
"230 281 LINE"
);
}
);
width = 636;
},
{
background = {
paths = (
{
closed = 1;
nodes = (
"25 0 LINE",
"204 211 LINE",
"466 211 LINE",
"421 0 LINE",
"510 0 LINE",
"659 700 LINE",
"513 700 LINE",
"-86 0 LINE"
);
},
{
closed = 1;
nodes = (
"554 623 LINE",
"483 288 LINE",
"270 288 LINE"
);
}
);
};
layerId = "AB33B01D-3E13-404E-935A-045AA6D07EB8";
paths = (
{
closed = 1;
nodes = (
"25 0 LINE",
"204 211 LINE",
"466 211 LINE",
"421 0 LINE",
"510 0 LINE",
"659 700 LINE",
"513 700 LINE",
"-86 0 LINE"
);
},
{
closed = 1;
nodes = (
"554 623 LINE",
"483 288 LINE",
"270 288 LINE"
);
}
);
width = 667;
},
{
background = {
paths = (
{
closed = 1;
nodes = (
"41 0 LINE",
"213 241 LINE",
"503 241 LINE",
"503 0 LINE",
"548 0 LINE",
"548 700 LINE",
"486 700 LINE",
"-4 0 LINE"
);
},
{
closed = 1;
nodes = (
"503 658 LINE",
"503 281 LINE",
"237 281 LINE"
);
}
);
};
layerId = "18A01495-E50D-4F2B-A1D8-5C332C731D93";
paths = (
{
closed = 1;
nodes = (
"41 0 LINE",
"213 241 LINE",
"503 241 LINE",
"503 0 LINE",
"548 0 LINE",
"548 700 LINE",
"486 700 LINE",
"-4 0 LINE"
);
},
{
closed = 1;
nodes = (
"503 658 LINE",
"503 281 LINE",
"237 281 LINE"
);
}
);
width = 635;
},
{
background = {
paths = (
{
closed = 1;
nodes = (
"201 0 LINE",
"265 122 LINE",
"542 122 LINE",
"542 0 LINE",
"738 0 LINE",
"738 700 LINE",
"388 700 LINE",
"-10 0 LINE"
);
},
{
closed = 1;
nodes = (
"542 595 LINE",
"542 282 LINE",
"358 282 LINE"
);
}
);
};
layerId = "9D32FE6F-9470-45EF-9689-909A6F5CE504";
paths = (
{
closed = 1;
nodes = (
"201 0 LINE",
"265 122 LINE",
"542 122 LINE",
"542 0 LINE",
"738 0 LINE",
"738 700 LINE",
"388 700 LINE",
"-10 0 LINE"
);
},
{
closed = 1;
nodes = (
"542 595 LINE",
"542 282 LINE",
"358 282 LINE"
);
}
);
width = 815;
}
);
leftKerningGroup = AE;
note = A.liga;
rightKerningGroup = H;
},
{
glyphname = V.liga;
lastChange = "2021-09-06 19:22:32 +0000";
layers = (
{
background = {
paths = (
{
closed = 1;
nodes = (
"227 0 LINE",
"676 700 LINE",
"573 700 LINE",
"173 72 LINE",
"173 700 LINE",
"83 700 LINE",
"83 0 LINE"
);
}
);
};
layerId = "30E869CF-9A31-4D47-9626-61B8364FC2DA";
paths = (
{
closed = 1;
nodes = (
"227 0 LINE",
"676 700 LINE",
"573 700 LINE",
"173 72 LINE",
"173 700 LINE",
"83 700 LINE",
"83 0 LINE"
);
}
);
width = 665;
},
{
background = {
paths = (
{
closed = 1;
nodes = (
"368 0 LINE",
"915 700 LINE",
"637 700 LINE",
"259 202 LINE",
"365 700 LINE",
"127 700 LINE",
"-22 0 LINE"
);
}
);
};
layerId = "69B5B248-E33C-46C9-9D9F-11585640C213";
paths = (
{
closed = 1;
nodes = (
"368 0 LINE",
"915 700 LINE",
"637 700 LINE",
"259 202 LINE",
"365 700 LINE",
"127 700 LINE",
"-22 0 LINE"
);
}
);
width = 825;
},
{
background = {
paths = (
{
closed = 1;
nodes = (
"77 0 LINE",
"715 700 LINE",
"661 700 LINE",
"64 43 LINE",
"205 700 LINE",
"163 700 LINE",
"14 0 LINE"
);
}
);
};
layerId = "047DE625-588D-43A1-AE3A-C97924B5E3D3";
paths = (
{
closed = 1;
nodes = (
"77 0 LINE",
"715 700 LINE",
"661 700 LINE",
"64 43 LINE",
"205 700 LINE",
"163 700 LINE",
"14 0 LINE"
);
}
);
width = 636;
},
{
background = {
paths = (
{
closed = 1;
nodes = (
"155 0 LINE",
"754 700 LINE",
"642 700 LINE",
"115 80 LINE",
"248 700 LINE",
"158 700 LINE",
"9 0 LINE"
);
}
);
};
layerId = "AB33B01D-3E13-404E-935A-045AA6D07EB8";
paths = (
{
closed = 1;
nodes = (
"155 0 LINE",
"754 700 LINE",
"642 700 LINE",
"115 80 LINE",
"248 700 LINE",
"158 700 LINE",
"9 0 LINE"
);
}
);
width = 667;
},
{
background = {
paths = (
{
closed = 1;
nodes = (
"150 0 LINE",
"639 700 LINE",
"590 700 LINE",
"130 40 LINE",
"130 700 LINE",
"88 700 LINE",
"88 0 LINE"
);
}
);
};
layerId = "18A01495-E50D-4F2B-A1D8-5C332C731D93";
paths = (
{
closed = 1;
nodes = (
"150 0 LINE",
"639 700 LINE",
"590 700 LINE",
"130 40 LINE",
"130 700 LINE",
"88 700 LINE",
"88 0 LINE"
);
}
);
width = 635;
},
{
background = {
paths = (
{
closed = 1;
nodes = (
"432 0 LINE",
"830 700 LINE",
"567 700 LINE",
"290 193 LINE",
"290 700 LINE",
"52 700 LINE",
"52 0 LINE"
);
}
);
};
layerId = "9D32FE6F-9470-45EF-9689-909A6F5CE504";
paths = (
{
closed = 1;
nodes = (
"432 0 LINE",
"830 700 LINE",
"567 700 LINE",
"290 193 LINE",
"290 700 LINE",
"52 700 LINE",
"52 0 LINE"
);
}
);
width = 815;
}
);
leftKerningGroup = B;
note = V.liga;
rightKerningGroup = V.liga;
},
{
color = 1;
glyphname = Q.ss01;
lastChange = "2021-10-23 22:57:09 +0000";
layers = (
{
background = {
components = (
{
name = O;
}
);
paths = (
{
closed = 1;
nodes = (
"727 -80 LINE",
"727 0 LINE",
"648 0 LINE SMOOTH",
"601 0 OFFCURVE",
"582 18 OFFCURVE",
"566 66 CURVE",
"484 23 LINE",
"520 -50 OFFCURVE",
"556 -80 OFFCURVE",
"624 -80 CURVE SMOOTH"
);
}
);
};
components = (
{
name = O;
}
);
guideLines = (
{
angle = 90;
position = "{727, 206}";
}
);
layerId = "30E869CF-9A31-4D47-9626-61B8364FC2DA";
paths = (
{
closed = 1;
nodes = (
"727 -80 LINE",
"727 0 LINE",
"648 0 LINE SMOOTH",
"601 0 OFFCURVE",
"582 18 OFFCURVE",
"566 66 CURVE",
"484 23 LINE",
"520 -50 OFFCURVE",
"556 -80 OFFCURVE",
"624 -80 CURVE SMOOTH"
);
}
);
width = 775;
},
{
background = {
components = (
{
name = O;
}
);
paths = (
{
closed = 1;
nodes = (
"712 -42 LINE",
"712 0 LINE",
"618 0 LINE SMOOTH",
"577 0 OFFCURVE",
"557 14 OFFCURVE",
"542 50 CURVE",
"499 33 LINE",
"531 -20 OFFCURVE",
"566 -42 OFFCURVE",
"624 -42 CURVE SMOOTH"
);
}
);
};
components = (
{
name = O;
}
);
guideLines = (
{
angle = 90;
position = "{712, 213}";
}
);
layerId = "18A01495-E50D-4F2B-A1D8-5C332C731D93";
paths = (
{
closed = 1;
nodes = (
"712 -42 LINE",
"712 0 LINE",
"618 0 LINE SMOOTH",
"577 0 OFFCURVE",
"557 14 OFFCURVE",
"542 50 CURVE",
"499 33 LINE",
"531 -20 OFFCURVE",
"566 -42 OFFCURVE",
"624 -42 CURVE SMOOTH"
);
}
);
width = 765;
},
{
background = {
components = (
{
name = O;
}
);
paths = (
{
closed = 1;
nodes = (
"629 -42 LINE",
"638 0 LINE",
"556 0 LINE SMOOTH",
"515 0 OFFCURVE",
"498 14 OFFCURVE",
"491 50 CURVE",
"444 33 LINE",
"465 -20 OFFCURVE",
"495 -42 OFFCURVE",
"553 -42 CURVE SMOOTH"
);
}
);
};
components = (
{
name = O;
}
);
guideLines = (
{
angle = 78;
position = "{685, 221}";
}
);
layerId = "047DE625-588D-43A1-AE3A-C97924B5E3D3";
paths = (
{
closed = 1;
nodes = (
"629 -42 LINE",
"638 0 LINE",
"556 0 LINE SMOOTH",
"515 0 OFFCURVE",
"498 14 OFFCURVE",
"491 50 CURVE",
"444 33 LINE",
"465 -20 OFFCURVE",
"495 -42 OFFCURVE",
"553 -42 CURVE SMOOTH"
);
}
);
width = 754;
},
{
background = {
components = (
{
name = O;
}
);
paths = (
{
closed = 1;
nodes = (
"635 -80 LINE",
"652 0 LINE",
"573 0 LINE SMOOTH",
"526 0 OFFCURVE",
"511 18 OFFCURVE",
"505 66 CURVE",
"414 23 LINE",
"435 -50 OFFCURVE",
"464 -80 OFFCURVE",
"532 -80 CURVE SMOOTH"
);
}
);
};
components = (
{
name = O;
}
);
guideLines = (
{
angle = 78;
position = "{687, 165}";
}
);
layerId = "AB33B01D-3E13-404E-935A-045AA6D07EB8";
paths = (
{
closed = 1;
nodes = (
"635 -80 LINE",
"652 0 LINE",
"573 0 LINE SMOOTH",
"526 0 OFFCURVE",
"511 18 OFFCURVE",
"505 66 CURVE",
"414 23 LINE",
"435 -50 OFFCURVE",
"464 -80 OFFCURVE",
"532 -80 CURVE SMOOTH"
);
}
);
width = 762;
},
{
background = {
components = (
{
name = O;
}
);
paths = (
{
closed = 1;
nodes = (
"764 -143 LINE",
"764 3 LINE",
"652 3 LINE SMOOTH",
"614 3 OFFCURVE",
"591 19 OFFCURVE",
"584 51 CURVE",
"424 -10 LINE",
"456 -99 OFFCURVE",
"523 -143 OFFCURVE",
"625 -143 CURVE SMOOTH"
);
}
);
};
components = (
{
name = O;
}
);
guideLines = (
{
angle = 90;
position = "{764, 233}";
}
);
layerId = "9D32FE6F-9470-45EF-9689-909A6F5CE504";
paths = (
{
closed = 1;
nodes = (
"764 -143 LINE",
"764 3 LINE",
"652 3 LINE SMOOTH",
"614 3 OFFCURVE",
"591 19 OFFCURVE",
"584 51 CURVE",
"424 -10 LINE",
"456 -99 OFFCURVE",
"523 -143 OFFCURVE",
"625 -143 CURVE SMOOTH"
);
}
);
width = 795;
},
{
background = {
components = (
{
name = O;
}
);
paths = (
{
closed = 1;
nodes = (
"663 -126 LINE",
"689 0 LINE",
"607 0 LINE SMOOTH",
"569 0 OFFCURVE",
"550 16 OFFCURVE",
"549 48 CURVE",
"401 7 LINE",
"414 -82 OFFCURVE",
"472 -126 OFFCURVE",
"574 -126 CURVE SMOOTH"
);
}
);
};
components = (
{
name = O;
}
);
guideLines = (
{
angle = 78;
position = "{694, 16}";
}
);
layerId = "69B5B248-E33C-46C9-9D9F-11585640C213";
paths = (
{
closed = 1;
nodes = (
"663 -126 LINE",
"689 0 LINE",
"607 0 LINE SMOOTH",
"569 0 OFFCURVE",
"550 16 OFFCURVE",
"549 48 CURVE",
"401 7 LINE",
"414 -82 OFFCURVE",
"472 -126 OFFCURVE",
"574 -126 CURVE SMOOTH"
);
}
);
width = 784;
}
);
leftKerningGroup = C;
note = Q;
},
{
color = 1;
glyphname = R.ss01;
lastChange = "2021-09-11 12:44:42 +0000";
layers = (
{
background = {
paths = (
{
closed = 1;
nodes = (
"178 0 LINE",
"178 295 LINE",
"382 295 LINE SMOOTH",
"548 295 OFFCURVE",
"619 388 OFFCURVE",
"619 498 CURVE SMOOTH",
"619 628 OFFCURVE",
"529 700 OFFCURVE",
"383 700 CURVE SMOOTH",
"88 700 LINE",
"88 0 LINE"
);
},
{
closed = 1;
nodes = (
"610 0 LINE",
"610 152 LINE SMOOTH",
"610 275 OFFCURVE",
"545 350 OFFCURVE",
"429 350 CURVE",
"401 295 LINE",
"475 296 OFFCURVE",
"520 251 OFFCURVE",
"520 157 CURVE SMOOTH",
"520 0 LINE"
);
},
{
closed = 1;
nodes = (
"178 620 LINE",
"379 620 LINE SMOOTH",
"471 620 OFFCURVE",
"529 581 OFFCURVE",
"529 497 CURVE SMOOTH",
"529 415 OFFCURVE",
"472 375 OFFCURVE",
"379 375 CURVE SMOOTH",
"178 375 LINE"
);
}
);
};
guideLines = (
{
angle = 270;
position = "{619, 443}";
}
);
layerId = "30E869CF-9A31-4D47-9626-61B8364FC2DA";
paths = (
{
closed = 1;
nodes = (
"178 0 LINE",
"178 295 LINE",
"382 295 LINE SMOOTH",
"548 295 OFFCURVE",
"619 388 OFFCURVE",
"619 498 CURVE SMOOTH",
"619 628 OFFCURVE",
"529 700 OFFCURVE",
"383 700 CURVE SMOOTH",
"88 700 LINE",
"88 0 LINE"
);
},
{
closed = 1;
nodes = (
"610 0 LINE",
"610 152 LINE SMOOTH",
"610 275 OFFCURVE",
"545 350 OFFCURVE",
"429 350 CURVE",
"401 295 LINE",
"475 296 OFFCURVE",
"520 251 OFFCURVE",
"520 157 CURVE SMOOTH",
"520 0 LINE"
);
},
{
closed = 1;
nodes = (
"178 620 LINE",
"379 620 LINE SMOOTH",
"471 620 OFFCURVE",
"529 581 OFFCURVE",
"529 497 CURVE SMOOTH",
"529 415 OFFCURVE",
"472 375 OFFCURVE",
"379 375 CURVE SMOOTH",
"178 375 LINE"
);
}
);
width = 654;
},
{
background = {
paths = (
{
closed = 1;
nodes = (
"141 0 LINE",
"141 318 LINE",
"381 318 LINE SMOOTH",
"516 318 OFFCURVE",
"595 400 OFFCURVE",
"595 509 CURVE SMOOTH",
"595 624 OFFCURVE",
"515 700 OFFCURVE",
"375 700 CURVE SMOOTH",
"96 700 LINE",
"96 0 LINE"
);
},
{
closed = 1;
nodes = (
"580 0 LINE",
"580 151 LINE SMOOTH",
"580 284 OFFCURVE",
"507 353 OFFCURVE",
"398 353 CURVE",
"389 318 LINE",
"476 318 OFFCURVE",
"535 265 OFFCURVE",
"535 152 CURVE SMOOTH",
"535 0 LINE"
);
},
{
closed = 1;
nodes = (
"141 660 LINE",
"372 660 LINE SMOOTH",
"485 660 OFFCURVE",
"550 604 OFFCURVE",
"550 509 CURVE SMOOTH",
"550 415 OFFCURVE",
"487 358 OFFCURVE",
"372 358 CURVE SMOOTH",
"141 358 LINE"
);
}
);
};
layerId = "18A01495-E50D-4F2B-A1D8-5C332C731D93";
paths = (
{
closed = 1;
nodes = (
"141 0 LINE",
"141 318 LINE",
"381 318 LINE SMOOTH",
"516 318 OFFCURVE",
"595 400 OFFCURVE",
"595 509 CURVE SMOOTH",
"595 624 OFFCURVE",
"515 700 OFFCURVE",
"375 700 CURVE SMOOTH",
"96 700 LINE",
"96 0 LINE"
);
},
{
closed = 1;
nodes = (
"580 0 LINE",
"580 151 LINE SMOOTH",
"580 284 OFFCURVE",
"507 353 OFFCURVE",
"398 353 CURVE",
"389 318 LINE",
"476 318 OFFCURVE",
"535 265 OFFCURVE",
"535 152 CURVE SMOOTH",
"535 0 LINE"
);
},
{
closed = 1;
nodes = (
"141 660 LINE",
"372 660 LINE SMOOTH",
"485 660 OFFCURVE",
"550 604 OFFCURVE",
"550 509 CURVE SMOOTH",
"550 415 OFFCURVE",
"487 358 OFFCURVE",
"372 358 CURVE SMOOTH",
"141 358 LINE"
);
}
);
width = 661;
},
{
background = {
paths = (
{
closed = 1;
nodes = (
"79 0 LINE",
"140 315 LINE",
"374 315 LINE SMOOTH",
"520 315 OFFCURVE",
"630 396 OFFCURVE",
"630 534 CURVE SMOOTH",
"630 633 OFFCURVE",
"557 700 OFFCURVE",
"437 700 CURVE SMOOTH",
"173 700 LINE",
"37 0 LINE"
);
},
{
closed = 1;
nodes = (
"525 0 LINE",
"552 139 LINE SMOOTH",
"575 259 OFFCURVE",
"530 353 OFFCURVE",
"401 353 CURVE",
"393 315 LINE",
"499 314 OFFCURVE",
"530 238 OFFCURVE",
"510 136 CURVE SMOOTH",
"483 0 LINE"
);
},
{
closed = 1;
nodes = (
"207 661 LINE",
"430 661 LINE SMOOTH",
"527 661 OFFCURVE",
"587 615 OFFCURVE",
"587 531 CURVE SMOOTH",
"587 417 OFFCURVE",
"496 354 OFFCURVE",
"376 354 CURVE SMOOTH",
"148 354 LINE"
);
}
);
};
layerId = "047DE625-588D-43A1-AE3A-C97924B5E3D3";
paths = (
{
closed = 1;
nodes = (
"79 0 LINE",
"140 315 LINE",
"374 315 LINE SMOOTH",
"520 315 OFFCURVE",
"630 396 OFFCURVE",
"630 534 CURVE SMOOTH",
"630 633 OFFCURVE",
"557 700 OFFCURVE",
"437 700 CURVE SMOOTH",
"173 700 LINE",
"37 0 LINE"
);
},
{
closed = 1;
nodes = (
"525 0 LINE",
"552 139 LINE SMOOTH",
"575 259 OFFCURVE",
"530 353 OFFCURVE",
"401 353 CURVE",
"393 315 LINE",
"499 314 OFFCURVE",
"530 238 OFFCURVE",
"510 136 CURVE SMOOTH",
"483 0 LINE"
);
},
{
closed = 1;
nodes = (
"207 661 LINE",
"430 661 LINE SMOOTH",
"527 661 OFFCURVE",
"587 615 OFFCURVE",
"587 531 CURVE SMOOTH",
"587 417 OFFCURVE",
"496 354 OFFCURVE",
"376 354 CURVE SMOOTH",
"148 354 LINE"
);
}
);
width = 651;
},
{
background = {
paths = (
{
closed = 1;
nodes = (
"113 0 LINE",
"171 297 LINE",
"373 297 LINE SMOOTH",
"557 297 OFFCURVE",
"649 399 OFFCURVE",
"649 528 CURVE SMOOTH",
"649 631 OFFCURVE",
"572 700 OFFCURVE",
"445 700 CURVE SMOOTH",
"166 700 LINE",
"29 0 LINE"
);
},
{
closed = 1;
nodes = (
"528 0 LINE",
"556 145 LINE SMOOTH",
"582 279 OFFCURVE",
"524 355 OFFCURVE",
"408 355 CURVE",
"380 297 LINE",
"467 297 OFFCURVE",
"492 241 OFFCURVE",
"473 146 CURVE SMOOTH",
"444 0 LINE"
);
},
{
closed = 1;
nodes = (
"235 627 LINE",
"430 627 LINE SMOOTH",
"512 627 OFFCURVE",
"563 591 OFFCURVE",
"563 520 CURVE SMOOTH",
"563 423 OFFCURVE",
"487 369 OFFCURVE",
"384 369 CURVE SMOOTH",
"185 369 LINE"
);
}
);
};
guideLines = (
{
angle = 78.9174;
position = "{449, 1}";
},
{
angle = 79.0578;
position = "{528, 5}";
}
);
layerId = "AB33B01D-3E13-404E-935A-045AA6D07EB8";
paths = (
{
closed = 1;
nodes = (
"113 0 LINE",
"171 297 LINE",
"373 297 LINE SMOOTH",
"557 297 OFFCURVE",
"649 399 OFFCURVE",
"649 528 CURVE SMOOTH",
"649 631 OFFCURVE",
"572 700 OFFCURVE",
"445 700 CURVE SMOOTH",
"166 700 LINE",
"29 0 LINE"
);
},
{
closed = 1;
nodes = (
"528 0 LINE",
"556 145 LINE SMOOTH",
"582 279 OFFCURVE",
"524 355 OFFCURVE",
"408 355 CURVE",
"380 297 LINE",
"467 297 OFFCURVE",
"492 241 OFFCURVE",
"473 146 CURVE SMOOTH",
"444 0 LINE"
);
},
{
closed = 1;
nodes = (
"235 627 LINE",
"430 627 LINE SMOOTH",
"512 627 OFFCURVE",
"563 591 OFFCURVE",
"563 520 CURVE SMOOTH",
"563 423 OFFCURVE",
"487 369 OFFCURVE",
"384 369 CURVE SMOOTH",
"185 369 LINE"
);
}
);
width = 669;
},
{
background = {
paths = (
{
closed = 1;
nodes = (
"255 0 LINE",
"255 243 LINE",
"406 243 LINE SMOOTH",
"563 243 OFFCURVE",
"669 316 OFFCURVE",
"669 473 CURVE SMOOTH",
"669 636 OFFCURVE",
"554 700 OFFCURVE",
"406 700 CURVE SMOOTH",
"65 700 LINE",
"65 0 LINE"
);
},
{
closed = 1;
nodes = (
"644 0 LINE",
"644 134 LINE SMOOTH",
"644 256 OFFCURVE",
"579 329 OFFCURVE",
"460 330 CURVE",
"380 243 LINE",
"428 243 OFFCURVE",
"454 211 OFFCURVE",
"454 151 CURVE SMOOTH",
"454 0 LINE"
);
},
{
closed = 1;
nodes = (
"255 552 LINE",
"374 552 LINE SMOOTH",
"435 552 OFFCURVE",
"472 524 OFFCURVE",
"472 468 CURVE SMOOTH",
"472 413 OFFCURVE",
"436 386 OFFCURVE",
"374 386 CURVE SMOOTH",
"255 386 LINE"
);
}
);
};
layerId = "9D32FE6F-9470-45EF-9689-909A6F5CE504";
paths = (
{
closed = 1;
nodes = (
"255 0 LINE",
"255 243 LINE",
"406 243 LINE SMOOTH",
"563 243 OFFCURVE",
"669 316 OFFCURVE",
"669 473 CURVE SMOOTH",
"669 636 OFFCURVE",
"554 700 OFFCURVE",
"406 700 CURVE SMOOTH",
"65 700 LINE",
"65 0 LINE"
);
},
{
closed = 1;
nodes = (
"644 0 LINE",
"644 134 LINE SMOOTH",
"644 256 OFFCURVE",
"579 329 OFFCURVE",
"460 330 CURVE",
"380 243 LINE",
"428 243 OFFCURVE",
"454 211 OFFCURVE",
"454 151 CURVE SMOOTH",
"454 0 LINE"
);
},
{
closed = 1;
nodes = (
"255 552 LINE",
"374 552 LINE SMOOTH",
"435 552 OFFCURVE",
"472 524 OFFCURVE",
"472 468 CURVE SMOOTH",
"472 413 OFFCURVE",
"436 386 OFFCURVE",
"374 386 CURVE SMOOTH",
"255 386 LINE"
);
}
);
width = 715;
},
{
background = {
paths = (
{
closed = 1;
nodes = (
"195 0 LINE",
"243 244 LINE",
"351 244 LINE SMOOTH",
"621 244 OFFCURVE",
"693 386 OFFCURVE",
"693 503 CURVE SMOOTH",
"693 626 OFFCURVE",
"602 700 OFFCURVE",
"456 700 CURVE SMOOTH",
"141 700 LINE",
"5 0 LINE"
);
},
{
closed = 1;
nodes = (
"583 0 LINE",
"609 122 LINE SMOOTH",
"639 261 OFFCURVE",
"580 340 OFFCURVE",
"462 340 CURVE",
"366 244 LINE",
"416 244 OFFCURVE",
"433 208 OFFCURVE",
"422 151 CURVE SMOOTH",
"393 0 LINE"
);
},
{
closed = 1;
nodes = (
"302 553 LINE",
"415 553 LINE SMOOTH",
"467 553 OFFCURVE",
"499 531 OFFCURVE",
"499 483 CURVE SMOOTH",
"499 423 OFFCURVE",
"451 385 OFFCURVE",
"386 385 CURVE SMOOTH",
"270 385 LINE"
);
}
);
};
layerId = "69B5B248-E33C-46C9-9D9F-11585640C213";
paths = (
{
closed = 1;
nodes = (
"195 0 LINE",
"243 244 LINE",
"351 244 LINE SMOOTH",
"621 244 OFFCURVE",
"693 386 OFFCURVE",
"693 503 CURVE SMOOTH",
"693 626 OFFCURVE",
"602 700 OFFCURVE",
"456 700 CURVE SMOOTH",
"141 700 LINE",
"5 0 LINE"
);
},
{
closed = 1;
nodes = (
"583 0 LINE",
"609 122 LINE SMOOTH",
"639 261 OFFCURVE",
"580 340 OFFCURVE",
"462 340 CURVE",
"366 244 LINE",
"416 244 OFFCURVE",
"433 208 OFFCURVE",
"422 151 CURVE SMOOTH",
"393 0 LINE"
);
},
{
closed = 1;
nodes = (
"302 553 LINE",
"415 553 LINE SMOOTH",
"467 553 OFFCURVE",
"499 531 OFFCURVE",
"499 483 CURVE SMOOTH",
"499 423 OFFCURVE",
"451 385 OFFCURVE",
"386 385 CURVE SMOOTH",
"270 385 LINE"
);
}
);
width = 705;
}
);
note = R;
rightKerningGroup = R;
},
{
color = 9;
export = 0;
glyphname = G.001;
lastChange = "2021-09-06 19:22:32 +0000";
layers = (
{
background = {
paths = (
{
closed = 1;
nodes = (
"479 -10 OFFCURVE",
"564 37 OFFCURVE",
"611 112 CURVE",
"611 0 LINE",
"693 0 LINE",
"693 283 LINE SMOOTH",
"693 327 OFFCURVE",
"661 359 OFFCURVE",
"617 359 CURVE SMOOTH",
"393 359 LINE",
"393 279 LINE",
"609 279 LINE",
"609 276 LINE SMOOTH",
"609 144 OFFCURVE",
"495 70 OFFCURVE",
"382 70 CURVE SMOOTH",
"240 70 OFFCURVE",
"143 186 OFFCURVE",
"143 351 CURVE SMOOTH",
"143 514 OFFCURVE",
"241 630 OFFCURVE",
"387 630 CURVE SMOOTH",
"485 630 OFFCURVE",
"573 575 OFFCURVE",
"596 478 CURVE",
"689 478 LINE",
"665 626 OFFCURVE",
"536 710 OFFCURVE",
"387 710 CURVE SMOOTH",
"188 710 OFFCURVE",
"48 563 OFFCURVE",
"48 351 CURVE SMOOTH",
"48 147 OFFCURVE",
"177 -10 OFFCURVE",
"374 -10 CURVE SMOOTH"
);
}
);
};
layerId = "30E869CF-9A31-4D47-9626-61B8364FC2DA";
paths = (
{
closed = 1;
nodes = (
"479 -10 OFFCURVE",
"564 37 OFFCURVE",
"611 112 CURVE",
"611 0 LINE",
"693 0 LINE",
"693 283 LINE SMOOTH",
"693 327 OFFCURVE",
"661 359 OFFCURVE",
"617 359 CURVE SMOOTH",
"393 359 LINE",
"393 279 LINE",
"609 279 LINE",
"609 276 LINE SMOOTH",
"609 144 OFFCURVE",
"495 70 OFFCURVE",
"382 70 CURVE SMOOTH",
"240 70 OFFCURVE",
"143 186 OFFCURVE",
"143 351 CURVE SMOOTH",
"143 514 OFFCURVE",
"241 630 OFFCURVE",
"387 630 CURVE SMOOTH",
"485 630 OFFCURVE",
"573 575 OFFCURVE",
"596 478 CURVE",
"689 478 LINE",
"665 626 OFFCURVE",
"536 710 OFFCURVE",
"387 710 CURVE SMOOTH",
"188 710 OFFCURVE",
"48 563 OFFCURVE",
"48 351 CURVE SMOOTH",
"48 147 OFFCURVE",
"177 -10 OFFCURVE",
"374 -10 CURVE SMOOTH"
);
}
);
width = 768;
},
{
background = {
paths = (
{
closed = 1;
nodes = (
"495 -10 OFFCURVE",
"589 55 OFFCURVE",
"630 153 CURVE",
"630 0 LINE",
"670 0 LINE",
"670 303 LINE SMOOTH",
"670 323 OFFCURVE",
"654 339 OFFCURVE",
"634 339 CURVE SMOOTH",
"386 339 LINE",
"386 299 LINE",
"630 299 LINE",
"630 294 LINE SMOOTH",
"630 126 OFFCURVE",
"519 30 OFFCURVE",
"376 30 CURVE SMOOTH",
"225 30 OFFCURVE",
"97 150 OFFCURVE",
"97 350 CURVE SMOOTH",
"97 526 OFFCURVE",
"203 670 OFFCURVE",
"377 670 CURVE SMOOTH",
"489 670 OFFCURVE",
"589 608 OFFCURVE",
"619 490 CURVE",
"664 490 LINE",
"635 627 OFFCURVE",
"516 710 OFFCURVE",
"377 710 CURVE SMOOTH",
"175 710 OFFCURVE",
"52 546 OFFCURVE",
"52 350 CURVE SMOOTH",
"52 130 OFFCURVE",
"196 -10 OFFCURVE",
"375 -10 CURVE SMOOTH"
);
}
);
};
layerId = "18A01495-E50D-4F2B-A1D8-5C332C731D93";
paths = (
{
closed = 1;
nodes = (
"495 -10 OFFCURVE",
"589 55 OFFCURVE",
"630 153 CURVE",
"630 0 LINE",
"670 0 LINE",
"670 303 LINE SMOOTH",
"670 323 OFFCURVE",
"654 339 OFFCURVE",
"634 339 CURVE SMOOTH",
"386 339 LINE",
"386 299 LINE",
"630 299 LINE",
"630 294 LINE SMOOTH",
"630 126 OFFCURVE",
"519 30 OFFCURVE",
"376 30 CURVE SMOOTH",
"225 30 OFFCURVE",
"97 150 OFFCURVE",
"97 350 CURVE SMOOTH",
"97 526 OFFCURVE",
"203 670 OFFCURVE",
"377 670 CURVE SMOOTH",
"489 670 OFFCURVE",
"589 608 OFFCURVE",
"619 490 CURVE",
"664 490 LINE",
"635 627 OFFCURVE",
"516 710 OFFCURVE",
"377 710 CURVE SMOOTH",
"175 710 OFFCURVE",
"52 546 OFFCURVE",
"52 350 CURVE SMOOTH",
"52 130 OFFCURVE",
"196 -10 OFFCURVE",
"375 -10 CURVE SMOOTH"
);
}
);
width = 752;
},
{
background = {
paths = (
{
closed = 1;
nodes = (
"449 -11 OFFCURVE",
"535 43 OFFCURVE",
"596 143 CURVE",
"567 0 LINE",
"607 0 LINE",
"664 293 LINE SMOOTH",
"669 318 OFFCURVE",
"652 338 OFFCURVE",
"627 338 CURVE SMOOTH",
"385 338 LINE",
"377 299 LINE",
"626 299 LINE",
"624 289 LINE SMOOTH",
"587 126 OFFCURVE",
"473 29 OFFCURVE",
"336 29 CURVE SMOOTH",
"187 29 OFFCURVE",
"102 149 OFFCURVE",
"102 290 CURVE SMOOTH",
"102 502 OFFCURVE",
"252 670 OFFCURVE",
"431 670 CURVE SMOOTH",
"548 670 OFFCURVE",
"638 602 OFFCURVE",
"645 490 CURVE",
"689 490 LINE",
"685 616 OFFCURVE",
"584 710 OFFCURVE",
"436 710 CURVE SMOOTH",
"232 710 OFFCURVE",
"58 534 OFFCURVE",
"58 287 CURVE SMOOTH",
"58 128 OFFCURVE",
"160 -11 OFFCURVE",
"331 -11 CURVE SMOOTH"
);
}
);
};
layerId = "047DE625-588D-43A1-AE3A-C97924B5E3D3";
paths = (
{
closed = 1;
nodes = (
"449 -11 OFFCURVE",
"535 43 OFFCURVE",
"596 143 CURVE",
"567 0 LINE",
"607 0 LINE",
"664 293 LINE SMOOTH",
"669 318 OFFCURVE",
"652 338 OFFCURVE",
"627 338 CURVE SMOOTH",
"385 338 LINE",
"377 299 LINE",
"626 299 LINE",
"624 289 LINE SMOOTH",
"587 126 OFFCURVE",
"473 29 OFFCURVE",
"336 29 CURVE SMOOTH",
"187 29 OFFCURVE",
"102 149 OFFCURVE",
"102 290 CURVE SMOOTH",
"102 502 OFFCURVE",
"252 670 OFFCURVE",
"431 670 CURVE SMOOTH",
"548 670 OFFCURVE",
"638 602 OFFCURVE",
"645 490 CURVE",
"689 490 LINE",
"685 616 OFFCURVE",
"584 710 OFFCURVE",
"436 710 CURVE SMOOTH",
"232 710 OFFCURVE",
"58 534 OFFCURVE",
"58 287 CURVE SMOOTH",
"58 128 OFFCURVE",
"160 -11 OFFCURVE",
"331 -11 CURVE SMOOTH"
);
}
);
width = 745;
},
{
background = {
paths = (
{
closed = 1;
nodes = (
"435 -11 OFFCURVE",
"512 32 OFFCURVE",
"572 113 CURVE",
"550 0 LINE",
"626 0 LINE",
"676 260 LINE SMOOTH",
"686 313 OFFCURVE",
"650 357 OFFCURVE",
"596 357 CURVE SMOOTH",
"399 357 LINE",
"385 283 LINE",
"601 283 LINE",
"600 277 LINE SMOOTH",
"568 156 OFFCURVE",
"466 64 OFFCURVE",
"343 64 CURVE SMOOTH",
"229 64 OFFCURVE",
"141 146 OFFCURVE",
"141 291 CURVE SMOOTH",
"141 458 OFFCURVE",
"248 635 OFFCURVE",
"429 635 CURVE SMOOTH",
"530 635 OFFCURVE",
"615 581 OFFCURVE",
"623 480 CURVE",
"708 480 LINE",
"705 636 OFFCURVE",
"569 710 OFFCURVE",
"438 710 CURVE SMOOTH",
"192 710 OFFCURVE",
"52 496 OFFCURVE",
"52 281 CURVE SMOOTH",
"52 98 OFFCURVE",
"178 -11 OFFCURVE",
"329 -11 CURVE SMOOTH"
);
}
);
};
layerId = "AB33B01D-3E13-404E-935A-045AA6D07EB8";
paths = (
{
closed = 1;
nodes = (
"435 -11 OFFCURVE",
"512 32 OFFCURVE",
"572 113 CURVE",
"550 0 LINE",
"626 0 LINE",
"676 260 LINE SMOOTH",
"686 313 OFFCURVE",
"650 357 OFFCURVE",
"596 357 CURVE SMOOTH",
"399 357 LINE",
"385 283 LINE",
"601 283 LINE",
"600 277 LINE SMOOTH",
"568 156 OFFCURVE",
"466 64 OFFCURVE",
"343 64 CURVE SMOOTH",
"229 64 OFFCURVE",
"141 146 OFFCURVE",
"141 291 CURVE SMOOTH",
"141 458 OFFCURVE",
"248 635 OFFCURVE",
"429 635 CURVE SMOOTH",
"530 635 OFFCURVE",
"615 581 OFFCURVE",
"623 480 CURVE",
"708 480 LINE",
"705 636 OFFCURVE",
"569 710 OFFCURVE",
"438 710 CURVE SMOOTH",
"192 710 OFFCURVE",
"52 496 OFFCURVE",
"52 281 CURVE SMOOTH",
"52 98 OFFCURVE",
"178 -11 OFFCURVE",
"329 -11 CURVE SMOOTH"
);
}
);
width = 758;
},
{
background = {
paths = (
{
closed = 1;
nodes = (
"458 -12 OFFCURVE",
"530 23 OFFCURVE",
"578 78 CURVE",
"578 0 LINE",
"742 0 LINE",
"742 289 LINE SMOOTH",
"742 348 OFFCURVE",
"699 391 OFFCURVE",
"640 391 CURVE SMOOTH",
"403 391 LINE",
"403 252 LINE",
"563 252 LINE",
"562 248 LINE SMOOTH",
"545 182 OFFCURVE",
"481 143 OFFCURVE",
"405 143 CURVE SMOOTH",
"298 143 OFFCURVE",
"229 223 OFFCURVE",
"229 350 CURVE SMOOTH",
"229 469 OFFCURVE",
"293 554 OFFCURVE",
"403 554 CURVE SMOOTH",
"468 554 OFFCURVE",
"526 526 OFFCURVE",
"543 467 CURVE",
"740 467 LINE",
"716 628 OFFCURVE",
"567 710 OFFCURVE",
"401 710 CURVE SMOOTH",
"165 710 OFFCURVE",
"30 555 OFFCURVE",
"30 350 CURVE SMOOTH",
"30 125 OFFCURVE",
"185 -12 OFFCURVE",
"364 -12 CURVE SMOOTH"
);
}
);
};
layerId = "9D32FE6F-9470-45EF-9689-909A6F5CE504";
paths = (
{
closed = 1;
nodes = (
"458 -12 OFFCURVE",
"530 23 OFFCURVE",
"578 78 CURVE",
"578 0 LINE",
"742 0 LINE",
"742 289 LINE SMOOTH",
"742 348 OFFCURVE",
"699 391 OFFCURVE",
"640 391 CURVE SMOOTH",
"403 391 LINE",
"403 252 LINE",
"563 252 LINE",
"562 248 LINE SMOOTH",
"545 182 OFFCURVE",
"481 143 OFFCURVE",
"405 143 CURVE SMOOTH",
"298 143 OFFCURVE",
"229 223 OFFCURVE",
"229 350 CURVE SMOOTH",
"229 469 OFFCURVE",
"293 554 OFFCURVE",
"403 554 CURVE SMOOTH",
"468 554 OFFCURVE",
"526 526 OFFCURVE",
"543 467 CURVE",
"740 467 LINE",
"716 628 OFFCURVE",
"567 710 OFFCURVE",
"401 710 CURVE SMOOTH",
"165 710 OFFCURVE",
"30 555 OFFCURVE",
"30 350 CURVE SMOOTH",
"30 125 OFFCURVE",
"185 -12 OFFCURVE",
"364 -12 CURVE SMOOTH"
);
}
);
width = 799;
},
{
background = {
paths = (
{
closed = 1;
nodes = (
"407 -12 OFFCURVE",
"475 21 OFFCURVE",
"527 78 CURVE",
"513 0 LINE",
"675 0 LINE",
"726 261 LINE SMOOTH",
"740 332 OFFCURVE",
"691 391 OFFCURVE",
"619 391 CURVE SMOOTH",
"426 391 LINE",
"399 253 LINE",
"539 253 LINE",
"539 250 LINE",
"514 185 OFFCURVE",
"448 142 OFFCURVE",
"375 142 CURVE SMOOTH",
"287 142 OFFCURVE",
"232 201 OFFCURVE",
"232 307 CURVE SMOOTH",
"232 420 OFFCURVE",
"299 556 OFFCURVE",
"433 556 CURVE SMOOTH",
"499 556 OFFCURVE",
"557 526 OFFCURVE",
"566 467 CURVE",
"761 467 LINE",
"753 612 OFFCURVE",
"621 710 OFFCURVE",
"443 710 CURVE SMOOTH",
"182 710 OFFCURVE",
"35 508 OFFCURVE",
"35 297 CURVE SMOOTH",
"35 94 OFFCURVE",
"171 -12 OFFCURVE",
"316 -12 CURVE SMOOTH"
);
}
);
};
layerId = "69B5B248-E33C-46C9-9D9F-11585640C213";
paths = (
{
closed = 1;
nodes = (
"407 -12 OFFCURVE",
"475 21 OFFCURVE",
"527 78 CURVE",
"513 0 LINE",
"675 0 LINE",
"726 261 LINE SMOOTH",
"740 332 OFFCURVE",
"691 391 OFFCURVE",
"619 391 CURVE SMOOTH",
"426 391 LINE",
"399 253 LINE",
"539 253 LINE",
"539 250 LINE",
"514 185 OFFCURVE",
"448 142 OFFCURVE",
"375 142 CURVE SMOOTH",
"287 142 OFFCURVE",
"232 201 OFFCURVE",
"232 307 CURVE SMOOTH",
"232 420 OFFCURVE",
"299 556 OFFCURVE",
"433 556 CURVE SMOOTH",
"499 556 OFFCURVE",
"557 526 OFFCURVE",
"566 467 CURVE",
"761 467 LINE",
"753 612 OFFCURVE",
"621 710 OFFCURVE",
"443 710 CURVE SMOOTH",
"182 710 OFFCURVE",
"35 508 OFFCURVE",
"35 297 CURVE SMOOTH",
"35 94 OFFCURVE",
"171 -12 OFFCURVE",
"316 -12 CURVE SMOOTH"
);
}
);
width = 791;
}
);
leftKerningGroup = C;
note = G;
rightKerningGroup = G;
},
{
color = 4;
export = 0;
glyphname = J.ss01;
lastChange = "2021-09-06 19:22:32 +0000";
layers = (
{
background = {
paths = (
{
closed = 1;
nodes = (
"126 0 LINE SMOOTH",
"236 0 OFFCURVE",
"294 62 OFFCURVE",
"294 172 CURVE SMOOTH",
"294 700 LINE",
"204 700 LINE",
"204 175 LINE SMOOTH",
"204 115 OFFCURVE",
"174 80 OFFCURVE",
"114 80 CURVE SMOOTH",
"5 80 LINE",
"5 0 LINE"
);
}
);
};
guideLines = (
{
angle = 90;
position = "{7, 43}";
}
);
layerId = "30E869CF-9A31-4D47-9626-61B8364FC2DA";
paths = (
{
closed = 1;
nodes = (
"126 0 LINE SMOOTH",
"236 0 OFFCURVE",
"294 62 OFFCURVE",
"294 172 CURVE SMOOTH",
"294 700 LINE",
"204 700 LINE",
"204 175 LINE SMOOTH",
"204 115 OFFCURVE",
"174 80 OFFCURVE",
"114 80 CURVE SMOOTH",
"5 80 LINE",
"5 0 LINE"
);
}
);
width = 372;
},
{
background = {
paths = (
{
closed = 1;
nodes = (
"386 -10 OFFCURVE",
"467 76 OFFCURVE",
"467 210 CURVE SMOOTH",
"467 700 LINE",
"422 700 LINE",
"422 211 LINE SMOOTH",
"422 104 OFFCURVE",
"361 30 OFFCURVE",
"255 30 CURVE SMOOTH",
"156 30 OFFCURVE",
"92 89 OFFCURVE",
"83 208 CURVE",
"38 208 LINE",
"48 80 OFFCURVE",
"119 -10 OFFCURVE",
"255 -10 CURVE SMOOTH"
);
}
);
};
layerId = "18A01495-E50D-4F2B-A1D8-5C332C731D93";
paths = (
{
closed = 1;
nodes = (
"386 -10 OFFCURVE",
"467 76 OFFCURVE",
"467 210 CURVE SMOOTH",
"467 700 LINE",
"422 700 LINE",
"422 211 LINE SMOOTH",
"422 104 OFFCURVE",
"361 30 OFFCURVE",
"255 30 CURVE SMOOTH",
"156 30 OFFCURVE",
"92 89 OFFCURVE",
"83 208 CURVE",
"38 208 LINE",
"48 80 OFFCURVE",
"119 -10 OFFCURVE",
"255 -10 CURVE SMOOTH"
);
}
);
width = 551;
},
{
background = {
paths = (
{
closed = 1;
nodes = (
"333 -11 OFFCURVE",
"415 71 OFFCURVE",
"440 200 CURVE SMOOTH",
"538 700 LINE",
"495 700 LINE",
"398 203 LINE SMOOTH",
"377 95 OFFCURVE",
"308 29 OFFCURVE",
"210 29 CURVE SMOOTH",
"104 29 OFFCURVE",
"45 100 OFFCURVE",
"61 207 CURVE",
"19 207 LINE",
"2 85 OFFCURVE",
"69 -11 OFFCURVE",
"208 -11 CURVE SMOOTH"
);
}
);
};
layerId = "047DE625-588D-43A1-AE3A-C97924B5E3D3";
paths = (
{
closed = 1;
nodes = (
"333 -11 OFFCURVE",
"415 71 OFFCURVE",
"440 200 CURVE SMOOTH",
"538 700 LINE",
"495 700 LINE",
"398 203 LINE SMOOTH",
"377 95 OFFCURVE",
"308 29 OFFCURVE",
"210 29 CURVE SMOOTH",
"104 29 OFFCURVE",
"45 100 OFFCURVE",
"61 207 CURVE",
"19 207 LINE",
"2 85 OFFCURVE",
"69 -11 OFFCURVE",
"208 -11 CURVE SMOOTH"
);
}
);
width = 544;
},
{
background = {
paths = (
{
closed = 1;
nodes = (
"358 -11 OFFCURVE",
"440 77 OFFCURVE",
"467 212 CURVE SMOOTH",
"563 700 LINE",
"478 700 LINE",
"384 220 LINE SMOOTH",
"364 120 OFFCURVE",
"305 65 OFFCURVE",
"220 65 CURVE SMOOTH",
"125 65 OFFCURVE",
"86 134 OFFCURVE",
"100 226 CURVE",
"16 226 LINE",
"-2 81 OFFCURVE",
"74 -11 OFFCURVE",
"216 -11 CURVE SMOOTH"
);
}
);
};
layerId = "AB33B01D-3E13-404E-935A-045AA6D07EB8";
paths = (
{
closed = 1;
nodes = (
"358 -11 OFFCURVE",
"440 77 OFFCURVE",
"467 212 CURVE SMOOTH",
"563 700 LINE",
"478 700 LINE",
"384 220 LINE SMOOTH",
"364 120 OFFCURVE",
"305 65 OFFCURVE",
"220 65 CURVE SMOOTH",
"125 65 OFFCURVE",
"86 134 OFFCURVE",
"100 226 CURVE",
"16 226 LINE",
"-2 81 OFFCURVE",
"74 -11 OFFCURVE",
"216 -11 CURVE SMOOTH"
);
}
);
width = 563;
},
{
background = {
paths = (
{
closed = 1;
nodes = (
"473 -13 OFFCURVE",
"584 74 OFFCURVE",
"584 263 CURVE SMOOTH",
"584 700 LINE",
"391 700 LINE",
"391 263 LINE SMOOTH",
"391 194 OFFCURVE",
"361 151 OFFCURVE",
"301 151 CURVE SMOOTH",
"237 151 OFFCURVE",
"210 195 OFFCURVE",
"208 276 CURVE",
"17 276 LINE",
"26 85 OFFCURVE",
"118 -13 OFFCURVE",
"301 -13 CURVE SMOOTH"
);
}
);
};
layerId = "9D32FE6F-9470-45EF-9689-909A6F5CE504";
paths = (
{
closed = 1;
nodes = (
"473 -13 OFFCURVE",
"584 74 OFFCURVE",
"584 263 CURVE SMOOTH",
"584 700 LINE",
"391 700 LINE",
"391 263 LINE SMOOTH",
"391 194 OFFCURVE",
"361 151 OFFCURVE",
"301 151 CURVE SMOOTH",
"237 151 OFFCURVE",
"210 195 OFFCURVE",
"208 276 CURVE",
"17 276 LINE",
"26 85 OFFCURVE",
"118 -13 OFFCURVE",
"301 -13 CURVE SMOOTH"
);
}
);
width = 642;
},
{
background = {
paths = (
{
closed = 1;
nodes = (
"433 -13 OFFCURVE",
"533 81 OFFCURVE",
"568 258 CURVE SMOOTH",
"655 700 LINE",
"463 700 LINE",
"376 261 LINE SMOOTH",
"362 192 OFFCURVE",
"328 150 OFFCURVE",
"270 150 CURVE SMOOTH",
"203 150 OFFCURVE",
"189 204 OFFCURVE",
"199 276 CURVE",
"14 276 LINE",
"-13 103 OFFCURVE",
"77 -13 OFFCURVE",
"256 -13 CURVE SMOOTH"
);
}
);
};
layerId = "69B5B248-E33C-46C9-9D9F-11585640C213";
paths = (
{
closed = 1;
nodes = (
"433 -13 OFFCURVE",
"533 81 OFFCURVE",
"568 258 CURVE SMOOTH",
"655 700 LINE",
"463 700 LINE",
"376 261 LINE SMOOTH",
"362 192 OFFCURVE",
"328 150 OFFCURVE",
"270 150 CURVE SMOOTH",
"203 150 OFFCURVE",
"189 204 OFFCURVE",
"199 276 CURVE",
"14 276 LINE",
"-13 103 OFFCURVE",
"77 -13 OFFCURVE",
"256 -13 CURVE SMOOTH"
);
}
);
width = 634;
}
);
leftKerningGroup = J;
note = J;
rightKerningGroup = J;
},
{
color = 4;
export = 0;
glyphname = A.ss03;
lastChange = "2021-09-06 19:22:32 +0000";
layers = (
{
background = {
paths = (
{
closed = 1;
nodes = (
"107 0 LINE",
"183 192 LINE",
"518 192 LINE",
"595 0 LINE",
"685 0 LINE",
"425 643 LINE SMOOTH",
"411 679 OFFCURVE",
"382 700 OFFCURVE",
"351 700 CURVE SMOOTH",
"319 700 OFFCURVE",
"290 679 OFFCURVE",
"276 643 CURVE SMOOTH",
"17 0 LINE"
);
},
{
closed = 1;
nodes = (
"342 606 LINE SMOOTH",
"344 612 OFFCURVE",
"354 612 OFFCURVE",
"356 606 CURVE SMOOTH",
"486 270 LINE",
"214 270 LINE"
);
}
);
};
layerId = "30E869CF-9A31-4D47-9626-61B8364FC2DA";
paths = (
{
closed = 1;
nodes = (
"107 0 LINE",
"183 192 LINE",
"518 192 LINE",
"595 0 LINE",
"685 0 LINE",
"425 643 LINE SMOOTH",
"411 679 OFFCURVE",
"382 700 OFFCURVE",
"351 700 CURVE SMOOTH",
"319 700 OFFCURVE",
"290 679 OFFCURVE",
"276 643 CURVE SMOOTH",
"17 0 LINE"
);
},
{
closed = 1;
nodes = (
"342 606 LINE SMOOTH",
"344 612 OFFCURVE",
"354 612 OFFCURVE",
"356 606 CURVE SMOOTH",
"486 270 LINE",
"214 270 LINE"
);
}
);
width = 700;
},
{
background = {
paths = (
{
closed = 1;
nodes = (
"67 0 LINE",
"160 223 LINE",
"518 223 LINE",
"612 0 LINE",
"657 0 LINE",
"379 662 LINE SMOOTH",
"368 689 OFFCURVE",
"355 700 OFFCURVE",
"339 700 CURVE SMOOTH",
"323 700 OFFCURVE",
"310 688 OFFCURVE",
"299 661 CURVE SMOOTH",
"22 0 LINE"
);
},
{
closed = 1;
nodes = (
"333 645 LINE SMOOTH",
"335 651 OFFCURVE",
"341 651 OFFCURVE",
"343 645 CURVE SMOOTH",
"502 262 LINE",
"176 262 LINE"
);
}
);
};
layerId = "18A01495-E50D-4F2B-A1D8-5C332C731D93";
paths = (
{
closed = 1;
nodes = (
"67 0 LINE",
"160 223 LINE",
"518 223 LINE",
"612 0 LINE",
"657 0 LINE",
"379 662 LINE SMOOTH",
"368 689 OFFCURVE",
"355 700 OFFCURVE",
"339 700 CURVE SMOOTH",
"323 700 OFFCURVE",
"310 688 OFFCURVE",
"299 661 CURVE SMOOTH",
"22 0 LINE"
);
},
{
closed = 1;
nodes = (
"333 645 LINE SMOOTH",
"335 651 OFFCURVE",
"341 651 OFFCURVE",
"343 645 CURVE SMOOTH",
"502 262 LINE",
"176 262 LINE"
);
}
);
width = 679;
},
{
background = {
paths = (
{
closed = 1;
nodes = (
"14 0 LINE",
"148 223 LINE",
"498 223 LINE",
"546 0 LINE",
"589 0 LINE",
"447 656 LINE SMOOTH",
"441 686 OFFCURVE",
"429 700 OFFCURVE",
"414 700 CURVE SMOOTH",
"398 700 OFFCURVE",
"384 690 OFFCURVE",
"370 666 CURVE SMOOTH",
"-34 0 LINE"
);
},
{
closed = 1;
nodes = (
"400 640 LINE SMOOTH",
"403 646 OFFCURVE",
"409 645 OFFCURVE",
"410 639 CURVE SMOOTH",
"489 262 LINE",
"172 262 LINE"
);
}
);
};
layerId = "047DE625-588D-43A1-AE3A-C97924B5E3D3";
paths = (
{
closed = 1;
nodes = (
"14 0 LINE",
"148 223 LINE",
"498 223 LINE",
"546 0 LINE",
"589 0 LINE",
"447 656 LINE SMOOTH",
"441 686 OFFCURVE",
"429 700 OFFCURVE",
"414 700 CURVE SMOOTH",
"398 700 OFFCURVE",
"384 690 OFFCURVE",
"370 666 CURVE SMOOTH",
"-34 0 LINE"
);
},
{
closed = 1;
nodes = (
"400 640 LINE SMOOTH",
"403 646 OFFCURVE",
"409 645 OFFCURVE",
"410 639 CURVE SMOOTH",
"489 262 LINE",
"172 262 LINE"
);
}
);
width = 670;
},
{
background = {
paths = (
{
closed = 1;
nodes = (
"50 0 LINE",
"163 195 LINE",
"489 195 LINE",
"527 0 LINE",
"612 0 LINE",
"487 611 LINE SMOOTH",
"475 670 OFFCURVE",
"453 700 OFFCURVE",
"421 700 CURVE SMOOTH",
"388 700 OFFCURVE",
"361 680 OFFCURVE",
"333 632 CURVE SMOOTH",
"-41 0 LINE"
);
},
{
closed = 1;
nodes = (
"398 601 LINE SMOOTH",
"402 609 OFFCURVE",
"409 608 OFFCURVE",
"411 599 CURVE SMOOTH",
"475 268 LINE",
"206 268 LINE"
);
}
);
};
layerId = "AB33B01D-3E13-404E-935A-045AA6D07EB8";
paths = (
{
closed = 1;
nodes = (
"50 0 LINE",
"163 195 LINE",
"489 195 LINE",
"527 0 LINE",
"612 0 LINE",
"487 611 LINE SMOOTH",
"475 670 OFFCURVE",
"453 700 OFFCURVE",
"421 700 CURVE SMOOTH",
"388 700 OFFCURVE",
"361 680 OFFCURVE",
"333 632 CURVE SMOOTH",
"-41 0 LINE"
);
},
{
closed = 1;
nodes = (
"398 601 LINE SMOOTH",
"402 609 OFFCURVE",
"409 608 OFFCURVE",
"411 599 CURVE SMOOTH",
"475 268 LINE",
"206 268 LINE"
);
}
);
width = 688;
},
{
background = {
paths = (
{
closed = 1;
nodes = (
"206 0 LINE",
"245 123 LINE",
"512 123 LINE",
"552 0 LINE",
"754 0 LINE",
"559 547 LINE SMOOTH",
"522 651 OFFCURVE",
"465 700 OFFCURVE",
"382 700 CURVE SMOOTH",
"299 700 OFFCURVE",
"241 651 OFFCURVE",
"204 547 CURVE SMOOTH",
"9 0 LINE"
);
},
{
closed = 1;
nodes = (
"363 517 LINE SMOOTH",
"370 540 OFFCURVE",
"389 540 OFFCURVE",
"395 517 CURVE SMOOTH",
"463 273 LINE",
"294 273 LINE"
);
}
);
};
layerId = "9D32FE6F-9470-45EF-9689-909A6F5CE504";
paths = (
{
closed = 1;
nodes = (
"206 0 LINE",
"245 123 LINE",
"512 123 LINE",
"552 0 LINE",
"754 0 LINE",
"559 547 LINE SMOOTH",
"522 651 OFFCURVE",
"465 700 OFFCURVE",
"382 700 CURVE SMOOTH",
"299 700 OFFCURVE",
"241 651 OFFCURVE",
"204 547 CURVE SMOOTH",
"9 0 LINE"
);
},
{
closed = 1;
nodes = (
"363 517 LINE SMOOTH",
"370 540 OFFCURVE",
"389 540 OFFCURVE",
"395 517 CURVE SMOOTH",
"463 273 LINE",
"294 273 LINE"
);
}
);
width = 763;
},
{
background = {
paths = (
{
closed = 1;
nodes = (
"155 0 LINE",
"218 123 LINE",
"479 123 LINE",
"494 0 LINE",
"684 0 LINE",
"601 526 LINE SMOOTH",
"583 641 OFFCURVE",
"533 700 OFFCURVE",
"453 700 CURVE SMOOTH",
"370 700 OFFCURVE",
"309 659 OFFCURVE",
"259 566 CURVE SMOOTH",
"-49 0 LINE"
);
},
{
closed = 1;
nodes = (
"408 521 LINE SMOOTH",
"418 543 OFFCURVE",
"438 541 OFFCURVE",
"440 516 CURVE SMOOTH",
"461 272 LINE",
"294 272 LINE"
);
}
);
};
layerId = "69B5B248-E33C-46C9-9D9F-11585640C213";
paths = (
{
closed = 1;
nodes = (
"155 0 LINE",
"218 123 LINE",
"479 123 LINE",
"494 0 LINE",
"684 0 LINE",
"601 526 LINE SMOOTH",
"583 641 OFFCURVE",
"533 700 OFFCURVE",
"453 700 CURVE SMOOTH",
"370 700 OFFCURVE",
"309 659 OFFCURVE",
"259 566 CURVE SMOOTH",
"-49 0 LINE"
);
},
{
closed = 1;
nodes = (
"408 521 LINE SMOOTH",
"418 543 OFFCURVE",
"438 541 OFFCURVE",
"440 516 CURVE SMOOTH",
"461 272 LINE",
"294 272 LINE"
);
}
);
width = 752;
}
);
leftKerningGroup = A;
note = A;
rightKerningGroup = A;
},
{
color = 4;
glyphname = W_W;
lastChange = "2021-09-06 19:22:32 +0000";
layers = (
{
background = {
paths = (
{
closed = 1;
nodes = (
"328 0 LINE",
"492 597 LINE",
"656 0 LINE",
"764 0 LINE",
"919 549 LINE",
"1070 0 LINE",
"1178 0 LINE",
"1376 700 LINE",
"1287 700 LINE",
"1124 106 LINE",
"962 700 LINE",
"873 700 LINE",
"710 106 LINE",
"547 700 LINE",
"441 700 LINE",
"278 106 LINE",
"115 700 LINE",
"22 700 LINE",
"220 0 LINE"
);
}
);
};
layerId = "30E869CF-9A31-4D47-9626-61B8364FC2DA";
paths = (
{
closed = 1;
nodes = (
"328 0 LINE",
"492 597 LINE",
"656 0 LINE",
"764 0 LINE",
"919 549 LINE",
"1070 0 LINE",
"1178 0 LINE",
"1376 700 LINE",
"1287 700 LINE",
"1124 106 LINE",
"962 700 LINE",
"873 700 LINE",
"710 106 LINE",
"547 700 LINE",
"441 700 LINE",
"278 106 LINE",
"115 700 LINE",
"22 700 LINE",
"220 0 LINE"
);
}
);
width = 1398;
},
{
background = {
paths = (
{
closed = 1;
nodes = (
"294 0 LINE",
"486 646 LINE",
"678 0 LINE",
"728 0 LINE",
"927 643 LINE",
"1118 0 LINE",
"1168 0 LINE",
"1385 700 LINE",
"1342 700 LINE",
"1143 52 LINE",
"952 700 LINE",
"902 700 LINE",
"703 52 LINE",
"512 700 LINE",
"462 700 LINE",
"270 52 LINE",
"71 700 LINE",
"26 700 LINE",
"243 0 LINE"
);
}
);
};
layerId = "18A01495-E50D-4F2B-A1D8-5C332C731D93";
paths = (
{
closed = 1;
nodes = (
"294 0 LINE",
"486 646 LINE",
"678 0 LINE",
"728 0 LINE",
"927 643 LINE",
"1118 0 LINE",
"1168 0 LINE",
"1385 700 LINE",
"1342 700 LINE",
"1143 52 LINE",
"952 700 LINE",
"902 700 LINE",
"703 52 LINE",
"512 700 LINE",
"462 700 LINE",
"270 52 LINE",
"71 700 LINE",
"26 700 LINE",
"243 0 LINE"
);
}
);
width = 1411;
},
{
background = {
paths = (
{
closed = 1;
nodes = (
"230 0 LINE",
"544 644 LINE",
"607 0 LINE",
"656 0 LINE",
"981 649 LINE",
"1045 0 LINE",
"1094 0 LINE",
"1445 700 LINE",
"1400 700 LINE",
"1077 52 LINE",
"1015 700 LINE",
"962 700 LINE",
"639 52 LINE",
"577 700 LINE",
"530 700 LINE",
"214 53 LINE",
"144 700 LINE",
"103 700 LINE",
"180 0 LINE"
);
}
);
};
layerId = "047DE625-588D-43A1-AE3A-C97924B5E3D3";
paths = (
{
closed = 1;
nodes = (
"230 0 LINE",
"544 644 LINE",
"607 0 LINE",
"656 0 LINE",
"981 649 LINE",
"1045 0 LINE",
"1094 0 LINE",
"1445 700 LINE",
"1400 700 LINE",
"1077 52 LINE",
"1015 700 LINE",
"962 700 LINE",
"639 52 LINE",
"577 700 LINE",
"530 700 LINE",
"214 53 LINE",
"144 700 LINE",
"103 700 LINE",
"180 0 LINE"
);
}
);
width = 1396;
},
{
background = {
paths = (
{
closed = 1;
nodes = (
"261 0 LINE",
"542 601 LINE",
"589 0 LINE",
"690 0 LINE",
"963 575 LINE",
"1008 0 LINE",
"1109 0 LINE",
"1442 700 LINE",
"1356 700 LINE",
"1073 97 LINE",
"1026 700 LINE",
"937 700 LINE",
"654 97 LINE",
"608 700 LINE",
"510 700 LINE",
"229 97 LINE",
"181 700 LINE",
"99 700 LINE",
"160 0 LINE"
);
}
);
};
layerId = "AB33B01D-3E13-404E-935A-045AA6D07EB8";
paths = (
{
closed = 1;
nodes = (
"261 0 LINE",
"542 601 LINE",
"589 0 LINE",
"690 0 LINE",
"963 575 LINE",
"1008 0 LINE",
"1109 0 LINE",
"1442 700 LINE",
"1356 700 LINE",
"1073 97 LINE",
"1026 700 LINE",
"937 700 LINE",
"654 97 LINE",
"608 700 LINE",
"510 700 LINE",
"229 97 LINE",
"181 700 LINE",
"99 700 LINE",
"160 0 LINE"
);
}
);
width = 1388;
},
{
background = {
paths = (
{
closed = 1;
nodes = (
"407 0 LINE",
"530 476 LINE",
"654 0 LINE",
"860 0 LINE",
"986 478 LINE",
"1111 0 LINE",
"1317 0 LINE",
"1502 700 LINE",
"1314 700 LINE",
"1201 234 LINE",
"1082 700 LINE",
"857 700 LINE",
"744 234 LINE",
"625 700 LINE",
"440 700 LINE",
"322 238 LINE",
"208 700 LINE",
"14 700 LINE",
"200 0 LINE"
);
}
);
};
layerId = "9D32FE6F-9470-45EF-9689-909A6F5CE504";
paths = (
{
closed = 1;
nodes = (
"407 0 LINE",
"530 476 LINE",
"654 0 LINE",
"860 0 LINE",
"986 478 LINE",
"1111 0 LINE",
"1317 0 LINE",
"1502 700 LINE",
"1314 700 LINE",
"1201 234 LINE",
"1082 700 LINE",
"857 700 LINE",
"744 234 LINE",
"625 700 LINE",
"440 700 LINE",
"322 238 LINE",
"208 700 LINE",
"14 700 LINE",
"200 0 LINE"
);
}
);
width = 1517;
},
{
background = {
paths = (
{
closed = 1;
nodes = (
"342 0 LINE",
"556 477 LINE",
"584 0 LINE",
"791 0 LINE",
"1010 480 LINE",
"1038 0 LINE",
"1245 0 LINE",
"1564 700 LINE",
"1369 700 LINE",
"1167 230 LINE",
"1140 700 LINE",
"915 700 LINE",
"713 230 LINE",
"686 700 LINE",
"503 700 LINE",
"297 236 LINE",
"276 700 LINE",
"92 700 LINE",
"139 0 LINE"
);
}
);
};
layerId = "69B5B248-E33C-46C9-9D9F-11585640C213";
paths = (
{
closed = 1;
nodes = (
"342 0 LINE",
"556 477 LINE",
"584 0 LINE",
"791 0 LINE",
"1010 480 LINE",
"1038 0 LINE",
"1245 0 LINE",
"1564 700 LINE",
"1369 700 LINE",
"1167 230 LINE",
"1140 700 LINE",
"915 700 LINE",
"713 230 LINE",
"686 700 LINE",
"503 700 LINE",
"297 236 LINE",
"276 700 LINE",
"92 700 LINE",
"139 0 LINE"
);
}
);
width = 1498;
}
);
leftKerningGroup = W;
leftMetricsKey = W;
note = W;
rightKerningGroup = W;
rightMetricsKey = W;
},
{
color = 5;
glyphname = a;
lastChange = "2022-01-20 12:19:46 +0000";
layers = (
{
background = {
paths = (
{
closed = 1;
nodes = (
"316 -10 OFFCURVE",
"379 36 OFFCURVE",
"403 79 CURVE",
"403 0 LINE",
"479 0 LINE",
"479 334 LINE SMOOTH",
"479 455 OFFCURVE",
"399 510 OFFCURVE",
"282 510 CURVE SMOOTH",
"170 510 OFFCURVE",
"75 460 OFFCURVE",
"65 349 CURVE",
"150 349 LINE",
"157 404 OFFCURVE",
"205 435 OFFCURVE",
"274 435 CURVE SMOOTH",
"345 435 OFFCURVE",
"394 405 OFFCURVE",
"394 333 CURVE SMOOTH",
"394 320 OFFCURVE",
"390 312 OFFCURVE",
"378 311 CURVE SMOOTH",
"225 292 LINE SMOOTH",
"118 279 OFFCURVE",
"47 234 OFFCURVE",
"47 139 CURVE SMOOTH",
"47 47 OFFCURVE",
"123 -10 OFFCURVE",
"225 -10 CURVE SMOOTH"
);
},
{
closed = 1;
nodes = (
"173 69 OFFCURVE",
"134 96 OFFCURVE",
"134 142 CURVE SMOOTH",
"134 177 OFFCURVE",
"154 208 OFFCURVE",
"232 220 CURVE SMOOTH",
"394 244 LINE",
"394 212 LINE SMOOTH",
"394 110 OFFCURVE",
"319 69 OFFCURVE",
"238 69 CURVE SMOOTH"
);
}
);
};
layerId = "30E869CF-9A31-4D47-9626-61B8364FC2DA";
paths = (
{
closed = 1;
nodes = (
"316 -10 OFFCURVE",
"379 36 OFFCURVE",
"403 79 CURVE",
"403 0 LINE",
"479 0 LINE",
"479 334 LINE SMOOTH",
"479 455 OFFCURVE",
"399 510 OFFCURVE",
"282 510 CURVE SMOOTH",
"170 510 OFFCURVE",
"75 460 OFFCURVE",
"65 349 CURVE",
"150 349 LINE",
"157 404 OFFCURVE",
"205 435 OFFCURVE",
"274 435 CURVE SMOOTH",
"345 435 OFFCURVE",
"394 405 OFFCURVE",
"394 333 CURVE SMOOTH",
"394 320 OFFCURVE",
"390 312 OFFCURVE",
"378 311 CURVE SMOOTH",
"225 292 LINE SMOOTH",
"118 279 OFFCURVE",
"47 234 OFFCURVE",
"47 139 CURVE SMOOTH",
"47 47 OFFCURVE",
"123 -10 OFFCURVE",
"225 -10 CURVE SMOOTH"
);
},
{
closed = 1;
nodes = (
"173 69 OFFCURVE",
"134 96 OFFCURVE",
"134 142 CURVE SMOOTH",
"134 177 OFFCURVE",
"154 208 OFFCURVE",
"232 220 CURVE SMOOTH",
"394 244 LINE",
"394 212 LINE SMOOTH",
"394 110 OFFCURVE",
"319 69 OFFCURVE",
"238 69 CURVE SMOOTH"
);
}
);
width = 552;
},
{
background = {
paths = (
{
closed = 1;
nodes = (
"300 -10 OFFCURVE",
"378 25 OFFCURVE",
"411 101 CURVE",
"411 0 LINE",
"451 0 LINE",
"451 344 LINE SMOOTH",
"451 461 OFFCURVE",
"367 510 OFFCURVE",
"267 510 CURVE SMOOTH",
"174 510 OFFCURVE",
"79 468 OFFCURVE",
"66 360 CURVE",
"109 360 LINE",
"120 437 OFFCURVE",
"180 475 OFFCURVE",
"263 475 CURVE SMOOTH",
"351 475 OFFCURVE",
"411 441 OFFCURVE",
"411 327 CURVE SMOOTH",
"411 306 OFFCURVE",
"406 299 OFFCURVE",
"393 297 CURVE SMOOTH",
"193 268 LINE SMOOTH",
"104 255 OFFCURVE",
"52 205 OFFCURVE",
"52 128 CURVE SMOOTH",
"52 29 OFFCURVE",
"140 -10 OFFCURVE",
"222 -10 CURVE SMOOTH"
);
},
{
closed = 1;
nodes = (
"158 25 OFFCURVE",
"92 56 OFFCURVE",
"92 130 CURVE SMOOTH",
"92 183 OFFCURVE",
"125 219 OFFCURVE",
"192 229 CURVE SMOOTH",
"411 262 LINE",
"411 214 LINE SMOOTH",
"411 91 OFFCURVE",
"327 25 OFFCURVE",
"225 25 CURVE SMOOTH"
);
}
);
};
layerId = "18A01495-E50D-4F2B-A1D8-5C332C731D93";
paths = (
{
closed = 1;
nodes = (
"300 -10 OFFCURVE",
"378 25 OFFCURVE",
"411 101 CURVE",
"411 0 LINE",
"451 0 LINE",
"451 344 LINE SMOOTH",
"451 461 OFFCURVE",
"367 510 OFFCURVE",
"267 510 CURVE SMOOTH",
"174 510 OFFCURVE",
"79 468 OFFCURVE",
"66 360 CURVE",
"109 360 LINE",
"120 437 OFFCURVE",
"180 475 OFFCURVE",
"263 475 CURVE SMOOTH",
"351 475 OFFCURVE",
"411 441 OFFCURVE",
"411 327 CURVE SMOOTH",
"411 306 OFFCURVE",
"406 299 OFFCURVE",
"393 297 CURVE SMOOTH",
"193 268 LINE SMOOTH",
"104 255 OFFCURVE",
"52 205 OFFCURVE",
"52 128 CURVE SMOOTH",
"52 29 OFFCURVE",
"140 -10 OFFCURVE",
"222 -10 CURVE SMOOTH"
);
},
{
closed = 1;
nodes = (
"158 25 OFFCURVE",
"92 56 OFFCURVE",
"92 130 CURVE SMOOTH",
"92 183 OFFCURVE",
"125 219 OFFCURVE",
"192 229 CURVE SMOOTH",
"411 262 LINE",
"411 214 LINE SMOOTH",
"411 91 OFFCURVE",
"327 25 OFFCURVE",
"225 25 CURVE SMOOTH"
);
}
);
width = 533;
},
{
background = {
paths = (
{
closed = 1;
nodes = (
"249 -10 OFFCURVE",
"323 23 OFFCURVE",
"368 96 CURVE",
"349 0 LINE",
"389 0 LINE",
"452 326 LINE SMOOTH",
"475 443 OFFCURVE",
"407 510 OFFCURVE",
"293 510 CURVE SMOOTH",
"192 510 OFFCURVE",
"104 458 OFFCURVE",
"82 360 CURVE",
"124 360 LINE",
"145 432 OFFCURVE",
"209 473 OFFCURVE",
"291 473 CURVE SMOOTH",
"377 473 OFFCURVE",
"435 427 OFFCURVE",
"411 327 CURVE SMOOTH",
"408 316 OFFCURVE",
"402 310 OFFCURVE",
"391 308 CURVE SMOOTH",
"183 273 LINE SMOOTH",
"87 257 OFFCURVE",
"21 204 OFFCURVE",
"21 120 CURVE SMOOTH",
"21 39 OFFCURVE",
"84 -10 OFFCURVE",
"175 -10 CURVE SMOOTH"
);
},
{
closed = 1;
nodes = (
"111 27 OFFCURVE",
"63 60 OFFCURVE",
"63 121 CURVE SMOOTH",
"63 182 OFFCURVE",
"108 224 OFFCURVE",
"183 236 CURVE SMOOTH",
"400 272 LINE",
"388 209 LINE SMOOTH",
"367 98 OFFCURVE",
"282 27 OFFCURVE",
"180 27 CURVE SMOOTH"
);
}
);
};
guideLines = (
{
angle = 260.2867;
position = "{379, 154}";
}
);
layerId = "047DE625-588D-43A1-AE3A-C97924B5E3D3";
paths = (
{
closed = 1;
nodes = (
"249 -10 OFFCURVE",
"323 23 OFFCURVE",
"368 96 CURVE",
"349 0 LINE",
"389 0 LINE",
"452 326 LINE SMOOTH",
"475 443 OFFCURVE",
"407 510 OFFCURVE",
"293 510 CURVE SMOOTH",
"192 510 OFFCURVE",
"104 458 OFFCURVE",
"82 360 CURVE",
"124 360 LINE",
"145 432 OFFCURVE",
"209 473 OFFCURVE",
"291 473 CURVE SMOOTH",
"377 473 OFFCURVE",
"435 427 OFFCURVE",
"411 327 CURVE SMOOTH",
"408 316 OFFCURVE",
"402 310 OFFCURVE",
"391 308 CURVE SMOOTH",
"183 273 LINE SMOOTH",
"87 257 OFFCURVE",
"21 204 OFFCURVE",
"21 120 CURVE SMOOTH",
"21 39 OFFCURVE",
"84 -10 OFFCURVE",
"175 -10 CURVE SMOOTH"
);
},
{
closed = 1;
nodes = (
"111 27 OFFCURVE",
"63 60 OFFCURVE",
"63 121 CURVE SMOOTH",
"63 182 OFFCURVE",
"108 224 OFFCURVE",
"183 236 CURVE SMOOTH",
"400 272 LINE",
"388 209 LINE SMOOTH",
"367 98 OFFCURVE",
"282 27 OFFCURVE",
"180 27 CURVE SMOOTH"
);
}
);
width = 527;
},
{
background = {
paths = (
{
closed = 1;
nodes = (
"242 -10 OFFCURVE",
"307 17 OFFCURVE",
"353 78 CURVE",
"338 0 LINE",
"411 0 LINE",
"475 324 LINE SMOOTH",
"498 441 OFFCURVE",
"423 510 OFFCURVE",
"301 510 CURVE SMOOTH",
"193 510 OFFCURVE",
"96 458 OFFCURVE",
"75 351 CURVE",
"155 351 LINE",
"172 413 OFFCURVE",
"224 445 OFFCURVE",
"295 445 CURVE SMOOTH",
"382 445 OFFCURVE",
"414 404 OFFCURVE",
"397 326 CURVE SMOOTH",
"395 314 OFFCURVE",
"388 309 OFFCURVE",
"377 307 CURVE SMOOTH",
"156 276 LINE SMOOTH",
"70 264 OFFCURVE",
"16 203 OFFCURVE",
"16 123 CURVE SMOOTH",
"16 35 OFFCURVE",
"85 -10 OFFCURVE",
"173 -10 CURVE SMOOTH"
);
},
{
closed = 1;
nodes = (
"138 56 OFFCURVE",
"96 79 OFFCURVE",
"96 132 CURVE SMOOTH",
"96 186 OFFCURVE",
"140 219 OFFCURVE",
"205 227 CURVE SMOOTH",
"382 249 LINE",
"374 210 LINE SMOOTH",
"355 114 OFFCURVE",
"279 56 OFFCURVE",
"192 56 CURVE SMOOTH"
);
}
);
};
layerId = "AB33B01D-3E13-404E-935A-045AA6D07EB8";
paths = (
{
closed = 1;
nodes = (
"242 -10 OFFCURVE",
"307 17 OFFCURVE",
"353 78 CURVE",
"338 0 LINE",
"411 0 LINE",
"475 324 LINE SMOOTH",
"498 441 OFFCURVE",
"423 510 OFFCURVE",
"301 510 CURVE SMOOTH",
"193 510 OFFCURVE",
"96 458 OFFCURVE",
"75 351 CURVE",
"155 351 LINE",
"172 413 OFFCURVE",
"224 445 OFFCURVE",
"295 445 CURVE SMOOTH",
"382 445 OFFCURVE",
"414 404 OFFCURVE",
"397 326 CURVE SMOOTH",
"395 314 OFFCURVE",
"388 309 OFFCURVE",
"377 307 CURVE SMOOTH",
"156 276 LINE SMOOTH",
"70 264 OFFCURVE",
"16 203 OFFCURVE",
"16 123 CURVE SMOOTH",
"16 35 OFFCURVE",
"85 -10 OFFCURVE",
"173 -10 CURVE SMOOTH"
);
},
{
closed = 1;
nodes = (
"138 56 OFFCURVE",
"96 79 OFFCURVE",
"96 132 CURVE SMOOTH",
"96 186 OFFCURVE",
"140 219 OFFCURVE",
"205 227 CURVE SMOOTH",
"382 249 LINE",
"374 210 LINE SMOOTH",
"355 114 OFFCURVE",
"279 56 OFFCURVE",
"192 56 CURVE SMOOTH"
);
}
);
width = 542;
},
{
background = {
paths = (
{
closed = 1;
nodes = (
"286 -11 OFFCURVE",
"347 16 OFFCURVE",
"383 67 CURVE",
"383 0 LINE",
"548 0 LINE",
"548 297 LINE SMOOTH",
"548 439 OFFCURVE",
"472 510 OFFCURVE",
"307 510 CURVE SMOOTH",
"152 510 OFFCURVE",
"60 448 OFFCURVE",
"47 331 CURVE",
"216 331 LINE",
"220 373 OFFCURVE",
"249 395 OFFCURVE",
"297 395 CURVE SMOOTH",
"342 395 OFFCURVE",
"370 375 OFFCURVE",
"370 329 CURVE SMOOTH",
"370 317 OFFCURVE",
"363 309 OFFCURVE",
"351 308 CURVE SMOOTH",
"193 291 LINE SMOOTH",
"93 280 OFFCURVE",
"28 231 OFFCURVE",
"28 142 CURVE SMOOTH",
"28 43 OFFCURVE",
"109 -11 OFFCURVE",
"213 -11 CURVE SMOOTH"
);
},
{
closed = 1;
nodes = (
"231 101 OFFCURVE",
"201 117 OFFCURVE",
"201 150 CURVE SMOOTH",
"201 177 OFFCURVE",
"221 198 OFFCURVE",
"255 202 CURVE SMOOTH",
"370 216 LINE",
"370 194 LINE SMOOTH",
"370 132 OFFCURVE",
"323 101 OFFCURVE",
"271 101 CURVE SMOOTH"
);
}
);
};
layerId = "9D32FE6F-9470-45EF-9689-909A6F5CE504";
paths = (
{
closed = 1;
nodes = (
"286 -11 OFFCURVE",
"347 16 OFFCURVE",
"383 67 CURVE",
"383 0 LINE",
"548 0 LINE",
"548 297 LINE SMOOTH",
"548 439 OFFCURVE",
"472 510 OFFCURVE",
"307 510 CURVE SMOOTH",
"152 510 OFFCURVE",
"60 448 OFFCURVE",
"47 331 CURVE",
"216 331 LINE",
"220 373 OFFCURVE",
"249 395 OFFCURVE",
"297 395 CURVE SMOOTH",
"342 395 OFFCURVE",
"370 375 OFFCURVE",
"370 329 CURVE SMOOTH",
"370 317 OFFCURVE",
"363 309 OFFCURVE",
"351 308 CURVE SMOOTH",
"193 291 LINE SMOOTH",
"93 280 OFFCURVE",
"28 231 OFFCURVE",
"28 142 CURVE SMOOTH",
"28 43 OFFCURVE",
"109 -11 OFFCURVE",
"213 -11 CURVE SMOOTH"
);
},
{
closed = 1;
nodes = (
"231 101 OFFCURVE",
"201 117 OFFCURVE",
"201 150 CURVE SMOOTH",
"201 177 OFFCURVE",
"221 198 OFFCURVE",
"255 202 CURVE SMOOTH",
"370 216 LINE",
"370 194 LINE SMOOTH",
"370 132 OFFCURVE",
"323 101 OFFCURVE",
"271 101 CURVE SMOOTH"
);
}
);
width = 599;
},
{
background = {
paths = (
{
closed = 1;
nodes = (
"232 -11 OFFCURVE",
"294 16 OFFCURVE",
"333 65 CURVE",
"321 0 LINE",
"486 0 LINE",
"544 294 LINE SMOOTH",
"574 444 OFFCURVE",
"485 510 OFFCURVE",
"332 510 CURVE SMOOTH",
"177 510 OFFCURVE",
"81 442 OFFCURVE",
"57 333 CURVE",
"223 333 LINE",
"235 376 OFFCURVE",
"267 398 OFFCURVE",
"313 398 CURVE SMOOTH",
"357 398 OFFCURVE",
"384 377 OFFCURVE",
"374 326 CURVE SMOOTH",
"372 315 OFFCURVE",
"364 309 OFFCURVE",
"353 308 CURVE SMOOTH",
"228 299 LINE SMOOTH",
"75 288 OFFCURVE",
"0 223 OFFCURVE",
"0 127 CURVE SMOOTH",
"0 37 OFFCURVE",
"66 -11 OFFCURVE",
"161 -11 CURVE SMOOTH"
);
},
{
closed = 1;
nodes = (
"199 104 OFFCURVE",
"172 119 OFFCURVE",
"172 149 CURVE SMOOTH",
"172 183 OFFCURVE",
"206 205 OFFCURVE",
"257 210 CURVE SMOOTH",
"351 219 LINE",
"347 197 LINE SMOOTH",
"336 135 OFFCURVE",
"286 104 OFFCURVE",
"234 104 CURVE SMOOTH"
);
}
);
};
layerId = "69B5B248-E33C-46C9-9D9F-11585640C213";
paths = (
{
closed = 1;
nodes = (
"232 -11 OFFCURVE",
"294 16 OFFCURVE",
"333 65 CURVE",
"321 0 LINE",
"486 0 LINE",
"544 294 LINE SMOOTH",
"574 444 OFFCURVE",
"485 510 OFFCURVE",
"332 510 CURVE SMOOTH",
"177 510 OFFCURVE",
"81 442 OFFCURVE",
"57 333 CURVE",
"223 333 LINE",
"235 376 OFFCURVE",
"267 398 OFFCURVE",
"313 398 CURVE SMOOTH",
"357 398 OFFCURVE",
"384 377 OFFCURVE",
"374 326 CURVE SMOOTH",
"372 315 OFFCURVE",
"364 309 OFFCURVE",
"353 308 CURVE SMOOTH",
"228 299 LINE SMOOTH",
"75 288 OFFCURVE",
"0 223 OFFCURVE",
"0 127 CURVE SMOOTH",
"0 37 OFFCURVE",
"66 -11 OFFCURVE",
"161 -11 CURVE SMOOTH"
);
},
{
closed = 1;
nodes = (
"199 104 OFFCURVE",
"172 119 OFFCURVE",
"172 149 CURVE SMOOTH",
"172 183 OFFCURVE",
"206 205 OFFCURVE",
"257 210 CURVE SMOOTH",
"351 219 LINE",
"347 197 LINE SMOOTH",
"336 135 OFFCURVE",
"286 104 OFFCURVE",
"234 104 CURVE SMOOTH"
);
}
);
width = 591;
}
);
leftKerningGroup = a;
note = a;
rightKerningGroup = a;
unicode = 0061;
},
{
color = 5;
glyphname = b;
lastChange = "2022-01-20 12:19:46 +0000";
layers = (
{
background = {
paths = (
{
closed = 1;
nodes = (
"462 -10 OFFCURVE",
"561 94 OFFCURVE",
"561 254 CURVE SMOOTH",
"561 409 OFFCURVE",
"464 510 OFFCURVE",
"331 510 CURVE SMOOTH",
"262 510 OFFCURVE",
"201 482 OFFCURVE",
"164 427 CURVE",
"164 700 LINE",
"79 700 LINE",
"79 0 LINE",
"159 0 LINE",
"159 82 LINE",
"192 22 OFFCURVE",
"259 -10 OFFCURVE",
"331 -10 CURVE SMOOTH"
);
},
{
closed = 1;
nodes = (
"217 65 OFFCURVE",
"159 146 OFFCURVE",
"159 254 CURVE SMOOTH",
"159 357 OFFCURVE",
"216 435 OFFCURVE",
"316 435 CURVE SMOOTH",
"419 435 OFFCURVE",
"476 357 OFFCURVE",
"476 254 CURVE SMOOTH",
"476 147 OFFCURVE",
"420 65 OFFCURVE",
"316 65 CURVE SMOOTH"
);
}
);
};
layerId = "30E869CF-9A31-4D47-9626-61B8364FC2DA";
paths = (
{
closed = 1;
nodes = (
"462 -10 OFFCURVE",
"561 94 OFFCURVE",
"561 254 CURVE SMOOTH",
"561 409 OFFCURVE",
"464 510 OFFCURVE",
"331 510 CURVE SMOOTH",
"262 510 OFFCURVE",
"201 482 OFFCURVE",
"164 427 CURVE",
"164 700 LINE",
"79 700 LINE",
"79 0 LINE",
"159 0 LINE",
"159 82 LINE",
"192 22 OFFCURVE",
"259 -10 OFFCURVE",
"331 -10 CURVE SMOOTH"
);
},
{
closed = 1;
nodes = (
"217 65 OFFCURVE",
"159 146 OFFCURVE",
"159 254 CURVE SMOOTH",
"159 357 OFFCURVE",
"216 435 OFFCURVE",
"316 435 CURVE SMOOTH",
"419 435 OFFCURVE",
"476 357 OFFCURVE",
"476 254 CURVE SMOOTH",
"476 147 OFFCURVE",
"420 65 OFFCURVE",
"316 65 CURVE SMOOTH"
);
}
);
width = 606;
},
{
background = {
paths = (
{
closed = 1;
nodes = (
"440 -10 OFFCURVE",
"548 84 OFFCURVE",
"548 254 CURVE SMOOTH",
"548 394 OFFCURVE",
"464 510 OFFCURVE",
"321 510 CURVE SMOOTH",
"239 510 OFFCURVE",
"169 469 OFFCURVE",
"133 393 CURVE",
"133 700 LINE",
"93 700 LINE",
"93 0 LINE",
"132 0 LINE",
"132 114 LINE",
"166 38 OFFCURVE",
"238 -10 OFFCURVE",
"322 -10 CURVE SMOOTH"
);
},
{
closed = 1;
nodes = (
"194 25 OFFCURVE",
"132 130 OFFCURVE",
"132 254 CURVE SMOOTH",
"132 373 OFFCURVE",
"193 475 OFFCURVE",
"319 475 CURVE SMOOTH",
"446 475 OFFCURVE",
"508 372 OFFCURVE",
"508 254 CURVE SMOOTH",
"508 114 OFFCURVE",
"433 25 OFFCURVE",
"319 25 CURVE SMOOTH"
);
}
);
};
layerId = "18A01495-E50D-4F2B-A1D8-5C332C731D93";
paths = (
{
closed = 1;
nodes = (
"440 -10 OFFCURVE",
"548 84 OFFCURVE",
"548 254 CURVE SMOOTH",
"548 394 OFFCURVE",
"464 510 OFFCURVE",
"321 510 CURVE SMOOTH",
"239 510 OFFCURVE",
"169 469 OFFCURVE",
"133 393 CURVE",
"133 700 LINE",
"93 700 LINE",
"93 0 LINE",
"132 0 LINE",
"132 114 LINE",
"166 38 OFFCURVE",
"238 -10 OFFCURVE",
"322 -10 CURVE SMOOTH"
);
},
{
closed = 1;
nodes = (
"194 25 OFFCURVE",
"132 130 OFFCURVE",
"132 254 CURVE SMOOTH",
"132 373 OFFCURVE",
"193 475 OFFCURVE",
"319 475 CURVE SMOOTH",
"446 475 OFFCURVE",
"508 372 OFFCURVE",
"508 254 CURVE SMOOTH",
"508 114 OFFCURVE",
"433 25 OFFCURVE",
"319 25 CURVE SMOOTH"
);
}
);
width = 591;
},
{
background = {
paths = (
{
closed = 1;
nodes = (
"433 -10 OFFCURVE",
"531 149 OFFCURVE",
"531 302 CURVE SMOOTH",
"531 419 OFFCURVE",
"461 510 OFFCURVE",
"336 510 CURVE SMOOTH",
"257 510 OFFCURVE",
"186 466 OFFCURVE",
"146 396 CURVE",
"205 700 LINE",
"164 700 LINE",
"28 0 LINE",
"68 0 LINE",
"91 118 LINE",
"115 39 OFFCURVE",
"184 -10 OFFCURVE",
"271 -10 CURVE SMOOTH"
);
},
{
closed = 1;
nodes = (
"176 28 OFFCURVE",
"113 89 OFFCURVE",
"113 200 CURVE SMOOTH",
"113 331 OFFCURVE",
"193 472 OFFCURVE",
"331 472 CURVE SMOOTH",
"425 472 OFFCURVE",
"489 405 OFFCURVE",
"489 304 CURVE SMOOTH",
"489 171 OFFCURVE",
"408 28 OFFCURVE",
"270 28 CURVE SMOOTH"
);
}
);
};
layerId = "047DE625-588D-43A1-AE3A-C97924B5E3D3";
paths = (
{
closed = 1;
nodes = (
"433 -10 OFFCURVE",
"531 149 OFFCURVE",
"531 302 CURVE SMOOTH",
"531 419 OFFCURVE",
"461 510 OFFCURVE",
"336 510 CURVE SMOOTH",
"257 510 OFFCURVE",
"186 466 OFFCURVE",
"146 396 CURVE",
"205 700 LINE",
"164 700 LINE",
"28 0 LINE",
"68 0 LINE",
"91 118 LINE",
"115 39 OFFCURVE",
"184 -10 OFFCURVE",
"271 -10 CURVE SMOOTH"
);
},
{
closed = 1;
nodes = (
"176 28 OFFCURVE",
"113 89 OFFCURVE",
"113 200 CURVE SMOOTH",
"113 331 OFFCURVE",
"193 472 OFFCURVE",
"331 472 CURVE SMOOTH",
"425 472 OFFCURVE",
"489 405 OFFCURVE",
"489 304 CURVE SMOOTH",
"489 171 OFFCURVE",
"408 28 OFFCURVE",
"270 28 CURVE SMOOTH"
);
}
);
width = 586;
},
{
background = {
paths = (
{
closed = 1;
nodes = (
"429 -10 OFFCURVE",
"546 129 OFFCURVE",
"546 302 CURVE SMOOTH",
"546 416 OFFCURVE",
"472 510 OFFCURVE",
"348 510 CURVE SMOOTH",
"284 510 OFFCURVE",
"226 481 OFFCURVE",
"184 430 CURVE",
"236 700 LINE",
"157 700 LINE",
"20 0 LINE",
"97 0 LINE",
"114 86 LINE",
"142 27 OFFCURVE",
"202 -10 OFFCURVE",
"280 -10 CURVE SMOOTH"
);
},
{
closed = 1;
nodes = (
"194 58 OFFCURVE",
"140 111 OFFCURVE",
"140 208 CURVE SMOOTH",
"140 318 OFFCURVE",
"207 442 OFFCURVE",
"330 442 CURVE SMOOTH",
"410 442 OFFCURVE",
"464 388 OFFCURVE",
"464 297 CURVE SMOOTH",
"464 167 OFFCURVE",
"383 58 OFFCURVE",
"274 58 CURVE SMOOTH"
);
}
);
};
layerId = "AB33B01D-3E13-404E-935A-045AA6D07EB8";
paths = (
{
closed = 1;
nodes = (
"429 -10 OFFCURVE",
"546 129 OFFCURVE",
"546 302 CURVE SMOOTH",
"546 416 OFFCURVE",
"472 510 OFFCURVE",
"348 510 CURVE SMOOTH",
"284 510 OFFCURVE",
"226 481 OFFCURVE",
"184 430 CURVE",
"236 700 LINE",
"157 700 LINE",
"20 0 LINE",
"97 0 LINE",
"114 86 LINE",
"142 27 OFFCURVE",
"202 -10 OFFCURVE",
"280 -10 CURVE SMOOTH"
);
},
{
closed = 1;
nodes = (
"194 58 OFFCURVE",
"140 111 OFFCURVE",
"140 208 CURVE SMOOTH",
"140 318 OFFCURVE",
"207 442 OFFCURVE",
"330 442 CURVE SMOOTH",
"410 442 OFFCURVE",
"464 388 OFFCURVE",
"464 297 CURVE SMOOTH",
"464 167 OFFCURVE",
"383 58 OFFCURVE",
"274 58 CURVE SMOOTH"
);
}
);
width = 597;
},
{
background = {
paths = (
{
closed = 1;
nodes = (
"511 -11 OFFCURVE",
"615 78 OFFCURVE",
"615 250 CURVE SMOOTH",
"615 392 OFFCURVE",
"532 510 OFFCURVE",
"382 510 CURVE SMOOTH",
"321 510 OFFCURVE",
"269 489 OFFCURVE",
"234 447 CURVE",
"234 700 LINE",
"52 700 LINE",
"52 0 LINE",
"226 0 LINE",
"226 65 LINE",
"259 17 OFFCURVE",
"314 -11 OFFCURVE",
"382 -11 CURVE SMOOTH"
);
},
{
closed = 1;
nodes = (
"268 117 OFFCURVE",
"231 172 OFFCURVE",
"231 250 CURVE SMOOTH",
"231 321 OFFCURVE",
"266 376 OFFCURVE",
"329 376 CURVE SMOOTH",
"391 376 OFFCURVE",
"427 323 OFFCURVE",
"427 250 CURVE SMOOTH",
"427 173 OFFCURVE",
"392 117 OFFCURVE",
"329 117 CURVE SMOOTH"
);
}
);
};
layerId = "9D32FE6F-9470-45EF-9689-909A6F5CE504";
paths = (
{
closed = 1;
nodes = (
"511 -11 OFFCURVE",
"615 78 OFFCURVE",
"615 250 CURVE SMOOTH",
"615 392 OFFCURVE",
"532 510 OFFCURVE",
"382 510 CURVE SMOOTH",
"321 510 OFFCURVE",
"269 489 OFFCURVE",
"234 447 CURVE",
"234 700 LINE",
"52 700 LINE",
"52 0 LINE",
"226 0 LINE",
"226 65 LINE",
"259 17 OFFCURVE",
"314 -11 OFFCURVE",
"382 -11 CURVE SMOOTH"
);
},
{
closed = 1;
nodes = (
"268 117 OFFCURVE",
"231 172 OFFCURVE",
"231 250 CURVE SMOOTH",
"231 321 OFFCURVE",
"266 376 OFFCURVE",
"329 376 CURVE SMOOTH",
"391 376 OFFCURVE",
"427 323 OFFCURVE",
"427 250 CURVE SMOOTH",
"427 173 OFFCURVE",
"392 117 OFFCURVE",
"329 117 CURVE SMOOTH"
);
}
);
width = 644;
},
{
background = {
paths = (
{
closed = 1;
nodes = (
"494 -11 OFFCURVE",
"601 125 OFFCURVE",
"601 295 CURVE SMOOTH",
"601 412 OFFCURVE",
"531 510 OFFCURVE",
"407 510 CURVE SMOOTH",
"349 510 OFFCURVE",
"299 486 OFFCURVE",
"264 452 CURVE",
"311 700 LINE",
"130 700 LINE",
"-6 0 LINE",
"165 0 LINE",
"180 74 LINE",
"208 23 OFFCURVE",
"262 -11 OFFCURVE",
"337 -11 CURVE SMOOTH"
);
},
{
closed = 1;
nodes = (
"247 116 OFFCURVE",
"217 147 OFFCURVE",
"217 208 CURVE SMOOTH",
"217 277 OFFCURVE",
"254 377 OFFCURVE",
"335 377 CURVE SMOOTH",
"386 377 OFFCURVE",
"416 341 OFFCURVE",
"416 280 CURVE SMOOTH",
"416 203 OFFCURVE",
"374 116 OFFCURVE",
"297 116 CURVE SMOOTH"
);
}
);
};
layerId = "69B5B248-E33C-46C9-9D9F-11585640C213";
paths = (
{
closed = 1;
nodes = (
"494 -11 OFFCURVE",
"601 125 OFFCURVE",
"601 295 CURVE SMOOTH",
"601 412 OFFCURVE",
"531 510 OFFCURVE",
"407 510 CURVE SMOOTH",
"349 510 OFFCURVE",
"299 486 OFFCURVE",
"264 452 CURVE",
"311 700 LINE",
"130 700 LINE",
"-6 0 LINE",
"165 0 LINE",
"180 74 LINE",
"208 23 OFFCURVE",
"262 -11 OFFCURVE",
"337 -11 CURVE SMOOTH"
);
},
{
closed = 1;
nodes = (
"247 116 OFFCURVE",
"217 147 OFFCURVE",
"217 208 CURVE SMOOTH",
"217 277 OFFCURVE",
"254 377 OFFCURVE",
"335 377 CURVE SMOOTH",
"386 377 OFFCURVE",
"416 341 OFFCURVE",
"416 280 CURVE SMOOTH",
"416 203 OFFCURVE",
"374 116 OFFCURVE",
"297 116 CURVE SMOOTH"
);
}
);
width = 636;
}
);
note = b;
rightKerningGroup = b;
unicode = 0062;
},
{
color = 5;
glyphname = c;
lastChange = "2022-01-20 12:19:46 +0000";
layers = (
{
background = {
paths = (
{
closed = 1;
nodes = (
"402 -10 OFFCURVE",
"493 59 OFFCURVE",
"508 171 CURVE",
"424 171 LINE",
"410 104 OFFCURVE",
"354 65 OFFCURVE",
"288 65 CURVE SMOOTH",
"193 65 OFFCURVE",
"133 147 OFFCURVE",
"133 253 CURVE SMOOTH",
"133 356 OFFCURVE",
"191 435 OFFCURVE",
"288 435 CURVE SMOOTH",
"352 435 OFFCURVE",
"410 397 OFFCURVE",
"424 330 CURVE",
"508 330 LINE",
"496 437 OFFCURVE",
"406 510 OFFCURVE",
"288 510 CURVE SMOOTH",
"148 510 OFFCURVE",
"44 406 OFFCURVE",
"44 253 CURVE SMOOTH",
"44 98 OFFCURVE",
"144 -10 OFFCURVE",
"287 -10 CURVE SMOOTH"
);
}
);
};
layerId = "30E869CF-9A31-4D47-9626-61B8364FC2DA";
paths = (
{
closed = 1;
nodes = (
"402 -10 OFFCURVE",
"493 59 OFFCURVE",
"508 171 CURVE",
"424 171 LINE",
"410 104 OFFCURVE",
"354 65 OFFCURVE",
"288 65 CURVE SMOOTH",
"193 65 OFFCURVE",
"133 147 OFFCURVE",
"133 253 CURVE SMOOTH",
"133 356 OFFCURVE",
"191 435 OFFCURVE",
"288 435 CURVE SMOOTH",
"352 435 OFFCURVE",
"410 397 OFFCURVE",
"424 330 CURVE",
"508 330 LINE",
"496 437 OFFCURVE",
"406 510 OFFCURVE",
"288 510 CURVE SMOOTH",
"148 510 OFFCURVE",
"44 406 OFFCURVE",
"44 253 CURVE SMOOTH",
"44 98 OFFCURVE",
"144 -10 OFFCURVE",
"287 -10 CURVE SMOOTH"
);
}
);
width = 552;
},
{
background = {
paths = (
{
closed = 1;
nodes = (
"387 -10 OFFCURVE",
"470 57 OFFCURVE",
"488 160 CURVE",
"446 160 LINE",
"428 73 OFFCURVE",
"363 25 OFFCURVE",
"280 25 CURVE SMOOTH",
"166 25 OFFCURVE",
"88 117 OFFCURVE",
"88 252 CURVE SMOOTH",
"88 368 OFFCURVE",
"150 475 OFFCURVE",
"279 475 CURVE SMOOTH",
"360 475 OFFCURVE",
"429 430 OFFCURVE",
"446 343 CURVE",
"488 343 LINE",
"472 443 OFFCURVE",
"387 510 OFFCURVE",
"279 510 CURVE SMOOTH",
"137 510 OFFCURVE",
"48 394 OFFCURVE",
"48 252 CURVE SMOOTH",
"48 91 OFFCURVE",
"152 -10 OFFCURVE",
"280 -10 CURVE SMOOTH"
);
}
);
};
layerId = "18A01495-E50D-4F2B-A1D8-5C332C731D93";
paths = (
{
closed = 1;
nodes = (
"387 -10 OFFCURVE",
"470 57 OFFCURVE",
"488 160 CURVE",
"446 160 LINE",
"428 73 OFFCURVE",
"363 25 OFFCURVE",
"280 25 CURVE SMOOTH",
"166 25 OFFCURVE",
"88 117 OFFCURVE",
"88 252 CURVE SMOOTH",
"88 368 OFFCURVE",
"150 475 OFFCURVE",
"279 475 CURVE SMOOTH",
"360 475 OFFCURVE",
"429 430 OFFCURVE",
"446 343 CURVE",
"488 343 LINE",
"472 443 OFFCURVE",
"387 510 OFFCURVE",
"279 510 CURVE SMOOTH",
"137 510 OFFCURVE",
"48 394 OFFCURVE",
"48 252 CURVE SMOOTH",
"48 91 OFFCURVE",
"152 -10 OFFCURVE",
"280 -10 CURVE SMOOTH"
);
}
);
width = 534;
},
{
background = {
paths = (
{
closed = 1;
nodes = (
"343 -10 OFFCURVE",
"423 60 OFFCURVE",
"457 160 CURVE",
"415 160 LINE",
"384 81 OFFCURVE",
"323 29 OFFCURVE",
"240 29 CURVE SMOOTH",
"140 29 OFFCURVE",
"78 102 OFFCURVE",
"78 206 CURVE SMOOTH",
"78 333 OFFCURVE",
"163 472 OFFCURVE",
"298 472 CURVE SMOOTH",
"377 472 OFFCURVE",
"444 427 OFFCURVE",
"448 342 CURVE",
"490 342 LINE",
"487 444 OFFCURVE",
"404 510 OFFCURVE",
"303 510 CURVE SMOOTH",
"136 510 OFFCURVE",
"36 354 OFFCURVE",
"36 204 CURVE SMOOTH",
"36 82 OFFCURVE",
"113 -10 OFFCURVE",
"236 -10 CURVE SMOOTH"
);
}
);
};
layerId = "047DE625-588D-43A1-AE3A-C97924B5E3D3";
paths = (
{
closed = 1;
nodes = (
"343 -10 OFFCURVE",
"423 60 OFFCURVE",
"457 160 CURVE",
"415 160 LINE",
"384 81 OFFCURVE",
"323 29 OFFCURVE",
"240 29 CURVE SMOOTH",
"140 29 OFFCURVE",
"78 102 OFFCURVE",
"78 206 CURVE SMOOTH",
"78 333 OFFCURVE",
"163 472 OFFCURVE",
"298 472 CURVE SMOOTH",
"377 472 OFFCURVE",
"444 427 OFFCURVE",
"448 342 CURVE",
"490 342 LINE",
"487 444 OFFCURVE",
"404 510 OFFCURVE",
"303 510 CURVE SMOOTH",
"136 510 OFFCURVE",
"36 354 OFFCURVE",
"36 204 CURVE SMOOTH",
"36 82 OFFCURVE",
"113 -10 OFFCURVE",
"236 -10 CURVE SMOOTH"
);
}
);
width = 533;
},
{
background = {
paths = (
{
closed = 1;
nodes = (
"355 -10 OFFCURVE",
"447 60 OFFCURVE",
"478 172 CURVE",
"398 172 LINE",
"371 103 OFFCURVE",
"316 59 OFFCURVE",
"247 59 CURVE SMOOTH",
"170 59 OFFCURVE",
"113 114 OFFCURVE",
"113 210 CURVE SMOOTH",
"113 313 OFFCURVE",
"182 441 OFFCURVE",
"305 441 CURVE SMOOTH",
"369 441 OFFCURVE",
"428 404 OFFCURVE",
"429 330 CURVE",
"509 330 LINE",
"511 447 OFFCURVE",
"410 510 OFFCURVE",
"309 510 CURVE SMOOTH",
"132 510 OFFCURVE",
"32 351 OFFCURVE",
"32 204 CURVE SMOOTH",
"32 62 OFFCURVE",
"134 -10 OFFCURVE",
"243 -10 CURVE SMOOTH"
);
}
);
};
layerId = "AB33B01D-3E13-404E-935A-045AA6D07EB8";
paths = (
{
closed = 1;
nodes = (
"355 -10 OFFCURVE",
"447 60 OFFCURVE",
"478 172 CURVE",
"398 172 LINE",
"371 103 OFFCURVE",
"316 59 OFFCURVE",
"247 59 CURVE SMOOTH",
"170 59 OFFCURVE",
"113 114 OFFCURVE",
"113 210 CURVE SMOOTH",
"113 313 OFFCURVE",
"182 441 OFFCURVE",
"305 441 CURVE SMOOTH",
"369 441 OFFCURVE",
"428 404 OFFCURVE",
"429 330 CURVE",
"509 330 LINE",
"511 447 OFFCURVE",
"410 510 OFFCURVE",
"309 510 CURVE SMOOTH",
"132 510 OFFCURVE",
"32 351 OFFCURVE",
"32 204 CURVE SMOOTH",
"32 62 OFFCURVE",
"134 -10 OFFCURVE",
"243 -10 CURVE SMOOTH"
);
}
);
width = 547;
},
{
background = {
paths = (
{
closed = 1;
nodes = (
"455 -12 OFFCURVE",
"567 60 OFFCURVE",
"583 195 CURVE",
"398 195 LINE",
"391 149 OFFCURVE",
"358 120 OFFCURVE",
"313 120 CURVE SMOOTH",
"255 120 OFFCURVE",
"216 163 OFFCURVE",
"216 245 CURVE SMOOTH",
"216 325 OFFCURVE",
"254 377 OFFCURVE",
"313 377 CURVE SMOOTH",
"358 377 OFFCURVE",
"392 347 OFFCURVE",
"399 303 CURVE",
"583 303 LINE",
"568 434 OFFCURVE",
"459 510 OFFCURVE",
"313 510 CURVE SMOOTH",
"137 510 OFFCURVE",
"28 397 OFFCURVE",
"28 245 CURVE SMOOTH",
"28 73 OFFCURVE",
"156 -12 OFFCURVE",
"313 -12 CURVE SMOOTH"
);
}
);
};
layerId = "9D32FE6F-9470-45EF-9689-909A6F5CE504";
paths = (
{
closed = 1;
nodes = (
"455 -12 OFFCURVE",
"567 60 OFFCURVE",
"583 195 CURVE",
"398 195 LINE",
"391 149 OFFCURVE",
"358 120 OFFCURVE",
"313 120 CURVE SMOOTH",
"255 120 OFFCURVE",
"216 163 OFFCURVE",
"216 245 CURVE SMOOTH",
"216 325 OFFCURVE",
"254 377 OFFCURVE",
"313 377 CURVE SMOOTH",
"358 377 OFFCURVE",
"392 347 OFFCURVE",
"399 303 CURVE",
"583 303 LINE",
"568 434 OFFCURVE",
"459 510 OFFCURVE",
"313 510 CURVE SMOOTH",
"137 510 OFFCURVE",
"28 397 OFFCURVE",
"28 245 CURVE SMOOTH",
"28 73 OFFCURVE",
"156 -12 OFFCURVE",
"313 -12 CURVE SMOOTH"
);
}
);
width = 606;
},
{
background = {
paths = (
{
closed = 1;
nodes = (
"405 -12 OFFCURVE",
"516 57 OFFCURVE",
"552 191 CURVE",
"372 191 LINE",
"357 145 OFFCURVE",
"324 115 OFFCURVE",
"280 115 CURVE SMOOTH",
"231 115 OFFCURVE",
"200 151 OFFCURVE",
"200 212 CURVE SMOOTH",
"200 275 OFFCURVE",
"235 378 OFFCURVE",
"319 378 CURVE SMOOTH",
"362 378 OFFCURVE",
"395 352 OFFCURVE",
"394 303 CURVE",
"574 303 LINE",
"578 437 OFFCURVE",
"458 510 OFFCURVE",
"326 510 CURVE SMOOTH",
"142 510 OFFCURVE",
"16 376 OFFCURVE",
"16 214 CURVE SMOOTH",
"16 74 OFFCURVE",
"124 -12 OFFCURVE",
"269 -12 CURVE SMOOTH"
);
}
);
};
layerId = "69B5B248-E33C-46C9-9D9F-11585640C213";
paths = (
{
closed = 1;
nodes = (
"405 -12 OFFCURVE",
"516 57 OFFCURVE",
"552 191 CURVE",
"372 191 LINE",
"357 145 OFFCURVE",
"324 115 OFFCURVE",
"280 115 CURVE SMOOTH",
"231 115 OFFCURVE",
"200 151 OFFCURVE",
"200 212 CURVE SMOOTH",
"200 275 OFFCURVE",
"235 378 OFFCURVE",
"319 378 CURVE SMOOTH",
"362 378 OFFCURVE",
"395 352 OFFCURVE",
"394 303 CURVE",
"574 303 LINE",
"578 437 OFFCURVE",
"458 510 OFFCURVE",
"326 510 CURVE SMOOTH",
"142 510 OFFCURVE",
"16 376 OFFCURVE",
"16 214 CURVE SMOOTH",
"16 74 OFFCURVE",
"124 -12 OFFCURVE",
"269 -12 CURVE SMOOTH"
);
}
);
width = 597;
}
);
leftKerningGroup = c;
note = c;
rightKerningGroup = c;
unicode = 0063;
},
